<svg xmlns="http://www.w3.org/2000/svg" viewBox="0 0 280 280" fill="none" shape-rendering="auto" aria-hidden="true"><metadata xmlns:rdf="http://www.w3.org/1999/02/22-rdf-syntax-ns#" xmlns:xsi="http://www.w3.org/2001/XMLSchema-instance" xmlns:dc="http://purl.org/dc/elements/1.1/" xmlns:dcterms="http://purl.org/dc/terms/"><rdf:RDF><rdf:Description><dc:title>Avataaars</dc:title><dc:creator>Pablo Stanley</dc:creator><dc:source xsi:type="dcterms:URI">https://avataaars.com/</dc:source><dcterms:license xsi:type="dcterms:URI">https://avataaars.com/</dcterms:license><dc:rights>Remix of “Avataaars” (https://avataaars.com/) by “Pablo Stanley”, licensed under “Free for personal and commercial use” (https://avataaars.com/)</dc:rights></rdf:Description></rdf:RDF></metadata><defs><g id="clothes-hoodie-a53fd17f"><path d="M76 0C60.48 3.7 48.9 10.83 45.23 19.45A72 72 0 0 0 0 86.3v9h200v-9a72 72 0 0 0-45.23-66.86C151.1 10.83 139.52 3.69 124 0v17.3a24 24 0 1 1-48 0z" fill="#3b82f6"/><path d="M70 48.64a67 67 0 0 1-7-2.81V95.3h7zm60 0a67 67 0 0 0 7-2.81V83.8a3.5 3.5 0 1 1-7 0z" fill="#F4F4F4"/><path d="M155.62 19.8a72 72 0 0 1 10.83 5.62c-1.34 15.5-30.58 27.89-66.45 27.89 30.93 0 56-13.44 56-30q0-1.79-.38-3.52m-111.24.01a17 17 0 0 0-.38 3.5c0 16.57 25.07 30 56 30-35.87 0-65.1-12.38-66.45-27.88a72 72 0 0 1 10.83-5.63" fill="black" fill-opacity=".16"/></g><g id="mouth-smile-a53fd17f"><path fill-rule="evenodd" clip-rule="evenodd" d="M27.12 9.13a19 19 0 0 0 37.77-.09c.08-.77-.77-2.04-1.85-2.04H29.1C28 7 27 8.18 27.12 9.13" fill="black" fill-opacity=".7"/><path d="M62 7H31a5 5 0 0 0 5 5h21a5 5 0 0 0 5-5" fill="white"/><path d="M58.7 21.14A11 11 0 0 0 46 19.2a10.95 10.95 0 0 0-12.7 1.94A19 19 0 0 0 46 26c4.88 0 9.33-1.84 12.7-4.86" fill="#FF4F6D"/></g><g id="nose-default-a53fd17f"><path fill-rule="evenodd" clip-rule="evenodd" d="M0 0c0 4.42 5.37 8 12 8s12-3.58 12-8" fill="black" fill-opacity=".16"/></g><g id="eyes-happy-a53fd17f"><path fill-rule="evenodd" clip-rule="evenodd" d="M2.16 14.45C4.01 10.65 8.16 8 13 8c4.81 0 8.96 2.63 10.82 6.4.55 1.13-.24 2.05-1.03 1.37a15 15 0 0 0-9.8-3.43c-3.73 0-7.12 1.24-9.55 3.23-.9.73-1.82-.01-1.28-1.12m58 0C62.01 10.65 66.16 8 71 8c4.81 0 8.96 2.63 10.82 6.4.55 1.13-.24 2.05-1.03 1.37a15 15 0 0 0-9.8-3.43c-3.76 0-7.15 1.24-9.58 3.23-.9.73-1.82-.01-1.28-1.12" fill="black" fill-opacity=".6"/></g><g id="eyebrows-raisedExcitedNatural-a53fd17f"><path fill-rule="evenodd" clip-rule="evenodd" d="m14.9 1.58.91-.4C21.06-.9 29-.03 33.86 2.3c.57.27.18 1.15-.4 1.1C18.54 2.27 8.5 11.56 5.08 17.86c-.1.18-.4.2-.48.03C2.3 12.56 9.05 3.9 14.9 1.58m66.47 0-.91-.4C75.22-.9 67.27-.03 62.4 2.3c-.56.27-.18 1.15.4 1.1 14.93-1.14 24.98 8.15 28.4 14.45.1.18.4.2.47.03 2.3-5.32-4.45-13.98-10.3-16.3" fill="black" fill-opacity=".6"/></g><g id="top-shortWaved-a53fd17f"><path fill-rule="evenodd" clip-rule="evenodd" d="M182.68 38.95c5.4-4.95 6.7-14.99 3.64-21.5-3.77-8-11.42-9-18.75-5.48-6.9 3.31-13.06 4.42-20.62 2.81-7.26-1.54-14.14-4.26-21.65-4.7-12.32-.74-24.3 3.83-32.7 13.05a36 36 0 0 0-4.11 5.8c-.98 1.63-2.08 3.38-2.5 5.26-.2.9.18 3.1-.27 3.83-.48.8-2.3 1.52-3.07 2.1a25 25 0 0 0-4.18 4.05c-2.66 3.22-4.13 6.59-5.37 10.57-4.1 13.25-4.45 29 .86 42 .7 1.74 2.9 5.36 4.18 1.64.26-.73-.33-3.19-.33-3.93 0-2.72 1.5-20.73 8.05-30.82 2.13-3.28 11.97-15.58 13.98-15.68 1.07 1.7 11.88 12.51 39.94 11.24 12.66-.59 22.4-6.28 24.74-8.74 1.03 5.53 13 13.81 14.82 17.22 5.26 9.85 6.43 30.3 8.44 30.27s3.45-5.24 3.87-6.23c3.07-7.38 3.6-16.64 3.26-24.56-.42-10.2-4.63-21.23-12.23-28.22" fill="#5b3527"/></g><clipPath id="clip-a53fd17f"><rect width="280" height="280" rx="0" ry="0"/></clipPath></defs><g clip-path="url(#clip-a53fd17f)"><path d="M140 36a56 56 0 0 0-56 56v6.17A12 12 0 0 0 74 110v14a12 12 0 0 0 10.3 11.88A56 56 0 0 0 116 180.6V199h-4a72 72 0 0 0-72 72v9h200v-9a72 72 0 0 0-72-72h-4v-18.38a56 56 0 0 0 31.7-44.73A12 12 0 0 0 206 124v-14a12 12 0 0 0-10-11.83V92a56 56 0 0 0-56-56" fill="#edb98a"/><path d="M116 180.61v8a56 56 0 0 0 24 5.39 56 56 0 0 0 24-5.39v-8a56 56 0 0 1-24 5.39 56 56 0 0 1-24-5.39" fill="black" fill-opacity=".1"/><use transform="translate(40 184.7)" href="#clothes-hoodie-a53fd17f"/><use transform="translate(94 140)" href="#mouth-smile-a53fd17f"/><use transform="translate(128 130)" href="#nose-default-a53fd17f"/><use transform="translate(98 98)" href="#eyes-happy-a53fd17f"/><use transform="translate(91.86 82)" href="#eyebrows-raisedExcitedNatural-a53fd17f"/><use transform="translate(8)" href="#top-shortWaved-a53fd17f"/></g></svg>