<svg xmlns="http://www.w3.org/2000/svg" viewBox="0 0 280 280" fill="none" shape-rendering="auto" aria-hidden="true"><metadata xmlns:rdf="http://www.w3.org/1999/02/22-rdf-syntax-ns#" xmlns:xsi="http://www.w3.org/2001/XMLSchema-instance" xmlns:dc="http://purl.org/dc/elements/1.1/" xmlns:dcterms="http://purl.org/dc/terms/"><rdf:RDF><rdf:Description><dc:title>Avataaars</dc:title><dc:creator>Pablo Stanley</dc:creator><dc:source xsi:type="dcterms:URI">https://avataaars.com/</dc:source><dcterms:license xsi:type="dcterms:URI">https://avataaars.com/</dcterms:license><dc:rights>Remix of “Avataaars” (https://avataaars.com/) by “Pablo Stanley”, licensed under “Free for personal and commercial use” (https://avataaars.com/)</dc:rights></rdf:Description></rdf:RDF></metadata><defs><g id="clothes-collarAndSweater-67f00a62"><path d="M68.37 14.45A28 28 0 0 1 76 6.88v15.3C76 28 79.98 33.16 86.08 36.3l-.08.06.9 2.87c3.89 2 8.35 3.13 13.1 3.13s9.21-1.14 13.1-3.13l.9-2.87-.08-.06C120.02 33.16 124 28 124 22.18V7.58a27 27 0 0 1 6.6 6.82A72 72 0 0 1 200 86.36v8.95H0v-8.95a72 72 0 0 1 68.37-71.91" fill="#3d7ea6"/><path d="M76 6.88c-6.77 4.6-11 11.17-11 18.45 0 7.4 4.36 14.06 11.3 18.67l6.12-4.82 4.58.33-1-3.15.08-.06C79.98 33.16 76 28 76 22.18zm48 15.3c0 5.83-3.98 10.98-10.08 14.12l.08.06-1 3.15 4.58-.33 5.65 4.45c6.63-4.6 10.77-11.1 10.77-18.3 0-6.92-3.82-13.19-10-17.74z" fill="white" fill-opacity=".75"/></g><g id="mouth-smile-67f00a62"><path fill-rule="evenodd" clip-rule="evenodd" d="M27.12 9.13a19 19 0 0 0 37.77-.09c.08-.77-.77-2.04-1.85-2.04H29.1C28 7 27 8.18 27.12 9.13" fill="black" fill-opacity=".7"/><path d="M62 7H31a5 5 0 0 0 5 5h21a5 5 0 0 0 5-5" fill="white"/><path d="M58.7 21.14A11 11 0 0 0 46 19.2a10.95 10.95 0 0 0-12.7 1.94A19 19 0 0 0 46 26c4.88 0 9.33-1.84 12.7-4.86" fill="#FF4F6D"/></g><g id="nose-default-67f00a62"><path fill-rule="evenodd" clip-rule="evenodd" d="M0 0c0 4.42 5.37 8 12 8s12-3.58 12-8" fill="black" fill-opacity=".16"/></g><g id="eyes-default-67f00a62"><path d="M22 14a6 6 0 1 1-12 0 6 6 0 0 1 12 0m52 0a6 6 0 1 1-12 0 6 6 0 0 1 12 0" fill="black" fill-opacity=".6"/></g><g id="eyebrows-raisedExcitedNatural-67f00a62"><path fill-rule="evenodd" clip-rule="evenodd" d="m14.9 1.58.91-.4C21.06-.9 29-.03 33.86 2.3c.57.27.18 1.15-.4 1.1C18.54 2.27 8.5 11.56 5.08 17.86c-.1.18-.4.2-.48.03C2.3 12.56 9.05 3.9 14.9 1.58m66.47 0-.91-.4C75.22-.9 67.27-.03 62.4 2.3c-.56.27-.18 1.15.4 1.1 14.93-1.14 24.98 8.15 28.4 14.45.1.18.4.2.47.03 2.3-5.32-4.45-13.98-10.3-16.3" fill="black" fill-opacity=".6"/></g><g id="top-shavedSides-67f00a62"><path d="m174.83 55.92-.03.02q1.14 1.32 2.19 2.7a55.7 55.7 0 0 1 11 33.36v5.5a54.3 54.3 0 0 0-17.4-39.93c-11.58 3.77-49.58 14.27-77.63.42A54.4 54.4 0 0 0 76 97.5V92c0-12.5 4.1-24.04 11.01-33.35q1.07-1.41 2.22-2.75l-.02-.02A55.9 55.9 0 0 1 132.01 36a55.9 55.9 0 0 1 42.81 19.92" fill="black" fill-opacity=".16"/><path d="M91.54 53.29A55.8 55.8 0 0 0 76 92v6.16a12 12 0 0 0-6.49 3.34l.7-17.37a46 46 0 0 1 17.37-34.17c-2.2-3.84-1.45-10.33 7.8-13.1 5.07-1.5 7.57-5.08 10.24-8.88 3.5-5 7.27-10.37 17.48-11.92 9.87-1.5 13.23-.88 17.05-.18 3.13.57 6.58 1.2 14.2.76 9.85-.57 16.86-4 21.43-6.22 3.26-1.6 5.27-2.58 6.17-1.47 15.42 18.9 6.97 33.8-6.2 41.96A45.9 45.9 0 0 1 192 86v13.6q-1.84-1.07-4-1.43V92a55.8 55.8 0 0 0-16-39.19c-7.76 2.75-50.39 16.55-80.46.48m131.07 172.76c3.06 5.6 4.05 11.12 3.5 16.38A72 72 0 0 0 160 199h-4v-18.39a56 56 0 0 0 31.8-45.74c1.5-.23 2.93-.74 4.2-1.47v20.7c0 20.77 11.47 39.79 22.15 57.47 2.97 4.93 5.88 9.75 8.46 14.48M67.7 146.5l.66-16.35a12 12 0 0 0 7.85 4.72A56 56 0 0 0 108 180.6V199h-4c-11.2 0-21.8 2.56-31.25 7.12-2.99-18.29-4.3-38.68-5.05-59.62" fill="#2c1b18"/><path fill-rule="evenodd" clip-rule="evenodd" d="M89.88 52.36c33.22 19.3 83.37 0 83.37 0 14.53-7.77 25.08-23.32 8.7-43.4-2.17-2.66-10.7 6.72-27.6 7.7-16.9.97-13.27-3.31-31.25-.59-17.97 2.73-15.99 17.3-27.72 20.8s-9.8 13-5.5 15.5" fill="white" fill-opacity=".2"/></g><g id="accessories-prescription01-67f00a62"><path fill-rule="evenodd" clip-rule="evenodd" d="M105.95 49.49c4.66.16 8 .88 10.54 4.52 3 .15 6.23.37 8.95 1.63 3.4 1.56 3.91 5.1-.36 5.6a20 20 0 0 1-5.55-.46l-.18-.03-.34-.06c1.1 9.46-6.2 20.87-14.23 24.35C93.83 89.8 81.57 84.53 75.77 75c-2.63-4.3-4.15-10.51-4.47-15.86q-.63-.31-1.23-.67-.57-.34-1.12-.61c-2-.98-5.34-1.1-7.5 0q-.51.26-1.04.58-.64.38-1.32.72C58.77 64.5 57.25 70.7 54.63 75c-5.8 9.53-18.07 14.8-29.04 10.04-8.06-3.48-15.37-14.9-14.26-24.35q-.18-.01-.34.03l-.19.03c-1.83.33-3.69.66-5.55.45-4.26-.5-3.74-4.03-.36-5.6 2.74-1.25 5.98-1.47 9-1.62 2.54-3.63 5.88-4.36 10.54-4.52l23.3-.46c5.18-.14 9.71 0 11.02 4.6a19 19 0 0 1 6.35-1.25c1.86 0 4.35.45 6.5 1.28 1.3-4.64 5.84-4.77 11.03-4.63zM81.9 56.27c-2.37.03-3.49.42-3.9 2.9-.4 2.5 0 5.31.48 7.78.72 3.77 1.92 7.46 4.7 10.22a16 16 0 0 0 8.32 4.34l.96.16c.63.1 1.23.18.72.13l-.1-.01h-.06.16c3.72.4 7.7.32 10.8-2.04 3.54-2.7 5.96-6.95 7.03-11.2.62-2.48 1.93-8.42-.46-10.4-2.74-2.28-28.64-1.88-28.64-1.88m-33.43 0c2.37.03 3.5.42 3.9 2.9.4 2.5 0 5.32-.46 7.78-.72 3.77-1.92 7.46-4.7 10.22a16 16 0 0 1-8.33 4.35l-.96.15c-.64.1-1.25.19-.68.13-3.73.4-7.74.32-10.84-2.05-3.54-2.7-5.96-6.95-7.02-11.2-.62-2.48-1.93-8.42.46-10.4 2.74-2.28 28.63-1.87 28.63-1.87m-10.93 25.5" fill="black" fill-opacity=".1"/><path fill-rule="evenodd" clip-rule="evenodd" d="M105.95 47.49c4.66.16 8 .88 10.54 4.52 3 .15 6.23.37 8.95 1.63 3.4 1.56 3.91 5.1-.36 5.6a20 20 0 0 1-5.55-.46l-.18-.03-.34-.06c1.1 9.46-6.2 20.87-14.23 24.35C93.83 87.8 81.57 82.53 75.77 73c-2.63-4.3-4.15-10.51-4.47-15.86q-.63-.31-1.23-.67-.57-.34-1.12-.61c-2-.98-5.34-1.1-7.5 0q-.51.26-1.04.58-.64.38-1.32.72C58.77 62.5 57.25 68.7 54.63 73c-5.8 9.53-18.07 14.8-29.04 10.04-8.06-3.48-15.37-14.9-14.26-24.35q-.18-.01-.34.03l-.19.03c-1.83.33-3.69.66-5.55.45-4.26-.5-3.74-4.03-.36-5.6 2.74-1.25 5.98-1.47 9-1.62 2.54-3.63 5.88-4.36 10.54-4.52l23.3-.46c5.18-.14 9.71 0 11.02 4.6a19 19 0 0 1 6.35-1.25c1.86 0 4.35.45 6.5 1.28 1.3-4.64 5.84-4.77 11.03-4.63zM81.9 54.27c-2.37.03-3.49.42-3.9 2.9-.4 2.5 0 5.31.48 7.78.72 3.77 1.92 7.46 4.7 10.22a16 16 0 0 0 8.32 4.34l.96.16c.63.1 1.23.18.72.13l-.1-.01h-.06.16c3.72.4 7.7.32 10.8-2.04 3.54-2.7 5.96-6.95 7.03-11.2.62-2.48 1.93-8.42-.46-10.4-2.74-2.28-28.64-1.88-28.64-1.88m-33.43 0c2.37.03 3.5.42 3.9 2.9.4 2.5 0 5.32-.46 7.78-.72 3.77-1.92 7.46-4.7 10.22a16 16 0 0 1-8.33 4.35l-.96.15c-.64.1-1.25.19-.68.13-3.73.4-7.74.32-10.84-2.05-3.54-2.7-5.96-6.95-7.02-11.2-.62-2.48-1.93-8.42.46-10.4 2.74-2.28 28.63-1.87 28.63-1.87m-10.93 25.5" fill="#334155"/></g><clipPath id="clip-67f00a62"><rect width="280" height="280" rx="0" ry="0"/></clipPath></defs><g clip-path="url(#clip-67f00a62)"><path d="M140 36a56 56 0 0 0-56 56v6.17A12 12 0 0 0 74 110v14a12 12 0 0 0 10.3 11.88A56 56 0 0 0 116 180.6V199h-4a72 72 0 0 0-72 72v9h200v-9a72 72 0 0 0-72-72h-4v-18.38a56 56 0 0 0 31.7-44.73A12 12 0 0 0 206 124v-14a12 12 0 0 0-10-11.83V92a56 56 0 0 0-56-56" fill="#8d5524"/><path d="M116 180.61v8a56 56 0 0 0 24 5.39 56 56 0 0 0 24-5.39v-8a56 56 0 0 1-24 5.39 56 56 0 0 1-24-5.39" fill="black" fill-opacity=".1"/><use transform="translate(40 184.7)" href="#clothes-collarAndSweater-67f00a62"/><use transform="translate(94 140)" href="#mouth-smile-67f00a62"/><use transform="translate(128 130)" href="#nose-default-67f00a62"/><use transform="translate(98 98)" href="#eyes-default-67f00a62"/><use transform="translate(91.86 82)" href="#eyebrows-raisedExcitedNatural-67f00a62"/><use transform="translate(8)" href="#top-shavedSides-67f00a62"/><use transform="translate(75.77 46)" href="#accessories-prescription01-67f00a62"/></g></svg>