<svg xmlns="http://www.w3.org/2000/svg" viewBox="0 0 704 704" fill="none" shape-rendering="auto" aria-hidden="true" width="512" height="512"><metadata xmlns:rdf="http://www.w3.org/1999/02/22-rdf-syntax-ns#" xmlns:xsi="http://www.w3.org/2001/XMLSchema-instance" xmlns:dc="http://purl.org/dc/elements/1.1/" xmlns:dcterms="http://purl.org/dc/terms/"><rdf:RDF><rdf:Description><dc:title>Open Peeps</dc:title><dc:creator>Pablo Stanley</dc:creator><dc:source xsi:type="dcterms:URI">https://www.openpeeps.com/</dc:source><dcterms:license xsi:type="dcterms:URI">https://creativecommons.org/publicdomain/zero/1.0/</dcterms:license><dc:rights>Remix of “Open Peeps” (https://www.openpeeps.com/) by “Pablo Stanley”, licensed under “CC0 1.0” (https://creativecommons.org/publicdomain/zero/1.0/)</dc:rights></rdf:Description></rdf:RDF></metadata><defs><g id="head-mohawk2-91a044f9"><path fill-rule="evenodd" clip-rule="evenodd" d="M584.8 486.8c-17-76.6-20.2-160.7-64.8-227.6-19.5-27.3-50.8-62.9-87.4-51.6q2.3-24.2 4.3-48.5c.7-9.3 4.2-21.6-3.6-28.7C420.3 120 399 136 389 145c-21.7 20.7-30.2 40.8-58.7 54.6-11.4-8.1-22.6-16.6-34.1-24.6-11.9-8-28.8-21.1-41-6.2-10.4 12.6-3.8 32.5.4 46.4 2 7 4.2 14.8 7 22.1q.5 8.4 1.4 16.7c-21.1 3.7-42.8 6.9-63 14.3-11 6-10 19.4-2.2 27.5a122 122 0 0 0 42.5 26.1 44 44 0 0 1-18.7 24.4q-4.4 3-5.3 7.5a59 59 0 0 1-14.4 5c-6.4 1.3-10 8.7-8.4 14.6 4.6 14.4 20.8 6.2 31.3 5.2.3 10 .4 20.5 5 29.8-24.4 6.4-45.5 29.8-39.9 56 5.1 25.2 32.3 32.9 53.8 38.6 1.6 1 1.6 1.9 2 4.3 3.6 16.3.7 34.2-5 49.6-1.5 4.3.8 9.5 4.2 12 17.5 11.2 23.3-22.7 43.2-1.1-1.5-.2-5.2-2-5 .6 25.9 45.4 102.2 48.2 149 49.3 5.7 2.7 12.1 1.2 18.5-.6q9.3-.5 18.4-1.4c11.1-2 30.8.4 31.5-15.3 28.8-11.4 53.5-31 70.4-57a67 67 0 0 0 12.9-56.5" fill="#edb98a"/><path fill-rule="evenodd" clip-rule="evenodd" d="M247.9 531a69 69 0 0 0 15 33l-.5.2-.5.3c-4 2-8 3-11.6 0-3.2-2.8-1.8-8.4-1.5-12.2V551l.3-2.9v-1.2c.3-3.8.4-7.6-.6-11.1q-.3-1-1-1.4 0-1.4.3-2.8zm-25.3-184.8q-4 15-5.6 30.3c-3 0-6 .4-9-.3q-3.1-.8-5.9-2.3c-.6-.4-1.5-1.4-2.3-1.8 1.6-1 3.6-4.3 4.9-5.6q3-3 6.2-5.8c2.8-2.5 9.1-5.7 9.7-9.6q0-.3-.2-.5-.8-.5-1.6-.5 1.3-2 3.4-3.7zm56.7-172.4.5.2 2.3 1.2q6.5 3 12.9 6.7a807 807 0 0 1 30.7 17.5c.8.5 1.9-.5 1.3-1.3l-1.3-1.9.2.2c1.6 1.2 4.2 3.8-.6 7.3-11.6 8.3-22 18.2-31.8 28.4a240 240 0 0 0-39.2 53.2 131 131 0 0 0-21.5 33l-5-2.3q1.8-.3 4-1.6l.4-.2.7-.4c2.3-1.3 3-5 .8-6.8-1.8-1.6-2.6-2.9-5-3.7l-6.6-1.6a45 45 0 0 1-22.2-14.5l-.7-.8-.6-.9c-1.3-1.6-2.8-3.7-2-5.5s4.5-3.7 6.2-4.7l1-.6c17.2-10.6 37.1-12 56.3-16.3.8-.1.6-1.2-.1-1.3l-10.7-.6 14.7-2.6-.8-8.4c2.2 1.8 5.1 2.4 9.2.3 3.3-1.7 4.4-6 3-9.3q-.6-1.6-1.8-2.6l-.2-.2L271 223l-5.3-24-.1-.8-.2-.7-1-4.2c-2-7.8-4.1-18.4 2.6-22 3.8-2.1 8.7.8 12.3 2.6m149.5-35.2.1.7.4 1.7q1.2 5.5 1.8 11.2a151 151 0 0 1-.7 39c-.6 4.6-2 9.1-2.2 13.7q-2 2.7-4.1 5.2c-3.8 4.2-8.4 7.4-14.2 7.4-11.3.2-20.7-8.6-31.6-10.5h-.7c-1.8-.4-16.1-4.1-14.4-10.3l.1-.3a5 5 0 0 0-1.3-5l-2-1.4c11-19.6 25.9-36.3 46.2-47.3l2.8-1.5 1.5-.8c4.7-2.3 10-4.8 14.8-5.2 2.5-.2 3 1.4 3.5 3.4" fill="#724133"/><path fill-rule="evenodd" clip-rule="evenodd" d="m410.2 124.7 1.6-.8c5.8-2.5 12.2-4.9 18.5-3.5 7.3 1.6 11.5 7.9 13.3 14.7 2.1 8 3 16.4 3.6 24.5q.8 12.8-.2 25.4a84 84 0 0 1-4.3 22l.4-.2c10.4-1 19.9-.4 29.8 3q13.9 4.6 26 12.9a128 128 0 0 1 40 48.3c19 37.7 23 80.4 28.3 121.6l.1 1.3c2.9 22 6.7 43.8 12.8 65.2l1 3.6c5.6 19.6 9 38.6 4.5 58.9-8.6 39.2-39 68.7-74 85.8a228 228 0 0 1-57 18.9c-20 3.8-41.8 4.4-60.1-6-9-5.1-1-18.3 8-13.8 19 9.2 40.5 6.2 60.1 1 19.6-5 38.8-12 56-22.5 29.8-18 54.8-49 55.7-85.1.4-20.3-8.3-39.7-12.4-59.3-3.7-17.2-6-34.7-8.2-52.3l-1.6-13c-4.6-37.3-10.4-75.7-29.6-108.7a120 120 0 0 0-80-58.6c-1 5.5-7 10.6-11 13.8a30 30 0 0 1-19.5 7.6c-14-.2-26-11.1-35.6-20.2-1.1-1 0-2.5 1.3-2.3 11.1 1.7 20.7 10.7 32.1 10.6 6 0 10.4-3.2 14.3-7.4l4-5.2c.4-4.6 1.7-9 2.3-13.7q.8-6.3 1.2-12.8a151 151 0 0 0-2.3-37.4l-.4-1.7c-.5-2.3-.8-4.3-3.6-4.1-6.1.5-13 4.2-18.3 7a116 116 0 0 0-47 47.8l2 1.4a5 5 0 0 1 1.3 5c-2.2 6.5-10.1 6.7-15.7 9.2q-9 4.3-17.2 10.3a253 253 0 0 0-29.6 26 631 631 0 0 0-41.3 45.9l-2.8 6.2a237 237 0 0 0-21.3 84.6c-.6 10 .8 20 .7 30q1.4 2.6.8 5.5 4.2 1.2 8 3.6c.7.4.3 1.4-.4 1.2q-5-1.2-9.7-.6a9 9 0 0 1-7 3.3h-1.1q-1.3 0-2.5-.4a41 41 0 0 0-23.8 40 32.5 32.5 0 0 0 32.2 31.9c5 0 11.7-1.4 15.8 1.9q.7.5 1 1.4l.9-3.7c.3-1 1.8-1 2 0l.2 1.4c3.5 19.5 4.7 39.7 18.5 55.4 6.5 7.3 14.3 14 22.2 19.5l1.4 1a31 31 0 0 0 11.1 5.4c4.5 1 8.3.7 12.4 3.2 2 1.2 3.2 3.7 2.5 6-4.7 14.3-22.8 7.9-32 2.2Q281 582 274 575.6a36 36 0 0 1-13 4.7c-6.2 1-13-.4-18-4.5a18 18 0 0 1-6.2-17.2q.7-5 2.2-9.8l.8-2.6c1.1-3.8 2-7.8 4.2-11.1 1.2-1.7 3.9-1.5 4.5.6 1.3 4.8.7 10.2.4 15.2l-.1 1.2c-.2 3.7-1.8 9.5 1.5 12.3 4 3.4 8.3 1.8 12.5-.5l-1.2-1.6a75 75 0 0 1-13.4-60.3c-3.5 4.6-12.8 5.6-17.7 5.3q-11.7-1-21.8-7a48 48 0 0 1-21.7-39.8 49 49 0 0 1 19.5-40.4q5.2-3.7 11-5.5c-1.8-7.6-2-16-1.6-24.3a31 31 0 0 1-13.7-1.6l-.7-.2c-6.4-2.3-14.5-7-15.7-14.1-1.5-8.9 9.4-14 15.8-17.5q4.5-2.6 9.1-4.5l1-.4c2.7-1 5.9-3 8.6-1.4q.3.1.2.5c-.5 3.8-6.8 7.1-9.6 9.5l-6.2 5.9c-1.3 1.3-3.3 4.6-5 5.6.8.4 1.8 1.3 2.4 1.7q2.7 1.6 5.8 2.3c3 .8 6 .5 9.1.4q1.8-18.2 7.1-35.6c6-19.6 16-40.2 30.2-55.6a240 240 0 0 1 39.2-53.2 238 238 0 0 1 31.7-28.4q7.7-5.6 16.2-9.7l2-.8c3-1.5 7-3.4 10.6-4a98 98 0 0 1 56.1-64.6M221.2 453a49 49 0 0 1 31.2-7.7 58 58 0 0 1 15.9 3.7l2 .8c5 2 10.1 4.3 10.3 10.2 0 2.3-1.7 4.2-3.7 4.9-5 1.8-9.2-2.5-13.3-4.7a60 60 0 0 0-13.3-5q-.8 0-1.4-.3.4.7.4 1.6-.2 2-1 3.7c0 .4-.3 2.8-.6 3l.1 2.4c0 2.5-.2 4.5-1.5 6.6-3 5.3-11.8 5.8-14.7 0-3-5.8-.6-11.5 3.8-15.6q1.8-1.9 4.6-3.1-9.3-.8-18.6.5c-.6 0-.7-.8-.3-1m.5-194.7c12.5-2.1 25.6-2.6 38.3-1.3.6 0 1 1.1.1 1.3-19.2 4.2-39.2 5.6-56.3 16.2l-.8.5c-1.7 1-5.6 3-6.4 5-1 2.1 1.6 5 2.8 6.5q4.3 5.4 10 9.2a45 45 0 0 0 12.7 6q3.3.6 6.5 1.5c2.5.8 3.3 2 5.1 3.7 2.2 1.9 1.4 5.5-.9 6.8l-.6.4c-3 1.7-4.7 2.2-8.5 1.6q-4.6-1-8.7-2.8a58 58 0 0 1-14.2-8.4l-.7-.6c-7.8-6.4-21-20.4-12.3-30.6 7.7-9 22.7-13.1 33.9-15m30.8-97.2c12-14.2 29-4.5 41.1 4q19.6 13.4 33.4 32.9c.6.8-.6 1.8-1.4 1.3A807 807 0 0 0 282 175l-2.3-1c-3.7-1.9-8.9-5.2-12.8-3-8.3 4.6-3.2 19.7-1.4 27l.1.7 5.3 24 2.4 10.9a7 7 0 0 1 2 2.8c1.4 3.2.3 7.5-3 9.2-9.7 5-13-4.7-14.8-12l-4.5-17.8-2.5-9.9c-3.8-14.8-9.1-31.8 2-44.8" fill="black"/></g><g id="expression-blank-91a044f9"><path fill-rule="evenodd" clip-rule="evenodd" d="M145.7 185.8c.7-.2 1.3.8.8 1.3-2.4 2-3.9 6-5.6 8.6a117 117 0 0 0-9 16.7l-.3.6.9 2.4v.2c2.2 5.4-2.3 11.5-7.4 13-8.7 2.7-16.1-4.5-16.3-13-.2-6.6 4.3-12.5 9-17a52 52 0 0 1 13.5-9.5q3.3-1.7 6.9-2.4c2.5-.6 5.1-.2 7.5-.9M129.4 210q1 .5 1.6 1.8a3 3 0 0 0-1.6-1.8m5.4-92.6c7.6 4.6 19 15.3 11 26.6-9.6 10-23.4-1.4-30.2-6.6-6.3-4-13.3 6.3-7.5 11 49 36.3 69-29.8 30.5-36.4-4.2-.8-5.8 4-3.8 5.4m-62-44.1 1.3-.1c5.8-.5 11.6-1.3 17.3 0 7.7 1.8 7.1 13 0 15-6.2 1.8-13.2 1-19.6 1l-3 .1q-.4 3.5-2.3 6.6-1.4 2.3-3 4.2c-2.7 3.2-8.8 3.1-11.4 0-2-2.3-3.5-4.9-3.5-8q0-1.2.3-2.4h-3.6c-8.6.2-17.3.1-25.8-1.3-3 .7-5.5-4.8-1.3-6.4 11.3-4.4 24-5.7 36-7q9.3-1 18.5-1.7m96.4-4.6h.3c7.4-.8 15.7-2.1 23.2-1.3a8.7 8.7 0 0 1 0 17.4 67 67 0 0 1-12.7-.2c2.2 4.7-.4 10.3-5.8 11-4.9.6-10-4.2-8.4-9.3V86l1-3H165c-5.3-.5-12.7-1.5-14.7-5.7a3 3 0 0 1 .5-3.6c3.7-4.4 13-4.6 18.4-5M89.5 34c5.4-2 11 2.7 11.8 7.9.8 6-3.5 9.9-9 10.6H92c-12 1.5-24 3.8-36 5.2q-8.2.9-16.6 1.2h-4c-4.8.2-10 .3-14.4-1.4-1.2-.4-1.8-2-.4-3 4.7-3.4 11.1-4.6 16.7-6.2L54 43.8c11.8-3 24-5.6 35.5-9.8m50 1.4c1.4-7.5 12.2-8.3 16.1-2.8l8.6 2.4 12.1 3.6q12.5 3.8 24.8 8.2c.8.3.6 1.4-.2 1.5a200 200 0 0 1-34.4 1.7l-2.3-.1c-10.2-.4-27.5.3-24.7-14.5" fill="black"/></g><clipPath id="clip-91a044f9"><rect width="704" height="704" rx="0" ry="0"/></clipPath></defs><g clip-path="url(#clip-91a044f9)"><path fill-rule="evenodd" clip-rule="evenodd" d="M705.3 1074a2351 2351 0 0 1-15.6-101c-1-7.7-2.5-16.4 2.7-22 7.3-8 14-14.8 14.8-26.2.8-10.7-2.8-22.4-5-32.8a809 809 0 0 0-17.3-64.7q-10-32.5-21.3-64.6c-6.9-20-13.5-40.3-22.5-59.5-17-36.5-46-63.5-81.6-81.6-9-4.5-27-20.5-36.3-24-8.5-3.4-8.5 6.3-16.9 2.6-6.7-2.9-13-6.7-16.7-13.2-4-7-14.3-16.9-15.9-25-3.3-17.4.3-32.2-12-45.3a90 90 0 0 0-41.1-23.8c-33.7-9.3-78.5-2.8-98.8 28.5-9.7 14.9-13 33-26.2 45.1-11.4 10.7-8.8 18-23.6 23.4-.9.3-23.6-4.5-24.4-4.2-16.2-3.5-31.7 6.2-46.5 11.8a325 325 0 0 0-63 32.3 399 399 0 0 0-102.3 98.5 483 483 0 0 0-76.4 161c-1.7 6.4-3.5 13-1.5 19.4a25 25 0 0 0 9.8 12.4c6 4.3 18 7 17.7 15.7-.1 6.6-2.4 13.5-3.5 20q-1.9 11.6-3.4 23.2a1232 1232 0 0 0-10.3 106.6 920 920 0 0 0-.5 106q.2 3.5 2 6.2c-1 .4-1.2 2.4.1 2.7l2.7.5a12 12 0 0 0 7 2.4l5.5.2c19.3 4 38.6 7.9 58.1 10.8q35.7 5.2 71.5 8.7c49.2 4.8 98 3.2 147.1.6a1877 1877 0 0 1 147.4-2c49.2 1.4 98.4 3.5 147.6 4.4q82.5 1.6 164.8-5c7.5-.5 12.2-6.5 10.7-14-8.9-44.7-19-89.1-27-134" fill="#edb98a"/><path fill-rule="evenodd" clip-rule="evenodd" d="m201 597.5 1.2-.4c14.5-5.7 29.6-14.8 45.4-11.4.5-.2 10.8 1.9 17.9 3.2l-6.7 7L247 598q61 100.7 144.3 100.7T517.7 598l4-1q.7 0 1.5.4c9.3 3.6 27.4 19.6 36.3 24.1 35.6 18 64.5 45 81.6 81.6 8.7 18.6 15.2 38 21.8 57.5l.7 2q11.3 32.1 21.3 64.6 9.6 30.6 16.6 61.8l.7 2.9c2.2 10.4 5.8 22 5 32.8a29 29 0 0 1-3 10.7l-80.4 29 38.4 261.3q-52.7 2.3-105.5 1.3c-49.2-.9-98.4-3-147.6-4.3q-71.5-1.9-143 1.7l-12 .6a946 946 0 0 1-139.5-1l-3.1-.3v-38.3l16.3-212.9-83-15.6-81.3-39.5a22 22 0 0 1-5.6-8.8c-1.9-6-.5-12 1-18l.5-1.3a493 493 0 0 1 76.4-161A399 399 0 0 1 138 629.7q29.8-19.6 63-32.3" fill="#fdea6b"/><path fill-rule="evenodd" clip-rule="evenodd" d="M232.2 584.6c5.1-.3 10.3.6 15.4 1 .4.1.6.8 0 .9q-13.5 3-26.9 7.1l-3.8 1.2c-10 3-19.8 6-29.6 10a264 264 0 0 0-54.8 30.8C67.2 682.8 20 754.3-9.9 828.3a526 526 0 0 0-24.3 77c-.4 1.6-2 5.4-1 7 .7 1.3 3.6 2.1 5 2.9l4.5 2.3 25.2 12.9 2.3 1.1c38 18.6 78.4 34.4 121 35.5l.4-3.7a342 342 0 0 1 9.9-60c.3-1 1.6-.6 1.7.3 3 23.1 2 46.4 1 69.7-1.8 41-4.3 82.2-6.5 123.3l-3.9 61.7c-1.3 20.5-1.7 41.6-4.7 62-.6 4.6-6 7-10 6.6a9 9 0 0 1-8-9c0-11.9 1.5-24 2.4-35.8l2.5-33.8c3.1-41.1 6.8-82.2 10.2-123.3l3.8-43.7C76.4 979.8 34.2 963-6.1 943.5c-.6 13.2-2 26.5-3.4 39.6q-5.8 55.2-9.6 110.5a2254 2254 0 0 0-4.2 92.7l-.2 7c0 4.4-.5 8.5-4.3 11.7a9 9 0 0 1-12.6 0c-5-4.6-4.2-10.9-4-17.1a1676 1676 0 0 1 1.8-47.2 1321 1321 0 0 1 10.5-109.5l2-14a461 461 0 0 1 15.5-77.9q-4.6-2.2-9.3-4.7-8.4-4-16.6-8.4c-4.2-2.5-7.9-5.8-9-10.8-1.4-5.5.6-11.5 2-16.9v-.4a502 502 0 0 1 26.6-80 523 523 0 0 1 67.8-117 354 354 0 0 1 88.7-83.3 239 239 0 0 1 53.8-25.7 143 143 0 0 1 42.8-7.5m90.1-66c6-6.5 18.1.2 15.2 8.8a108 108 0 0 1-34.7 52A79 79 0 0 1 247 598l1.7 2.4a321 321 0 0 0 46.1 52.6c36 31.2 84.8 48 132 36 37.1-9.4 69.8-38.8 79.4-76.2q-2 1-4.8.5c-7.7-1.7-15.3-9.8-20.3-15.6q-8-9.3-12.6-20.7c-5.6-14-7.4-32.1.3-45.7 1-1.7 3-.7 3.3 1l.3 2.5c1.5 12.7 3.3 25 9.3 36.6a76 76 0 0 0 18.2 23.1c2.6 2 5.8 3.6 8.1 6l.5.4c.6-5 4.1-7.3 7.6-7.2a29 29 0 0 1 8.8 2.3l.1.1a341 341 0 0 1 65.1 42 259 259 0 0 1 88.4 129c7.5 25.3 11.8 51.4 16.3 77.4l2.8 16c4.2 23.9 8.9 48.4 18.4 70.7 2.5 5.7.6 11.1-5.5 13.4L688 953c3.7 16 6 32.5 8.7 48.5 6 34.1 13.2 68 19.4 102l9.3 52.3 4.7 25.2 2.4 13.6.1.7c.5 2.4 1 4.9.4 7.3-.8 2.7-2.9 4.6-4.8 6.6-1.6 1.6-3.8 1.6-5.7.7l-.7-.3c-3.4-1.6-6-3.2-7.3-7q-.9-3.8-1.5-7.7l-2.8-14.5-5-29.1-1.6-9.1a1165 1165 0 0 1-12.8-94.5q-1.6-21-3.5-42.2l-.9-10.5c-1.1-13.3-2.5-27-2.7-40.5l-4.5 1.6L657 964c-5.5 2-12.5 6-18.4 5.2q-4.2-.4-6.8-2.9 3 43.1 8.5 86a1966 1966 0 0 0 22 135l1.9 9.6c.5 3.7-.5 5.9-2.5 9-1.7 2.4-5 3.7-7.8 2-3.6-2.3-5.5-4.3-6.5-8.4q-1.4-5.6-2.3-11.4a1654 1654 0 0 1-11.4-65.2Q622 1044.7 618.5 966a1388 1388 0 0 1-1.4-77.8q0-20 1.4-39.9c1-13.4 3-26.5 4.8-39.8 0-.5.7-.5.7 0 .8 14.9 2.1 29.8 2.8 44.7l1.4 42.8q.9 28.1 2.7 56.2a10 10 0 0 1 8.5-3.1c4.7-1 9.7-3.4 14.1-5l16.8-5.5 26.4-8.7a679 679 0 0 1-18-80.8l-2-12.3c-4-24.2-8.5-48.5-15.8-72a230 230 0 0 0-34.8-68.2 370 370 0 0 0-52.7-55.3C557 627 539.7 614 523 600q.2 1.4 0 3a117 117 0 0 1-35.8 67.9c-37.7 36-93.6 43.4-142 26.5-46.7-16.3-88-55-102.6-102.8-.3-.8.8-1 1.3-.5l2.4 3.3q0-.7.7-1a129 129 0 0 0 46.6-29.2 100 100 0 0 0 21.3-33.3l.4-1c1.7-5 3.2-10.2 7-14.2" fill="black"/><use transform="matrix(.99789 0 0 1 6.3 -58)" href="#head-mohawk2-91a044f9"/><use transform="translate(351 275)" href="#expression-blank-91a044f9"/></g></svg>