<svg xmlns="http://www.w3.org/2000/svg" viewBox="0 0 704 704" fill="none" shape-rendering="auto" aria-hidden="true" width="512" height="512"><metadata xmlns:rdf="http://www.w3.org/1999/02/22-rdf-syntax-ns#" xmlns:xsi="http://www.w3.org/2001/XMLSchema-instance" xmlns:dc="http://purl.org/dc/elements/1.1/" xmlns:dcterms="http://purl.org/dc/terms/"><rdf:RDF><rdf:Description><dc:title>Open Peeps</dc:title><dc:creator>Pablo Stanley</dc:creator><dc:source xsi:type="dcterms:URI">https://www.openpeeps.com/</dc:source><dcterms:license xsi:type="dcterms:URI">https://creativecommons.org/publicdomain/zero/1.0/</dcterms:license><dc:rights>Remix of “Open Peeps” (https://www.openpeeps.com/) by “Pablo Stanley”, licensed under “CC0 1.0” (https://creativecommons.org/publicdomain/zero/1.0/)</dc:rights></rdf:Description></rdf:RDF></metadata><defs><g id="head-dreads1-97a04e6b"><path fill-rule="evenodd" clip-rule="evenodd" d="M392 195.3c56.8 0 115.6 44 136.4 72 24 32.5 43 188.4 34.1 241.3s-53.1 110.6-130 110.6c-76.7 0-123.5-9.5-125.3-23.2-2-13.8-50.7-90.2-50.7-90.2s-49.9-14-50-47.6a50 50 0 0 1 26.7-45.7s-9.6-132.3 14.5-166.7c24.2-34.5 87.6-50.5 144.3-50.5" fill="#edb98a"/><path fill-rule="evenodd" clip-rule="evenodd" d="M425.1 128.2c9-2 12.6 11.8 3.7 13.4q-9 1.5-18 4 3.7-.4 7.2.9l1.4-.5c19.2-6.7 40.1-11.7 60.3-6.6 16.6 12-24.1 13.8-30.7 15.4 22 1.3 44.7-3.7 66 4.3 8.1 3.2 5 15.8-9.6 10q.5 1.6.2 3.2c6.6.7 13.5 2.5 19.5 6.3 44.7-1.1 60.8 35.3 23.2 22.7q1.5 1.3 2.4 2.7h.6c10 .9 36.4 6.6 35 18.6a50 50 0 0 1 19.6 8.1c5.9 4.7-.5 13.6-7 11.9q-2.9-.8-5.5-2.3-1 1.2-2.8 2.3c11.3 9.1 26.2 16.8 32 30.5a6.4 6.4 0 0 1-4.6 8c-11.8 3-21.6-6.2-29.7-14.9q2.7 7.3 3.2 13.5a61 61 0 0 1 19.3 17.2c8.7 4.9 19.4 13 19.7 22.9.2 7.2-6.9 11.2-13.4 10h-.2a50 50 0 0 1 5.7 17.5l.6.4c6.2 3.8 12.3 8.4 12.5 16 .1 5.7-5.6 9.4-11 8.2l-2.1-.7v.6q3.4 2.4 6.4 5l1.8 1.5c7 6 13.8 12.8 11.8 23-.7 3.5-4.3 5.3-7.5 5.6H633l.3.8c4.4 11.9 7.3 31-7.1 29.3 2.2 19.4-9.5 22.3-17.6 12.6 9.5 11.3 26.8 82.7-3.4 70a127 127 0 0 1-11.6 46.6l-.2.5c-3.7 8-20.2 32-25.5 14.5 3.8-21.8 14.7-42.5 16.5-64.8-2.2-.3-4-2.4-4.8-4.7a72 72 0 0 1-14.8 30.8l-3.9 9a128 128 0 0 1-17.2 26.4 60 60 0 0 1-12 11.7c-3.8 2.6-8.2 4.2-12.4 5.8a88 88 0 0 1-24.2 16.2 144 144 0 0 1-45 12.4q-24 2.8-47.7-1.3c-15-2.6-31.2-9.2-40.5-22-.8-1 .7-2 1.7-1.6a156 156 0 0 0 126 .3c10.6-5 19.5-12.1 29-18.7q2.7-3.6 5.8-7l3.3-3.5q3.8-3.9 7-8.1 10.6-13.4 16.3-29.3c7.2-20.4 5.3-42.6 4-63.8l-.1-2q-1.7-29.5-5.3-58.8-2.6-.9-4.7-2.7c-5.3-33.3-20.7-67.3-46.7-89.8a137 137 0 0 1 25.6 71.5c.4 4.6-5.9 4.5-7.3 1-14.5-37.8-21.9-78.6-66.1-93.4-17.6 23.8-25.3 52.5-40 77.6-3.8 5.9-12 3-12.5-3.3-1.8-18 5.5-35.8 14.5-51.6l-7.3 8.8c-56.4 67.5-61 77.6-55 181-.5 5.2-7.2 7.7-10.2 2.8-17.2-32.8-9.8-73-5-108l-5 10.4c-1.1-3.6-3 .4-2.6 5.7q-4.5 10-8.3 20.7c.1 22.4 7.6 43.9 7.6 66.2.5 6.3-8 7.3-11 3q-4-5.4-7-11c.2 9.4 4 17.7 6.6 26.5 1.8 3.1 2.6 6.4 1.4 9.9v.3c-2 5.8-9 7-13.3 3q.1 5.6-1.4 10.8a99 99 0 0 1 12.2 19.2c1.8 4.3-.7 7.9-4.2 9.6 3 7.5 4.2 15.2 1.6 22.6-.8 2.2-4 3-5.3.7-4.2-7.7-6.5-16.2-10.5-24l-2.3-4.2q-6.4-5.8-11.5-13.2c-12.2 14.4-23.8-16.5-26-25.9l-1-.9c2.4 22.3 15.7 42.7 15.9 65.1-.5 4.7-5.6 9-10.3 5.8-16.4-12.2-19.9-34.3-24.4-52.8q-1 .5-2.3.7c-.8 12.5 28.4 53 4.7 53.2-26.2-13.3-23.2-51.5-26.8-76.2-1.6 7.4-.2 19.5-5.5 24.8 22.8 55.4-15.6 37.7-25-3.7a20 20 0 0 1-4.3 4.5c-3.4 2.7-8 2.6-10.5-1.4-5.2-8-3.4-17.6-1.2-26.5-20.2-8.7-28.9-29-30.4-50.4l-1.7 2.2c-2.5 2.9-7.4 1.9-9-1.1-5.1-8.7-2.7-19.7 1.6-29a8 8 0 0 1-3.4-2.6c-7-11.3-9-24.2-8.3-37.2q-1.5 1.4-3.1 2.5c-3.4 2.4-7.8-.2-9-3.5-3.8-11 4.8-22 12-29.4q3.8-4 8.5-7.2l4.8-12q-3.6-7.2-4.3-15.4-2.9 5.1-8.3 8.6c-3.5 2-7.4-.7-7.6-4.3-.7-11 8-20.6 14.5-28.7l.7-.9c1.1-1.5 3-3.9 5-6.1l1-3c-5 2.8-12.8.8-12.4-6.2 1-22.7 25.1-33.7 32.1-53.7-35.4 31.4-31.6-9-6.7-24.7l6.1-4.7a5.6 5.6 0 0 1-1-8.6c7.2-8 18.3-9.6 28.6-10.4q5.6-.6 11-.1h1.3q3.7-4.3 7.7-7.6c-19.6-3.7-1-32.1 43.8-21.8q3.7-1.8 7.5-3.3-10-.4-20-2.3c-5.9-1.2-6.8-10-1.6-12.7 20.8-10.3 44.8-7.7 67-2.5q-.7-1.5-.8-3.4c-7.3-.7-8-12 .5-12.6a85 85 0 0 1 40.5 7.2q2.4-.3 4.9-.4c2.4-24.8 35.2-4.2 42.4 7.7a145 145 0 0 1 46-19.2" fill="black"/></g><g id="expression-lovingGrin2-97a04e6b"><path fill-rule="evenodd" clip-rule="evenodd" d="M59.4 184.2c16-12.4 100.6-16 109-8s28.2 31.3-9.6 46-86 13.9-99.4 0-16-25.6 0-38" fill="white"/><path fill-rule="evenodd" clip-rule="evenodd" d="M132 165.8c8.4-.3 17-1 25.4.3 14 2 28.3 12 28.3 27.6-.1 26-29.4 35.9-50.4 39.3l-2.3.3c-25.1 4-55.2 7.7-77.7-6.6-10.7-6.7-17.4-18-14.3-30.8a36 36 0 0 1 24.7-24.7c13.5-4.4 27.4-2.1 41-.3l3 .4 9.6-3.4a50 50 0 0 1 12.6-2m-3.2 33.4-13.1 1.7-14.9 1.9q1 10 .6 20.4 13.4-.4 26.5-2.8 1-10.5 1-21.2m-39 5q-18 2-36 3.5c2.8 5.2 9.7 8.5 15 10.4q9.2 3.1 18.8 4 1.5-8.8 2.2-18m87-10c-9 1.5-18.4 2.1-27.4 3.3l-10.6 1.3q1.7 9.6 2.5 19.4l1.6-.3a70 70 0 0 0 21.4-7.3l.6-.3c5.2-3.2 12.1-9.4 12-16.1m-86-10c-5.9.5-12.1.6-17.8 1.9-8.4 1.8-18.4 6.4-20 15.8a10 10 0 0 0 .2 4.3q18.5-3.5 37-6.5.5-7.8.6-15.5m32.1-3-8 .7-18 1.1q2 7 3.1 14.2l14.8-2.2 14-2v-3.6l-.1-7.2h-.6zm50 5.6c-5.7-5-16.2-4.7-22.9-4.5-5 .1-10 .7-15.2.7q1.5 4.4 2.6 9.2l10.8-1.6c8.2-1.2 16.4-2.8 24.6-3.8m-38-69.4c7.5 4.6 19 15.3 10.8 26.6-9.5 10-23.3-1.4-30-6.6-6.4-4-13.4 6.3-7.6 11 49 36.3 69-29.8 30.5-36.4-4.2-.8-5.8 4-3.8 5.4m73.9-25.6c-2.6 16.9-29.1 40.4-32.7 40.4s-34.5-30-34.5-43.3 13.3-31.2 34.5-8.7c12-15 35.3-5.3 32.7 11.6m-118-15c6.3 9 4 20.4-2.4 28.7-5.6 7.4-24.6 23.9-27.5 24.3-3.7.5-20.4-18.4-24.2-21.6-4-3.1-14.6-13.3-12-22.8 2.4-9 15.5-24.4 34.6-8.6 6-15.1 26-8.3 31.6 0m-62-29.4c9.7-11 30.5-22.6 42-7.7 2.8 3.8-.3 10-4.6 11-5.2 1.2-10.6.4-15.8 2a50 50 0 0 0-13.3 6.8q-7 4.8-12.9 10.7c-2.3 2.4-5.3 8-8.9 8.1s1.2-11 1.6-12q4.3-10.5 11.8-18.9m118.5-26.8c5.7-2.7 11.2-1.5 16.9 0l2.4.7a58 58 0 0 1 17.7 7.4l.4.3c6.6 4.7 16.5 14.7 11.8 23.5q-.6.8-1.6.4c-6.1-2.7-10.7-8-17.2-10.3l-1.2-.4a64 64 0 0 0-21-4.2c-4.8 1.5-11.2.3-12.5-5.6v-.3l-.1-.6c-.8-4 .3-9 4.4-11" fill="black"/></g><clipPath id="clip-97a04e6b"><rect width="704" height="704" rx="0" ry="0"/></clipPath></defs><g clip-path="url(#clip-97a04e6b)"><path fill-rule="evenodd" clip-rule="evenodd" d="M705.3 1074a2351 2351 0 0 1-15.6-101c-1-7.7-2.5-16.4 2.7-22 7.3-8 14-14.8 14.8-26.2.8-10.7-2.8-22.4-5-32.8a809 809 0 0 0-17.3-64.7q-10-32.5-21.3-64.6c-6.9-20-13.5-40.3-22.5-59.5-17-36.5-46-63.5-81.6-81.6-9-4.5-27-20.5-36.3-24-8.5-3.4-8.5 6.3-16.9 2.6-6.7-2.9-13-6.7-16.7-13.2-4-7-14.3-16.9-15.9-25-3.3-17.4.3-32.2-12-45.3a90 90 0 0 0-41.1-23.8c-33.7-9.3-78.5-2.8-98.8 28.5-9.7 14.9-13 33-26.2 45.1-11.4 10.7-8.8 18-23.6 23.4-.9.3-23.6-4.5-24.4-4.2-16.2-3.5-31.7 6.2-46.5 11.8a325 325 0 0 0-63 32.3 399 399 0 0 0-102.3 98.5 483 483 0 0 0-76.4 161c-1.7 6.4-3.5 13-1.5 19.4a25 25 0 0 0 9.8 12.4c6 4.3 18 7 17.7 15.7-.1 6.6-2.4 13.5-3.5 20q-1.9 11.6-3.4 23.2a1232 1232 0 0 0-10.3 106.6 920 920 0 0 0-.5 106q.2 3.5 2 6.2c-1 .4-1.2 2.4.1 2.7l2.7.5a12 12 0 0 0 7 2.4l5.5.2c19.3 4 38.6 7.9 58.1 10.8q35.7 5.2 71.5 8.7c49.2 4.8 98 3.2 147.1.6a1877 1877 0 0 1 147.4-2c49.2 1.4 98.4 3.5 147.6 4.4q82.5 1.6 164.8-5c7.5-.5 12.2-6.5 10.7-14-8.9-44.7-19-89.1-27-134" fill="#edb98a"/><path fill-rule="evenodd" clip-rule="evenodd" d="m201 597.5 1.2-.4c14.5-5.7 29.6-14.8 45.4-11.4.5-.2 10.8 1.9 17.9 3.2l-6.7 7L247 598q61 100.7 144.3 100.7T517.7 598l4-1q.7 0 1.5.4c9.3 3.6 27.4 19.6 36.3 24.1 35.6 18 64.5 45 81.6 81.6 8.7 18.6 15.2 38 21.8 57.5l.7 2q11.3 32.1 21.3 64.6 9.6 30.6 16.6 61.8l.7 2.9c2.2 10.4 5.8 22 5 32.8a29 29 0 0 1-3 10.7l-80.4 29 38.4 261.3q-52.7 2.3-105.5 1.3c-49.2-.9-98.4-3-147.6-4.3q-71.5-1.9-143 1.7l-12 .6a946 946 0 0 1-139.5-1l-3.1-.3v-38.3l16.3-212.9-83-15.6-81.3-39.5a22 22 0 0 1-5.6-8.8c-1.9-6-.5-12 1-18l.5-1.3a493 493 0 0 1 76.4-161A399 399 0 0 1 138 629.7q29.8-19.6 63-32.3" fill="#9ddadb"/><path fill-rule="evenodd" clip-rule="evenodd" d="M232.2 584.6c5.1-.3 10.3.6 15.4 1 .4.1.6.8 0 .9q-13.5 3-26.9 7.1l-3.8 1.2c-10 3-19.8 6-29.6 10a264 264 0 0 0-54.8 30.8C67.2 682.8 20 754.3-9.9 828.3a526 526 0 0 0-24.3 77c-.4 1.6-2 5.4-1 7 .7 1.3 3.6 2.1 5 2.9l4.5 2.3 25.2 12.9 2.3 1.1c38 18.6 78.4 34.4 121 35.5l.4-3.7a342 342 0 0 1 9.9-60c.3-1 1.6-.6 1.7.3 3 23.1 2 46.4 1 69.7-1.8 41-4.3 82.2-6.5 123.3l-3.9 61.7c-1.3 20.5-1.7 41.6-4.7 62-.6 4.6-6 7-10 6.6a9 9 0 0 1-8-9c0-11.9 1.5-24 2.4-35.8l2.5-33.8c3.1-41.1 6.8-82.2 10.2-123.3l3.8-43.7C76.4 979.8 34.2 963-6.1 943.5c-.6 13.2-2 26.5-3.4 39.6q-5.8 55.2-9.6 110.5a2254 2254 0 0 0-4.2 92.7l-.2 7c0 4.4-.5 8.5-4.3 11.7a9 9 0 0 1-12.6 0c-5-4.6-4.2-10.9-4-17.1a1676 1676 0 0 1 1.8-47.2 1321 1321 0 0 1 10.5-109.5l2-14a461 461 0 0 1 15.5-77.9q-4.6-2.2-9.3-4.7-8.4-4-16.6-8.4c-4.2-2.5-7.9-5.8-9-10.8-1.4-5.5.6-11.5 2-16.9v-.4a502 502 0 0 1 26.6-80 523 523 0 0 1 67.8-117 354 354 0 0 1 88.7-83.3 239 239 0 0 1 53.8-25.7 143 143 0 0 1 42.8-7.5m90.1-66c6-6.5 18.1.2 15.2 8.8a108 108 0 0 1-34.7 52A79 79 0 0 1 247 598l1.7 2.4a321 321 0 0 0 46.1 52.6c36 31.2 84.8 48 132 36 37.1-9.4 69.8-38.8 79.4-76.2q-2 1-4.8.5c-7.7-1.7-15.3-9.8-20.3-15.6q-8-9.3-12.6-20.7c-5.6-14-7.4-32.1.3-45.7 1-1.7 3-.7 3.3 1l.3 2.5c1.5 12.7 3.3 25 9.3 36.6a76 76 0 0 0 18.2 23.1c2.6 2 5.8 3.6 8.1 6l.5.4c.6-5 4.1-7.3 7.6-7.2a29 29 0 0 1 8.8 2.3l.1.1a341 341 0 0 1 65.1 42 259 259 0 0 1 88.4 129c7.5 25.3 11.8 51.4 16.3 77.4l2.8 16c4.2 23.9 8.9 48.4 18.4 70.7 2.5 5.7.6 11.1-5.5 13.4L688 953c3.7 16 6 32.5 8.7 48.5 6 34.1 13.2 68 19.4 102l9.3 52.3 4.7 25.2 2.4 13.6.1.7c.5 2.4 1 4.9.4 7.3-.8 2.7-2.9 4.6-4.8 6.6-1.6 1.6-3.8 1.6-5.7.7l-.7-.3c-3.4-1.6-6-3.2-7.3-7q-.9-3.8-1.5-7.7l-2.8-14.5-5-29.1-1.6-9.1a1165 1165 0 0 1-12.8-94.5q-1.6-21-3.5-42.2l-.9-10.5c-1.1-13.3-2.5-27-2.7-40.5l-4.5 1.6L657 964c-5.5 2-12.5 6-18.4 5.2q-4.2-.4-6.8-2.9 3 43.1 8.5 86a1966 1966 0 0 0 22 135l1.9 9.6c.5 3.7-.5 5.9-2.5 9-1.7 2.4-5 3.7-7.8 2-3.6-2.3-5.5-4.3-6.5-8.4q-1.4-5.6-2.3-11.4a1654 1654 0 0 1-11.4-65.2Q622 1044.7 618.5 966a1388 1388 0 0 1-1.4-77.8q0-20 1.4-39.9c1-13.4 3-26.5 4.8-39.8 0-.5.7-.5.7 0 .8 14.9 2.1 29.8 2.8 44.7l1.4 42.8q.9 28.1 2.7 56.2a10 10 0 0 1 8.5-3.1c4.7-1 9.7-3.4 14.1-5l16.8-5.5 26.4-8.7a679 679 0 0 1-18-80.8l-2-12.3c-4-24.2-8.5-48.5-15.8-72a230 230 0 0 0-34.8-68.2 370 370 0 0 0-52.7-55.3C557 627 539.7 614 523 600q.2 1.4 0 3a117 117 0 0 1-35.8 67.9c-37.7 36-93.6 43.4-142 26.5-46.7-16.3-88-55-102.6-102.8-.3-.8.8-1 1.3-.5l2.4 3.3q0-.7.7-1a129 129 0 0 0 46.6-29.2 100 100 0 0 0 21.3-33.3l.4-1c1.7-5 3.2-10.2 7-14.2" fill="black"/><use transform="matrix(.99789 0 0 1 6.3 -58)" href="#head-dreads1-97a04e6b"/><use transform="translate(351 275)" href="#expression-lovingGrin2-97a04e6b"/></g></svg>