<svg xmlns="http://www.w3.org/2000/svg" viewBox="0 0 704 704" fill="none" shape-rendering="auto" aria-hidden="true" width="512" height="512"><metadata xmlns:rdf="http://www.w3.org/1999/02/22-rdf-syntax-ns#" xmlns:xsi="http://www.w3.org/2001/XMLSchema-instance" xmlns:dc="http://purl.org/dc/elements/1.1/" xmlns:dcterms="http://purl.org/dc/terms/"><rdf:RDF><rdf:Description><dc:title>Open Peeps</dc:title><dc:creator>Pablo Stanley</dc:creator><dc:source xsi:type="dcterms:URI">https://www.openpeeps.com/</dc:source><dcterms:license xsi:type="dcterms:URI">https://creativecommons.org/publicdomain/zero/1.0/</dcterms:license><dc:rights>Remix of “Open Peeps” (https://www.openpeeps.com/) by “Pablo Stanley”, licensed under “CC0 1.0” (https://creativecommons.org/publicdomain/zero/1.0/)</dc:rights></rdf:Description></rdf:RDF></metadata><defs><g id="head-shaved2-93a0481f"><path fill-rule="evenodd" clip-rule="evenodd" d="M538.4 271.8c-7-25.5-6-28.2-16.6-52.6-35-70.7-268.7-47-292.6 23.6-13 38.3-9.9 92.2-13.3 125.5l-3 52.8-3.3 53.8c-4.3 36.5 14 40.2 45.4 39a129 129 0 0 0 38.5 50.5c-4 11 10.5 16.6 18.4 21 42.7 23.8 95.2 38.4 142.5 25 14-4 71.4-17.6 89-59.9 8.7-20.8 26.3-128.2 3-225z" fill="#d08b5b"/><path fill-rule="evenodd" clip-rule="evenodd" d="M389 105.5c6.6-1.2 14-.7 17.8 5.8q1.2 2.1 1.6 4.2c18-4 36.8-4.5 55.2-1.9 5.5.8 7.5 8.2 5 12.3l-.7 1.3q8.6.8 17.3 3c4 1.1 7.8 6.4 6 10.7l-.5 1.1q13.7 2.3 25.1 10.8a11 11 0 0 1 2.4 2.5 84 84 0 0 1 49 9.7c4.3 2.3 6.3 8.8 3.5 12.9l-2.9 3.6a31 31 0 0 1 16.2 12.7 30 30 0 0 1 3.3 23.3 21 21 0 0 1 5.5 19.7c-1.5 6.8-5.7 11-11 13.6 1 3.3.2 7-2.2 9.6q-5.8 6-13.2 9 0 1.8-1 3.7a30 30 0 0 1-23.6 15 893 893 0 0 1 19 115.4l.2 3c3.5 42.1 4.4 86.2-4.2 127.7-5.4 26.4-22 48.6-44 63.7a148 148 0 0 1-76.7 24.2q-20.8.9-41-3.4-9.7-2-18.7-5.6a70 70 0 0 1-17.5-10.8c-2.8-2.3-1.2-7.6 2.2-8.3l7.3-1.4c2.2-.4 4.6 1.8 4.1 3.8l4.7 1.3 4.7 1.2 2.3.6q10 2.9 20.2 4.5c13.9 2.3 28.3 2.3 42.2.6a126 126 0 0 0 65.5-26.7q13.5-11.2 21.7-26.8c6.9-13.2 9-27.8 10.6-42.4a601 601 0 0 0-.4-126.5q-3-31.4-7.3-62.7-2.2-16-4.2-32.2a23 23 0 0 1-8-3.8 8 8 0 0 1-3-4.2q-3.8-.6-6.5-4l-.2-.3a39 39 0 0 0-19.2-12.8l-13-4.5c-4.6-1.5-9.4-3.7-14.1-4.3-5.4-.6-10.9 1-16.4.4a21 21 0 0 1-16-10c-16.7 3.5-34.2-1-51.5 0-11.4.8-21.4 7.8-32.9 7.7-3.1 0-6.2-1.2-8.4-3.1-10.8 2-21.9 6-32 9.4s-19.9 8-29.8 11.7c-1.3 4.2-5.2 6-9.3 5.3-13.5-2.4-25-11-38-14-3.7 13.1-7.6 26.1-10.2 39.6a395 395 0 0 0-5.9 41 472 472 0 0 0-1.4 63c.1 6 1.3 13.5-.9 19.2l-.2.4c-.2.9-1.4 1.4-2 .6-4-4.7-5-12.1-6.2-18a295 295 0 0 1-3.9-65.1c1.5-28.7 6-59 15.9-86-3 .2-4.4-4.3-4.6-6.8-.4-5 .4-10.4 1.3-15.4l.9-5.3q1-7.4 3.4-14.5 6.2-17.4 17.1-32.3c14.8-20 35.3-35.3 58.6-44q2.1-.8 4-.2a316 316 0 0 1 89-31.5M213 428c9.6-6 29.5-7.6 34.8 5.3.3.5-.4 1-.8.8l-1.3-.3c-5-1.2-9.5-2-14.6.1a28 28 0 0 0-12 8.6c-7.1 9.3-7.9 21.9-7.2 33.1v.6c.6 9.8 3.2 21.8 12.8 26.7 4.9 2.5 10.2 2.3 15.5 2.3q9.2-.2 18 2.5c3.2 1 4.8 5.3 2 7.8q-1.2 1.2-2.7 2.3 4.4 4.6 8.6 9.6 7 8.5 15 16.3 7.5 7.6 16.2 14c6.1 4.3 13.4 7.3 18.7 12.7 3.5 3.4 2.9 8.2 0 11.7-7 8.7-19-.4-25.9-5.5l-.8-.7a118 118 0 0 1-19.4-17.8 97 97 0 0 1-14.5-22.5 55 55 0 0 1-4.3-14.1 41 41 0 0 1-38.4-3.9c-14.5-9.8-18.5-28-18.6-44.5v-1c.1-16 4.3-35 18.9-44m27.4 23.3h.4c5.4.1 10.2 2 14.7 4.7l.5.3c4.4 2.6 10.7 4.7 13 9.7 1.5 3 1.4 6.3-1 8.8-4.5 4.4-11.1 3.7-16 .2-3.5-2.6-5.8-6.5-9.3-9.1-6.6-5-17-4.7-23.8-.4q-.9.1-.7-.7a24 24 0 0 1 22.2-13.5" fill="black"/></g><g id="expression-concernedFear-93a0481f"><path fill-rule="evenodd" clip-rule="evenodd" d="M130.7 181c11.9 0 16.9 1.9 24.6 6.4s16 10.4 18 19.2c1.8 8.1-1.8 16-9.8 19.2-4.4 1.7-55.5 5.8-63.6 6.3-8 .6-15.6 0-20.8-5.4-13.3-13.8 5.2-31.7 17-38.3a70 70 0 0 1 34.6-7.5m-2.8 9.2c-8.9 0-23.5 6.6-23.5 9.8 0 3.1 42.6 0 43.5-2.7 1-2.8-11-7-20-7m7-72.8c7.5 4.6 19 15.3 10.8 26.6-9.5 10-23.3-1.4-30-6.6-6.4-4-13.4 6.3-7.6 11 49 36.3 69-29.8 30.5-36.4-4.2-.8-5.8 4-3.8 5.4M49.4 75.8c13-9.5 32.1-2.2 35.3 12.6q3.3 1.7 3.7 5.7v.7c.4 3.2-2.5 6.3-5.4 7a11 11 0 0 1-8.7-.8c-2.8-1.3-3.8-5-3.3-7.8v-.3c1-3.5-2-6.9-5-8.3-3.4-1.5-7.3-.5-10.2 1.5-3.3 2.3-6 6.3-7 10.2v.4c-.8 3.4-1.3 9.7 2 11.7.5.3.1 1.1-.5 1-7.1-1.2-11.4-5.5-11.4-13.2 0-8.1 4.3-15.7 10.7-20.4M168 73c12.8-4.6 28.9 7.6 24 21.8-3.3 9.3-15.9 5.5-14.7-3.8.8-4.9-2.9-7.2-7.4-5.6-6.6 2.4-10.2 12.8-7.1 19 .4.7-.7 1.3-1.1.6l-.5-.7c-3.5-5.5-6.6-9.6-5.5-16.7A19 19 0 0 1 168 73m-26-33.7c-.1-.6.6-1 1.1-.9 4.6 1.2 8.7 4.5 12.9 6.6q6.8 3.6 14 5.7 7.3 2 14.7 2c5.4 0 10.7-2.1 16-2 8 .3 12.1 11.9 4.3 15.9-11.4 5.8-28.4 1.6-39.5-3.3-9-3.8-23-13-23.6-24m-58 2.7c4-5.4 12.5-5.7 16.2.6 3.8 6.5-.8 13-7.2 14.4-11.9 5.3-24 9.4-37 11l-1.7.3c-11.3 1.4-25.5 2-35.7-3-1-.6-.7-2.1.3-2.4 5.8-1.7 12.2-1.6 18-2.7a149 149 0 0 0 16.7-3.8Q70 51.6 84 42" fill="black"/><path clip-rule="evenodd" d="M97.2 202.7s10.2-16.5 26.9-16.5 36 8.7 34.7 12.8c-.7 2.2-16.3 8.5-42.2 8.7-6.4 0-19.4-5-19.4-5Z" stroke="#22252B" stroke-width="1.5"/></g><g id="facialHair-full4-93a0481f"><path fill-rule="evenodd" clip-rule="evenodd" d="M209.4 50.8c7 0 10 16.4 10 16.4 18 31 35.3 62 66.1 83.2 34.3 13.8 68 37.2 107 39.7 17.7-1.8 22.8-18 44.6-12.3 13.9 3.4 29.4 10 42.3.5 10.8-7.1 18.4-17.9 27.8-26.5a59 59 0 0 1 2.6 20.5l-.7 3.2c-5.8 25.5-11.7 55.6-37.6 69.7-7.9 4.2-19 8.2-27.7 5.8-46.3 7.4-96.5 2-137-21-14.3-3.8-24.9-15.2-36.1-23.8-27.5-24-59-54.6-62-91.1-3-36.6-1.6-64.3.7-64.3M349.3 123c15.7-25.3 47-21.2 71.4-9.7 13.4-9.1 31.2-7.4 45.7-1a116 116 0 0 1 33 31c2.3 3 3.2 7.2 0 8.7-15 12.4-46.4 5.1-60.6-4.1-10.3-.8-8-15.4-20-5.2a64 64 0 0 1-28.5 14.8 75 75 0 0 1-67.4-6c-2.7-.3-13.7-6.6-9.8-8.8 4.3 1.2 28-12.4 36.2-19.7" fill="#724133"/><path fill-rule="evenodd" clip-rule="evenodd" d="M205.7 78c.2-1.4 2.3-1.4 2.3 0 1 29.2 10.5 61.3 26.6 86.4 38.8 63.2 117.8 94.9 194 84 55.5-.8 61.5-32.3 75.3-76.3 7.2-5.8 10.7-3.7 8.5 3.2-17.2 53-23 83.5-90.8 83-108.9 15.5-227-73.5-215.9-180.4m153.8 23.5c17.8-7.9 39-6.8 53.8 4.2l1 .2q3.7 1 8 .8C461.6 86 487.8 122 508 149c1.5 0 2.8 1.3 2.4 2.7l.6.7a36 36 0 0 1-13.4 17.4c-20.5 27.4-35.9 18.8-62.6 7.6-27.5-4.1-28.6 28.3-67 13.4l-1.5-.4a96 96 0 0 1-36.3-19.7c-.3-.3 0-.9.5-.7 21.3 6.4 48.7 27.4 70.3 13.3 5.5-3.7 10.4-8.2 16.6-11 35-11.7 47.2 34.6 77.8-13.4-24.9 4.3-53 0-71.6-17-27.8 33.6-82 28.2-116.5 7.4-4.7.6-11.7-4-7.4-8.5 4.8-3.7 12.3-2.2 18.1-4.3 18.7-6.6 23-27.7 41.6-35m62.3 14c-19.7-14-49.1-16.3-68 .2-11.7 11.8-19.4 28.8-38.3 32 32.5 18.7 79.3 19 104.4-10.8.8-2.6 4.9-1.5 5.4.7a87 87 0 0 0 74 12.9l-3.4-4.6c-17.5-24-40.1-52-73.6-32.2-.8.4-1-.6-1.2-1.1l-.4.3c.3.6 2.8 2.7 1 2.7m80.6 41.8.4.5 1.7-1h-.1zM208.3 41.6v-1c0-9.6 2.6 2.6 3.7 5 5 9 9.2 18 14.5 26.7 21.3 38.3 24.6 55 67.5 76.8 3.2 2.7-.1 7.6-4 6.6-6-1.5-11.6-5.3-16.8-8.4-29.2-15-40-45.7-53.2-72.5-3.8-10.6-12.7-22-11.7-33.2" fill="black"/></g><g id="accessories-glasses4-93a0481f"><path fill-rule="evenodd" clip-rule="evenodd" d="M383.3 154c-9.2 11.6-45.1 24.3-64.3 10.5s-26.7-23.5-29.2-40.8c-.3-1.8-3.6-3-5-1.7a97 97 0 0 0-18 26c-5.8 10.5-11.4 21.1-21.7 28.3-18.4 9.8-51.6 11.2-61.4 6.9a64 64 0 0 1-37-50.6s-3.4-10.8-6.5-13.1c-2.8-2.2-18.6-4.1-20.3-4.4-31-5.8-70.4-9.5-98.1 10.8-3.8 2.3-16.6 10.8-16.8 8.7-.1-8.2 9.2-26.8 30.3-35.6 26.1-11 65-11.5 87.5-9.1 1.1 0 5-.9 5.2-1 34.1-14.7 73.4-10.8 109.8-4.6 5.3 1 52 12.6 70.7 5.6 30.8-12.6 63.6-21.7 96.8-18.1.3 0 4.5 25.5 1.2 27.2a40 40 0 0 0-8.6 6.9 10 10 0 0 0-2.2 6.9 61 61 0 0 1-12.4 41.3m-126.6-15.3c4-5.7 5.2-18.4 3.5-27.6a19 19 0 0 0-4.4-10.3 6 6 0 0 0-4.6-1.7q-1.3 0-3 .9a92 92 0 0 0-47.6-9.7c-13 0-22.2 3-28.5 7.9-7.6 5.7-11 14-11.2 22.9a51 51 0 0 0 11.3 31.4 43 43 0 0 0 26.4 16.8c11.5 2.3 23.3 0 33.5-5.3a58 58 0 0 0 24.6-25.3m113.8 6c6.6-7.8 11-18 11.6-28 .6-9-1.8-18-8.6-25.6-6-5.2-16.9-5.3-28.3-2.4a87 87 0 0 0-35 17.7 7 7 0 0 0-3.2 4v1c-1.6 7-.7 14.2 2 20.8a48 48 0 0 0 13.9 18.8c8 6.6 16.4 8.6 24.2 7.5a38 38 0 0 0 23.4-13.8" fill="white"/><path fill-rule="evenodd" clip-rule="evenodd" d="M307.4 87c31.2-12.7 64.5-21.8 98.2-18.2 2.8-1 6.3-.2 7.5 3.8 12 36.6-14.8 26.4-14.4 40 2.8 76.8-100.3 89.9-111.9 11.6l-.2.1c-16.7 15.6-20.2 40.9-39.8 54.4a65 65 0 0 1-103-45.5l-.2-.7c-2.4-10.6-5.3-13.2-17.3-13.1l-1.9-.4c-31-6.1-72.3-11.6-101 9.4-6.2 3.6-6.4 13-11.7 17-5.8 1-9.3-5.8-9.7-10.6C1 87 86.6 83.6 124.8 87.7c.8-.8 2.3-.7 2.9.2 34.6-15 73.6-12.9 110.6-6.6 23 4.5 45.7 14.6 69.1 5.8m95.1-9.4c-18.7-1-36 .1-54.3 4.6-9.7 2.3-17.1 5.3-26.4 8.8-57.8 25.6-64.4-19.9-193.9-2 1.7 7.1 2 14.2 2 21 26.5-1 20.3 24.2 30.2 41.9l.3.5a54.4 54.4 0 0 0 76 20.8c23-13.4 25.1-47.2 48-60.7 19.7-.8 11.8 26 22.6 37a45 45 0 0 0 66.4 4 49 49 0 0 0 13.9-33.3c.5-8-.9-16.1 5.1-21.7 4.3-4.3 11.8-2.9 12.6-9.4.6-3.8-1-8-2.5-11.5M199.3 88.1a100 100 0 0 1 54.2 11.4c11.8-9.4 14.7 28 6.8 38.7-11.3 23.1-37.6 38.3-62.9 33.3-39.4-5.7-67-83.5 1.9-83.4m53 13.9-1-.1c-17-2.7-63.7-14.8-81.7 4.3-17.4 31.7 26.8 84.9 72.9 42.5 12.8-13 17.8-28.8 9.8-46.7m54.3 4c8.8-10.4 54-31.7 69.7-18 28.8 32.1-16.8 97.3-55 65.5-12.7-10.6-21-27.5-17.4-43.8v-.7q0-.2.3-.5.8-1.8 2.4-2.5m69.3 19.6C385.6 73 345.1 93 312 107c1.7 1.6 1.7 3.9 1.2 5.7-3.5 39 44 61 62.8 12.9M124.2 90.2C110.2 95 18.5 86.5 10 129.5c9-14.5 27.4-20.2 44.1-23.3 22.7-4.3 45.2-1.8 67.5 2.6l.5-4.6q.6-7.3 2-14" fill="black"/></g><clipPath id="clip-93a0481f"><rect width="704" height="704" rx="0" ry="0"/></clipPath></defs><g clip-path="url(#clip-93a0481f)"><path fill-rule="evenodd" clip-rule="evenodd" d="M705.3 1074a2351 2351 0 0 1-15.6-101c-1-7.7-2.5-16.4 2.7-22 7.3-8 14-14.8 14.8-26.2.8-10.7-2.8-22.4-5-32.8a809 809 0 0 0-17.3-64.7q-10-32.5-21.3-64.6c-6.9-20-13.5-40.3-22.5-59.5-17-36.5-46-63.5-81.6-81.6-9-4.5-27-20.5-36.3-24-8.5-3.4-8.5 6.3-16.9 2.6-6.7-2.9-13-6.7-16.7-13.2-4-7-14.3-16.9-15.9-25-3.3-17.4.3-32.2-12-45.3a90 90 0 0 0-41.1-23.8c-33.7-9.3-78.5-2.8-98.8 28.5-9.7 14.9-13 33-26.2 45.1-11.4 10.7-8.8 18-23.6 23.4-.9.3-23.6-4.5-24.4-4.2-16.2-3.5-31.7 6.2-46.5 11.8a325 325 0 0 0-63 32.3 399 399 0 0 0-102.3 98.5 483 483 0 0 0-76.4 161c-1.7 6.4-3.5 13-1.5 19.4a25 25 0 0 0 9.8 12.4c6 4.3 18 7 17.7 15.7-.1 6.6-2.4 13.5-3.5 20q-1.9 11.6-3.4 23.2a1232 1232 0 0 0-10.3 106.6 920 920 0 0 0-.5 106q.2 3.5 2 6.2c-1 .4-1.2 2.4.1 2.7l2.7.5a12 12 0 0 0 7 2.4l5.5.2c19.3 4 38.6 7.9 58.1 10.8q35.7 5.2 71.5 8.7c49.2 4.8 98 3.2 147.1.6a1877 1877 0 0 1 147.4-2c49.2 1.4 98.4 3.5 147.6 4.4q82.5 1.6 164.8-5c7.5-.5 12.2-6.5 10.7-14-8.9-44.7-19-89.1-27-134" fill="#d08b5b"/><path fill-rule="evenodd" clip-rule="evenodd" d="m201 597.5 1.2-.4c14.5-5.7 29.6-14.8 45.4-11.4.5-.2 10.8 1.9 17.9 3.2l-6.7 7L247 598q61 100.7 144.3 100.7T517.7 598l4-1q.7 0 1.5.4c9.3 3.6 27.4 19.6 36.3 24.1 35.6 18 64.5 45 81.6 81.6 8.7 18.6 15.2 38 21.8 57.5l.7 2q11.3 32.1 21.3 64.6 9.6 30.6 16.6 61.8l.7 2.9c2.2 10.4 5.8 22 5 32.8a29 29 0 0 1-3 10.7l-80.4 29 38.4 261.3q-52.7 2.3-105.5 1.3c-49.2-.9-98.4-3-147.6-4.3q-71.5-1.9-143 1.7l-12 .6a946 946 0 0 1-139.5-1l-3.1-.3v-38.3l16.3-212.9-83-15.6-81.3-39.5a22 22 0 0 1-5.6-8.8c-1.9-6-.5-12 1-18l.5-1.3a493 493 0 0 1 76.4-161A399 399 0 0 1 138 629.7q29.8-19.6 63-32.3" fill="#9ddadb"/><path fill-rule="evenodd" clip-rule="evenodd" d="M232.2 584.6c5.1-.3 10.3.6 15.4 1 .4.1.6.8 0 .9q-13.5 3-26.9 7.1l-3.8 1.2c-10 3-19.8 6-29.6 10a264 264 0 0 0-54.8 30.8C67.2 682.8 20 754.3-9.9 828.3a526 526 0 0 0-24.3 77c-.4 1.6-2 5.4-1 7 .7 1.3 3.6 2.1 5 2.9l4.5 2.3 25.2 12.9 2.3 1.1c38 18.6 78.4 34.4 121 35.5l.4-3.7a342 342 0 0 1 9.9-60c.3-1 1.6-.6 1.7.3 3 23.1 2 46.4 1 69.7-1.8 41-4.3 82.2-6.5 123.3l-3.9 61.7c-1.3 20.5-1.7 41.6-4.7 62-.6 4.6-6 7-10 6.6a9 9 0 0 1-8-9c0-11.9 1.5-24 2.4-35.8l2.5-33.8c3.1-41.1 6.8-82.2 10.2-123.3l3.8-43.7C76.4 979.8 34.2 963-6.1 943.5c-.6 13.2-2 26.5-3.4 39.6q-5.8 55.2-9.6 110.5a2254 2254 0 0 0-4.2 92.7l-.2 7c0 4.4-.5 8.5-4.3 11.7a9 9 0 0 1-12.6 0c-5-4.6-4.2-10.9-4-17.1a1676 1676 0 0 1 1.8-47.2 1321 1321 0 0 1 10.5-109.5l2-14a461 461 0 0 1 15.5-77.9q-4.6-2.2-9.3-4.7-8.4-4-16.6-8.4c-4.2-2.5-7.9-5.8-9-10.8-1.4-5.5.6-11.5 2-16.9v-.4a502 502 0 0 1 26.6-80 523 523 0 0 1 67.8-117 354 354 0 0 1 88.7-83.3 239 239 0 0 1 53.8-25.7 143 143 0 0 1 42.8-7.5m90.1-66c6-6.5 18.1.2 15.2 8.8a108 108 0 0 1-34.7 52A79 79 0 0 1 247 598l1.7 2.4a321 321 0 0 0 46.1 52.6c36 31.2 84.8 48 132 36 37.1-9.4 69.8-38.8 79.4-76.2q-2 1-4.8.5c-7.7-1.7-15.3-9.8-20.3-15.6q-8-9.3-12.6-20.7c-5.6-14-7.4-32.1.3-45.7 1-1.7 3-.7 3.3 1l.3 2.5c1.5 12.7 3.3 25 9.3 36.6a76 76 0 0 0 18.2 23.1c2.6 2 5.8 3.6 8.1 6l.5.4c.6-5 4.1-7.3 7.6-7.2a29 29 0 0 1 8.8 2.3l.1.1a341 341 0 0 1 65.1 42 259 259 0 0 1 88.4 129c7.5 25.3 11.8 51.4 16.3 77.4l2.8 16c4.2 23.9 8.9 48.4 18.4 70.7 2.5 5.7.6 11.1-5.5 13.4L688 953c3.7 16 6 32.5 8.7 48.5 6 34.1 13.2 68 19.4 102l9.3 52.3 4.7 25.2 2.4 13.6.1.7c.5 2.4 1 4.9.4 7.3-.8 2.7-2.9 4.6-4.8 6.6-1.6 1.6-3.8 1.6-5.7.7l-.7-.3c-3.4-1.6-6-3.2-7.3-7q-.9-3.8-1.5-7.7l-2.8-14.5-5-29.1-1.6-9.1a1165 1165 0 0 1-12.8-94.5q-1.6-21-3.5-42.2l-.9-10.5c-1.1-13.3-2.5-27-2.7-40.5l-4.5 1.6L657 964c-5.5 2-12.5 6-18.4 5.2q-4.2-.4-6.8-2.9 3 43.1 8.5 86a1966 1966 0 0 0 22 135l1.9 9.6c.5 3.7-.5 5.9-2.5 9-1.7 2.4-5 3.7-7.8 2-3.6-2.3-5.5-4.3-6.5-8.4q-1.4-5.6-2.3-11.4a1654 1654 0 0 1-11.4-65.2Q622 1044.7 618.5 966a1388 1388 0 0 1-1.4-77.8q0-20 1.4-39.9c1-13.4 3-26.5 4.8-39.8 0-.5.7-.5.7 0 .8 14.9 2.1 29.8 2.8 44.7l1.4 42.8q.9 28.1 2.7 56.2a10 10 0 0 1 8.5-3.1c4.7-1 9.7-3.4 14.1-5l16.8-5.5 26.4-8.7a679 679 0 0 1-18-80.8l-2-12.3c-4-24.2-8.5-48.5-15.8-72a230 230 0 0 0-34.8-68.2 370 370 0 0 0-52.7-55.3C557 627 539.7 614 523 600q.2 1.4 0 3a117 117 0 0 1-35.8 67.9c-37.7 36-93.6 43.4-142 26.5-46.7-16.3-88-55-102.6-102.8-.3-.8.8-1 1.3-.5l2.4 3.3q0-.7.7-1a129 129 0 0 0 46.6-29.2 100 100 0 0 0 21.3-33.3l.4-1c1.7-5 3.2-10.2 7-14.2" fill="black"/><use transform="matrix(.99789 0 0 1 6.3 -58)" href="#head-shaved2-93a0481f"/><use transform="translate(351 275)" href="#expression-concernedFear-93a0481f"/><use transform="translate(58 333)" href="#facialHair-full4-93a0481f"/><use transform="translate(190 243)" href="#accessories-glasses4-93a0481f"/></g></svg>