<svg xmlns="http://www.w3.org/2000/svg" viewBox="0 0 704 704" fill="none" shape-rendering="auto" aria-hidden="true" width="512" height="512"><metadata xmlns:rdf="http://www.w3.org/1999/02/22-rdf-syntax-ns#" xmlns:xsi="http://www.w3.org/2001/XMLSchema-instance" xmlns:dc="http://purl.org/dc/elements/1.1/" xmlns:dcterms="http://purl.org/dc/terms/"><rdf:RDF><rdf:Description><dc:title>Open Peeps</dc:title><dc:creator>Pablo Stanley</dc:creator><dc:source xsi:type="dcterms:URI">https://www.openpeeps.com/</dc:source><dcterms:license xsi:type="dcterms:URI">https://creativecommons.org/publicdomain/zero/1.0/</dcterms:license><dc:rights>Remix of “Open Peeps” (https://www.openpeeps.com/) by “Pablo Stanley”, licensed under “CC0 1.0” (https://creativecommons.org/publicdomain/zero/1.0/)</dc:rights></rdf:Description></rdf:RDF></metadata><defs><g id="head-twists-a89e2a97"><path fill-rule="evenodd" clip-rule="evenodd" d="M218 222.4a35 35 0 0 1 19-11 139 139 0 0 0-19 11m-10.2 48q-1.5-6.4-1.7-12.8a9 9 0 0 0 5 3.5q-2 4.5-3.3 9.3m347 66.5c-6-25-33.9-72.9-40.5-82-7.1-23 32-41.2 10.7-59.1-9.6-8-22.4-11-34.3-13.8a377 377 0 0 0-248 26.7 36 36 0 0 0-32.3 10.7c-39.8 40 14.4 112.3 26.3 157.4 20.4 50.3-21.6 58.8-17 101.4 3.4 22 25.7 27.8 44.5 31 3 .8 7 1 8 4a83 83 0 0 0 27.5 48.4c-1.2 3.7-.3 8 4 11.3a213 213 0 0 0 137.4 41 132 132 0 0 0 95.6-45C577 514.5 572.1 443 564 378.3c-5.7-45 1.5 2.6-9-41.5" fill="#edb98a"/><path fill-rule="evenodd" clip-rule="evenodd" d="M375.3 129.5a12 12 0 0 1 13-8.4c5.2.6 10.8 5.8 10.2 11.6l-.5 3.1v.4q-.6 2.7-1.8 5l-3 9q2.1-.1 4.3.2L402 139c1.6-4 2.8-9.4 6-12.5 4-4.1 11-5 16-2 5.3 3 7.2 8.5 6 14.3-.6 3-2.6 5-5 6.3l-.3.2-1.9 4.4a16 16 0 0 1 4.9-1.2 215 215 0 0 1 8.7-14.3 12 12 0 0 1 16.2-4.2c5.2 3 8 11 4.3 16.2l-8.1 12 1.3.4.6-.8c2.9-3.6 6.2-6.2 9.7-9.2 3.2-2.8 4.6-7.2 8.9-9.3 5.3-2.6 11.7-1.3 14.8 4 6.8 11.2-4.6 19.5-11.8 26.4a179 179 0 0 1 31.2-15.6 14 14 0 0 1 15.3 2.5 8 8 0 0 1 2.2 8.4c-1.9 5-4.9 8-10.2 9.5l-11.1 2.8a124 124 0 0 0-18.1 6.6l1.2.9a165 165 0 0 1 35.7-7.3l2.5-.3c9.1-.8 20-2.4 25.6 6.3 1.8 2.8 2 7.5 0 10.4-4 5.4-7.8 6.5-14.2 6.6a401 401 0 0 1 31.9 4.7l2.1.4c5.3 1 11.2 1.7 15.7 4.7 9.8 6.7 5.2 19.6-5.7 21-5.3.6-11.1-1.6-16.3-2.6a337 337 0 0 0-23-3.8q8.1 1 15.8 3.4l1.5.4c10 3 23.5 8 26.6 18.6 1.9 6.5-3.3 12.1-9.6 12.5-5.8.4-10.6-3.1-15.6-5.7a66 66 0 0 0-11.1-4.4q-6-1.9-12.2-3 5.1 2.8 10 6.3l1.6 1.1c8.6 6.4 21.8 16.4 18.8 28.5-1 3.8-5.2 7.5-9.3 7-10.6-1-16.5-12.2-24.5-18.3q-3.1-2.4-6.8-4.6a193 193 0 0 1 29.2 48.5c16.1 38 21 73.2 21.2 114.1v1.3c0 22.6-.5 45.5-2.7 68a169 169 0 0 1-15.2 60 130 130 0 0 1-80.4 65.4 128 128 0 0 1-110.7-21.7c-7.9-6.2 2.6-19.4 10.6-13.8A116 116 0 0 0 485 602.8a114 114 0 0 0 62.9-68c6.3-19.1 8.2-39.5 10.4-59.3l.2-1.4q3.7-31.1 3.8-62.6c0-38.8-5.6-70.8-22.7-106a187 187 0 0 0-31-45.5c-3.7.8-7.8-.3-11.6-.7l-5.8-.6 5.8 4 2.5 1.8c8 5.7 18 12.1 16 23-.6 3-3.6 5.7-6.4 6.4-10.4 2.4-17.5-7.6-24.4-13.6a284 284 0 0 0-23.4-17.6l4.1 5 2 2.5c6 7.4 14.5 17 9.2 26.7a9 9 0 0 1-7.8 4.5c-10.7-.3-15-12.4-20-20a280 280 0 0 0-17.7-24 419 419 0 0 0-111.2 21l-1.2.4a55 55 0 0 0-22 11.4c-.8 3.9-.1 8 .7 11.8l.6 3c2.5 12.4 4.2 24.5 3 37.2a137 137 0 0 1-10.2 37.1c-2.3 5.8-4.6 4.7-5.4 10.9-.7 4.7-.3 9.5.1 14.2l.4 4c.9 10.6 1.3 22-5.5 30.7-1.1 1.3-3.4.8-4.2-.5l-1-1.6a21 21 0 0 0-14.2-8.6c-.7-.1-.4-1 .2-1.2q7.6-.7 13.5 3.2c-1.8-6.5-16.4-3.3-21.2-2h-.1q-9 2.4-16.6 7.9c-10 7.4-15.8 19-15.5 31.3a34 34 0 0 0 34.6 33.5c6.1 0 11.6-2.8 17.8-2.4 3.6.2 6.4 4 4.3 7.4a17 17 0 0 1-5.3 5.4 176 176 0 0 0 19 33.1q6.3 8.6 14 15.8c4 3.8 12.7 8.1 12.2 14.4q-.2 3.2-3.4 4.5c-6.4 2.6-14.2-6.4-18.5-10.8l-.3-.3a120 120 0 0 1-14.4-17.5A88 88 0 0 1 267 514a51 51 0 0 1-32.2-3.6c-26.4-11.9-35-47.3-19-71q4.7-6.8 11.4-11.6-1.5-.8-2.6-2c-4.5-4.8-7.7-11-10.8-16.8l-.4-.6q-4.2-7.5-8-15.4l-.8-2c-5.5-11.8-10.4-17-14.3-29.4a250 250 0 0 1-8.7-36.8l-.5-3.3c-1.1-7.2-2.2-15-1.4-22.3-5.6 1.9-11.2 3-16.8.2-3.6-1.8-5.6-7-4.4-10.8q1.4-4.2 4.4-6.7-1.8-1-3.2-2.2l-.8-.7c-3.4-3-3.6-8.5-1.6-12.1l.6-1c2-3.6 6-5.8 10-5.8h1.8q-2.7-.5-5.3-2c-7.8-4.8-6.8-17.8 2.6-20q6-1.3 12.6.4-.2 0-.5-.3c-3.3-2-6-6-5.7-10a11.5 11.5 0 0 1 17.4-10q4.5 3 8.6 6.4a30 30 0 0 1-6.2-11c-1.2-5 .8-10.4 5.3-13a11 11 0 0 1 10.6-.2q-.4-4 2.1-7.6c3.6-4.8 10-7.6 15.5-4q1.2.6 2.7 2.2c-1.9-6-.2-12.1 6.1-14.8 3.9-1.6 9-.8 12.4 2-2-11.4 14.8-19.9 21.4-8q2.3 4 4.3 8.4l.5 1-.3-.7-.3-.8c-1.9-4.3-4.2-8.7-4.8-13.3-1-6.8 2-13.3 9.5-14.3 3.8-.5 8 1.2 10.6 4.3-1.3-10.6 10.5-18.3 19-10.4 4 3.7 6.2 9.2 8.7 14l4.4 8.1 1.2-1.3q-3.2-9.6-5.2-19.7a12 12 0 0 1 8.2-14.5c5.9-1.6 13.2 2 14.5 8.3q1.4 6.6 3.3 13l2.4-.4.2-2.5.3-2.8c.7-6.7 1.4-14.2 4.9-19.8 5.9-9.6 21-5.6 21.1 5.7.1 5.9-2.3 11.7-3 17.5q-.7 3.8-.8 7.7 2.5-12.8 6.4-25.2zM245 457.3c13.3-2 25.4 5.4 33.3 15.7 1.4 2 .4 4.6-.8 6.2-1 1.1-2.2 1.3-3.6 1.5-1.7.2-3.7-1.1-4.4-2.6a43 43 0 0 0-24.5-20.3q-.2-.2 0-.5m18.4-180.6.4-.4c2.7-2.8-1.5-7-4.2-4.3-2.9 3-4.7 6.5-6.5 10.2-1.8 3.4 3.4 6.4 5.1 3l.8-1.6a31 31 0 0 1 4.4-6.9m-37.2-5.7c3.8-.6 2.2-6.4-1.6-5.8l-14.7 2.6c-3.8.7-2.2 6.4 1.6 5.8zm226.4-39.5c-3.7-1.2-5.3 4.6-1.6 5.8q7.6 2.4 14.8 5.8c3.5 1.6 6.5-3.5 3-5.2a132 132 0 0 0-16.2-6.4m-227.3-7.7c-3.6-1.5-5.1 4.3-1.6 5.7l13 5.2c3.6 1.5 5.1-4.3 1.6-5.8zm272.5-14.1-.5-.3c-3.2-2.1-6.2 3-3 5.1 2 1.3 4.2 2.1 6 3.6l.3.3c2.8 2.6 7-1.6 4.3-4.2-2-2-4.7-3-7-4.5" fill="black"/></g><g id="expression-serious-a89e2a97"><path fill-rule="evenodd" clip-rule="evenodd" d="m121.9 234 2-.5c7.7-2 15.7-5.4 23-.8 2.6 1.6 3 5 .9 7.3-6 6.4-14.6 5.2-22.6 5.2h-.4q-12 .3-24-1.4c-1-.2-1.3-1.9-.3-2.3Q111 237 122 234m13-116.6c7.5 4.6 19 15.3 10.8 26.6-9.5 10-23.3-1.4-30-6.6-6.4-4-13.4 6.3-7.6 11 49 36.3 69-29.8 30.5-36.4-4.2-.8-5.8 4-3.8 5.4M187.2 57c12.2-.4 12.2 19 0 19h-11c2.2 7.6 1 16.8-2.8 23.3a7.8 7.8 0 0 1-12 1.5c-6.2-6-7.4-14.8-5.2-22.8l-.5-1-.3-1.1H68.1l.4.7q1 2.4 1.2 5a30 30 0 0 1 0 8.6c-.4 2-1 4.5-2.1 6.4-.6 2.3-1.2 4.5-3 6.1l-1.6 1.1q-1.5 1.6-4 1.8-1.5 0-3-.6c-1.5.1-3-.6-4.4-1.2a9 9 0 0 1-2.8-2q-.6 0-1.1-.4c-2.3-1.4-3.2-4.2-3.3-6.8v-.5l-.2-1c-.8-4.5.1-9.7 1-14l.8-3.7q-3.4 0-6.8-.3c-5.8-.2-12.7.6-18-1.8q-.5-.4 0-1c4.8-3.4 12.4-4 18.3-5.1l.5-.1a373 373 0 0 1 62.5-7.6C130.8 58 159 58 187.3 57" fill="black"/></g><clipPath id="clip-a89e2a97"><rect width="704" height="704" rx="0" ry="0"/></clipPath></defs><g clip-path="url(#clip-a89e2a97)"><path fill-rule="evenodd" clip-rule="evenodd" d="M705.3 1074a2351 2351 0 0 1-15.6-101c-1-7.7-2.5-16.4 2.7-22 7.3-8 14-14.8 14.8-26.2.8-10.7-2.8-22.4-5-32.8a809 809 0 0 0-17.3-64.7q-10-32.5-21.3-64.6c-6.9-20-13.5-40.3-22.5-59.5-17-36.5-46-63.5-81.6-81.6-9-4.5-27-20.5-36.3-24-8.5-3.4-8.5 6.3-16.9 2.6-6.7-2.9-13-6.7-16.7-13.2-4-7-14.3-16.9-15.9-25-3.3-17.4.3-32.2-12-45.3a90 90 0 0 0-41.1-23.8c-33.7-9.3-78.5-2.8-98.8 28.5-9.7 14.9-13 33-26.2 45.1-11.4 10.7-8.8 18-23.6 23.4-.9.3-23.6-4.5-24.4-4.2-16.2-3.5-31.7 6.2-46.5 11.8a325 325 0 0 0-63 32.3 399 399 0 0 0-102.3 98.5 483 483 0 0 0-76.4 161c-1.7 6.4-3.5 13-1.5 19.4a25 25 0 0 0 9.8 12.4c6 4.3 18 7 17.7 15.7-.1 6.6-2.4 13.5-3.5 20q-1.9 11.6-3.4 23.2a1232 1232 0 0 0-10.3 106.6 920 920 0 0 0-.5 106q.2 3.5 2 6.2c-1 .4-1.2 2.4.1 2.7l2.7.5a12 12 0 0 0 7 2.4l5.5.2c19.3 4 38.6 7.9 58.1 10.8q35.7 5.2 71.5 8.7c49.2 4.8 98 3.2 147.1.6a1877 1877 0 0 1 147.4-2c49.2 1.4 98.4 3.5 147.6 4.4q82.5 1.6 164.8-5c7.5-.5 12.2-6.5 10.7-14-8.9-44.7-19-89.1-27-134" fill="#edb98a"/><path fill-rule="evenodd" clip-rule="evenodd" d="m201 597.5 1.2-.4c14.5-5.7 29.6-14.8 45.4-11.4.5-.2 10.8 1.9 17.9 3.2l-6.7 7L247 598q61 100.7 144.3 100.7T517.7 598l4-1q.7 0 1.5.4c9.3 3.6 27.4 19.6 36.3 24.1 35.6 18 64.5 45 81.6 81.6 8.7 18.6 15.2 38 21.8 57.5l.7 2q11.3 32.1 21.3 64.6 9.6 30.6 16.6 61.8l.7 2.9c2.2 10.4 5.8 22 5 32.8a29 29 0 0 1-3 10.7l-80.4 29 38.4 261.3q-52.7 2.3-105.5 1.3c-49.2-.9-98.4-3-147.6-4.3q-71.5-1.9-143 1.7l-12 .6a946 946 0 0 1-139.5-1l-3.1-.3v-38.3l16.3-212.9-83-15.6-81.3-39.5a22 22 0 0 1-5.6-8.8c-1.9-6-.5-12 1-18l.5-1.3a493 493 0 0 1 76.4-161A399 399 0 0 1 138 629.7q29.8-19.6 63-32.3" fill="#ffcf77"/><path fill-rule="evenodd" clip-rule="evenodd" d="M232.2 584.6c5.1-.3 10.3.6 15.4 1 .4.1.6.8 0 .9q-13.5 3-26.9 7.1l-3.8 1.2c-10 3-19.8 6-29.6 10a264 264 0 0 0-54.8 30.8C67.2 682.8 20 754.3-9.9 828.3a526 526 0 0 0-24.3 77c-.4 1.6-2 5.4-1 7 .7 1.3 3.6 2.1 5 2.9l4.5 2.3 25.2 12.9 2.3 1.1c38 18.6 78.4 34.4 121 35.5l.4-3.7a342 342 0 0 1 9.9-60c.3-1 1.6-.6 1.7.3 3 23.1 2 46.4 1 69.7-1.8 41-4.3 82.2-6.5 123.3l-3.9 61.7c-1.3 20.5-1.7 41.6-4.7 62-.6 4.6-6 7-10 6.6a9 9 0 0 1-8-9c0-11.9 1.5-24 2.4-35.8l2.5-33.8c3.1-41.1 6.8-82.2 10.2-123.3l3.8-43.7C76.4 979.8 34.2 963-6.1 943.5c-.6 13.2-2 26.5-3.4 39.6q-5.8 55.2-9.6 110.5a2254 2254 0 0 0-4.2 92.7l-.2 7c0 4.4-.5 8.5-4.3 11.7a9 9 0 0 1-12.6 0c-5-4.6-4.2-10.9-4-17.1a1676 1676 0 0 1 1.8-47.2 1321 1321 0 0 1 10.5-109.5l2-14a461 461 0 0 1 15.5-77.9q-4.6-2.2-9.3-4.7-8.4-4-16.6-8.4c-4.2-2.5-7.9-5.8-9-10.8-1.4-5.5.6-11.5 2-16.9v-.4a502 502 0 0 1 26.6-80 523 523 0 0 1 67.8-117 354 354 0 0 1 88.7-83.3 239 239 0 0 1 53.8-25.7 143 143 0 0 1 42.8-7.5m90.1-66c6-6.5 18.1.2 15.2 8.8a108 108 0 0 1-34.7 52A79 79 0 0 1 247 598l1.7 2.4a321 321 0 0 0 46.1 52.6c36 31.2 84.8 48 132 36 37.1-9.4 69.8-38.8 79.4-76.2q-2 1-4.8.5c-7.7-1.7-15.3-9.8-20.3-15.6q-8-9.3-12.6-20.7c-5.6-14-7.4-32.1.3-45.7 1-1.7 3-.7 3.3 1l.3 2.5c1.5 12.7 3.3 25 9.3 36.6a76 76 0 0 0 18.2 23.1c2.6 2 5.8 3.6 8.1 6l.5.4c.6-5 4.1-7.3 7.6-7.2a29 29 0 0 1 8.8 2.3l.1.1a341 341 0 0 1 65.1 42 259 259 0 0 1 88.4 129c7.5 25.3 11.8 51.4 16.3 77.4l2.8 16c4.2 23.9 8.9 48.4 18.4 70.7 2.5 5.7.6 11.1-5.5 13.4L688 953c3.7 16 6 32.5 8.7 48.5 6 34.1 13.2 68 19.4 102l9.3 52.3 4.7 25.2 2.4 13.6.1.7c.5 2.4 1 4.9.4 7.3-.8 2.7-2.9 4.6-4.8 6.6-1.6 1.6-3.8 1.6-5.7.7l-.7-.3c-3.4-1.6-6-3.2-7.3-7q-.9-3.8-1.5-7.7l-2.8-14.5-5-29.1-1.6-9.1a1165 1165 0 0 1-12.8-94.5q-1.6-21-3.5-42.2l-.9-10.5c-1.1-13.3-2.5-27-2.7-40.5l-4.5 1.6L657 964c-5.5 2-12.5 6-18.4 5.2q-4.2-.4-6.8-2.9 3 43.1 8.5 86a1966 1966 0 0 0 22 135l1.9 9.6c.5 3.7-.5 5.9-2.5 9-1.7 2.4-5 3.7-7.8 2-3.6-2.3-5.5-4.3-6.5-8.4q-1.4-5.6-2.3-11.4a1654 1654 0 0 1-11.4-65.2Q622 1044.7 618.5 966a1388 1388 0 0 1-1.4-77.8q0-20 1.4-39.9c1-13.4 3-26.5 4.8-39.8 0-.5.7-.5.7 0 .8 14.9 2.1 29.8 2.8 44.7l1.4 42.8q.9 28.1 2.7 56.2a10 10 0 0 1 8.5-3.1c4.7-1 9.7-3.4 14.1-5l16.8-5.5 26.4-8.7a679 679 0 0 1-18-80.8l-2-12.3c-4-24.2-8.5-48.5-15.8-72a230 230 0 0 0-34.8-68.2 370 370 0 0 0-52.7-55.3C557 627 539.7 614 523 600q.2 1.4 0 3a117 117 0 0 1-35.8 67.9c-37.7 36-93.6 43.4-142 26.5-46.7-16.3-88-55-102.6-102.8-.3-.8.8-1 1.3-.5l2.4 3.3q0-.7.7-1a129 129 0 0 0 46.6-29.2 100 100 0 0 0 21.3-33.3l.4-1c1.7-5 3.2-10.2 7-14.2" fill="black"/><use transform="matrix(.99789 0 0 1 6.3 -58)" href="#head-twists-a89e2a97"/><use transform="translate(351 275)" href="#expression-serious-a89e2a97"/></g></svg>