<svg xmlns="http://www.w3.org/2000/svg" viewBox="0 0 704 704" fill="none" shape-rendering="auto" aria-hidden="true" width="512" height="512"><metadata xmlns:rdf="http://www.w3.org/1999/02/22-rdf-syntax-ns#" xmlns:xsi="http://www.w3.org/2001/XMLSchema-instance" xmlns:dc="http://purl.org/dc/elements/1.1/" xmlns:dcterms="http://purl.org/dc/terms/"><rdf:RDF><rdf:Description><dc:title>Open Peeps</dc:title><dc:creator>Pablo Stanley</dc:creator><dc:source xsi:type="dcterms:URI">https://www.openpeeps.com/</dc:source><dcterms:license xsi:type="dcterms:URI">https://creativecommons.org/publicdomain/zero/1.0/</dcterms:license><dc:rights>Remix of “Open Peeps” (https://www.openpeeps.com/) by “Pablo Stanley”, licensed under “CC0 1.0” (https://creativecommons.org/publicdomain/zero/1.0/)</dc:rights></rdf:Description></rdf:RDF></metadata><defs><g id="head-shaved1-a79e2904"><path fill-rule="evenodd" clip-rule="evenodd" d="M496.5 211.7c-74-37.9-184-33.8-236 37.8a175 175 0 0 0-20.8 43.6c-5.1 19.6-14.2 48.6-16.3 76.8-1.2 16.3 4.4 32.1 2.9 46.2-1.2 11-12.6 7.7-12.1 18.3.9 20.8 1.5 51.1 12 67.5 10 14.1 28.4 13.3 39.3 26.6 10.2 12.6 19 26.5 32 36.5 27.1 50.6 104.4 62 156.5 57.4 124.2-19.8 122.7-205.4 121-303 .5-50-36.1-87-78.5-107.7" fill="#ae5d29"/><path d="M309.5 156.5c45-25 99-35.6 150.2-30a187 187 0 0 1 73.8 22.1A126 126 0 0 1 582 199a150 150 0 0 1 13.4 99.3c-1 5.6-2.7 11.8-1.4 17.5 1.3 5.5 6.5 8.5 10.3 12.2a75 75 0 0 1-10.6 117.3 36 36 0 0 1 5.7 38.2c-4 9-11.8 20-20.7 24.8a19 19 0 0 1-14.3 1.6c-3 32-11.7 62.4-34.6 87a120 120 0 0 1-114.1 35.8q-10.2-2-20-5.7c-7.1-2.8-14.3-5.5-19.6-11.4a8.1 8.1 0 0 1 7.9-13.4c7.5 1.6 14.1 5.9 21.4 8.4q10.3 3.5 21 5a108 108 0 0 0 99-43.5c15.4-21.7 21.8-47.7 24-74 2.7-30.2 1.7-60.7 2-91v-48c.2-15.1-.2-30.3.7-45.5a5 5 0 0 1-2-1c-7.2-5.1-12.9-12.6-19.7-18.3A153 153 0 0 0 508 279a190 190 0 0 0-96.9-23.3q-27.6.6-54.6 6.6l-56 15c-11.5-8-24.5-13.7-37.1-19.6-1.4 5.2-5.1 10.2-7.5 14.8q-4.6 9.2-8.4 18.8-7.6 19.3-12.2 39.6a395 395 0 0 0-6.6 41.8q-1.6 10.5-2.2 20.8l-.2 11.2c0 2.5-1 8 1.3 10.3l.6.5c12-3.6 26 .4 31.5 12.8.4.7-.5 1.4-1.2.9-11.2-9.5-30.8-4-37 8.7-2.8 6-3.3 13.2-1.8 19.6 1.8 7.6 6.4 13.8 9.4 20.9q2.3 6 3 12.1c.4 2.6.6 6.3 2.5 8.3 2 2.2 6 2.5 8.7 3 3.7 1 7.4 2 10.8 3.8 13.4 7 20.3 23.4 29.8 34.5q8.3 9.6 17.9 17.9c6 5.3 15.8 9.6 16.7 18.4.3 2.9-2.3 5.7-5 6.4-6.5 1.8-11.1-2.6-15.9-6.4a174 174 0 0 1-34.4-36.2c-4.7-6.5-8.6-15-15.4-19.7-6.8-4.8-16.1-3.5-22.8-9-8.2-6.8-6.5-16-9-25.1-2.2-8.8-8.2-16-10-25-3.3-16.2 1.6-36 17.3-44l3-1.2-.9-.8c-1.8-1.9-2.5-5.1-3-7.6-1.8-7.7-2.8-15.7-4-23.5a162 162 0 0 1 1.6-47.8q3.6-22.2 11.3-43.5-2.7-1.8-4-5.3c-1.7-5-.2-10 .8-14.9l1-4.5c-.8-48.8 40.2-89.3 80.4-111.7" fill="black"/><path d="M231.4 451c6.8-.1 12.6 1.2 18.6 4.8a33 33 0 0 1 13.5 14.9c2.1 5.1-6.4 8.5-8.9 3.7-2.6-5-4.5-9.5-8.6-13.4a40 40 0 0 0-14.8-8.8c-.6-.2-.5-1.2.2-1.2" fill="black"/></g><g id="expression-old-a79e2904"><path fill-rule="evenodd" clip-rule="evenodd" d="M140 212.6c-6.4 0-13.5-2.3-18.4-4.2l-1.2-.5a33 33 0 0 1-11.6-6.8 13 13 0 0 1-2.7-3.4q-.5-1.2-.1-2.3l3.3-.4 1.3-.2 4 .3 3.6.5q4.5.7 9 1l6.6-.2c6-.3 12.2-.8 16.8 3.4a5 5 0 0 1 1.7 3.9q-.1 2.6-1.9 4.8c-2.4 3-6.2 4.1-10.4 4.1m35-53.6a15 15 0 0 1-13.8 6.6 82 82 0 0 1-38.2-12.2 11 11 0 0 1-4.9-7.8l-.5-5.4-3.1 4.5-1 1.4-2.6 4a175 175 0 0 0-8.9 15.7 91 91 0 0 0-4.7 12.5 47 47 0 0 1-9.6 19.6q-1.4 1.1-3 1t-2.3-1.5c-6-12.3 2-27 8.6-37.2l.7-1c6-9.3 16-21.5 27.4-23.2l1.3 2 1.8-1.2c3.1-2 7.2-2 10.8-.3l3.6 1.6a100 100 0 0 0 23.4 7.8l-.3-1.5a87 87 0 0 0-2.8-9.3c-3-7.7-7.5-14.9-12-21.7l-.6-.8-2-3c-3.6-5.1-7.5-10.6-7.8-16.1 4.7.3 8.6 3.2 12 5.7q7.1 5.3 13.1 11.7c7.7 8.4 14.6 19 17.7 30.1 1.7 6.3 1 13.1-2.3 18M51.6 96v-.2c0-6.4 3.7-21 13-21 5.7 0 9.1 10 9.7 20.2v.4c.3 6.4-1.4 20.2-9.8 20.2S51.7 102.4 51.6 96m135.2-2v-.2c0-6.4-3.8-21-13-21-5.5 0-9 9.5-9.7 19.4v.8c-.4 6.1 1.2 20.6 9.8 20.6 8.4 0 12.8-13.1 12.9-19.6M82.5 52.8l-3.6.5a168 168 0 0 0-30.2 7.5 437 437 0 0 0-25 9.5q-4.9 2.1-9.8 3.8a94 94 0 0 1 34.7-27q11-5.5 22.8-9l4.3-1.3c6.4-1.9 13.4-3.6 19.3.2a10 10 0 0 1 4.4 6.2 9 9 0 0 1-1.8 7.3q-2.2 2.8-5.2 3.4a10 10 0 0 1-6.5-1.2h-3.4m96 1.2a52 52 0 0 0-18.7-.5c-3 .5-6 1-9.2.4q-2.4-.5-4.1-2.6a11 11 0 0 1-2.4-5.2q-.4-2.7.6-5 1.3-2.4 3.9-4.3c5-3.8 13.7-3 19.6-2.1q9 1 16.9 5.4t13 11.4c3 4 4.3 8.5 5.8 13.2-6.7-5.6-17-8.9-25.5-10.7" fill="black"/></g><g id="facialHair-full2-a79e2904"><path fill-rule="evenodd" clip-rule="evenodd" d="M469.1 178.7q-5.2-1.7-10.3-3.7a70 70 0 0 0-57.4-3c-9 3.6-17.5 10.2-26.6 14.5l-6.5 2.2a195 195 0 0 1-31.6-14.6l-3-3.8a148 148 0 0 0 18.3-4c17.3-4.7 33.7-12.5 51-17.4 16-4.7 33.5-7.2 49.7-1.4 7.6 2.7 14.4 7.5 21.9 10.7 3.8 1.7 8.4 3.3 13 3.5a65 65 0 0 1-11.7 19zm37.6-54.6c-1.6 1.3-8 5.5-10 8l-1.6-.7a4 4 0 0 0-3.6-1.6 86 86 0 0 1-25.6-18.5 65 65 0 0 0-18-14.7c-8.6-3.8-16.9-2-25.8-1.4-9.5.6-18.8-2-28.3-.8q-10.5 1.7-19 8c-11.4 8.4-19.3 20.3-29 30.5a80 80 0 0 1-39.4 22.7q-.2 0-.5-.3Q289.4 140 276 122c-8.6-11.8-31.3-64.7-36.8-69.3q-3.5-3-7.2-2.7c-4.3.1-8.3 3.1-10.1 7.9-3 8-1.5 18.4-1.3 26.9a409 409 0 0 0 12.3 88.1 92 92 0 0 0 22.2 44.2c12.5 12.4 29.5 20.6 45.2 28q22.6 10.7 46.9 18c14 6.4 29 11.4 44 14 16.6 3 34 3.2 50-2.6a88 88 0 0 0 22.1-11.7q14.5-7.4 25.3-20.8a113 113 0 0 0 21.2-56.2c.7-5.2 3.3-25 3.5-28.1l1.9-30c.3-4.8-5.5-6-8.5-3.6" fill="black"/></g><g id="mask-respirator-a79e2904"><path fill-rule="evenodd" clip-rule="evenodd" d="M315.9 39.2c-8.9-9.2-17.7-18.5-29-24.8.4-2.7-.6-5.8-3.9-7.1-31.3-11.7-51.2 22-73.8 37-5.3 2.8-10.6 6.1-16.5 7.2a60 60 0 0 0-30.9 21.3c-4 4-11.3 10.5-13.3 15.8-1.2 2.2-111.3-50.1-136.3-56C.3 28.6-6.1 40 9 45.6c39.5 15.2 116.8 49 134 58.8a60 60 0 0 0-1 33.9 48 48 0 0 0 13 41.5c2.2 3.2 5.6 5.5 7.8 8.3 8 20.9 27.1 31 49.5 41 35.7 15.8 66.8 19 86.3 12 50.7-19.3 80.2-76.2 70.7-128-9-36.6-7-68.7-53.4-73.9" fill="#9DDADB"/><path fill-rule="evenodd" clip-rule="evenodd" d="M205.8 39c30.5-17 35.7-51.8 80-34.1 13.8 5.6 18.6 13.8 27.8 24.2 4.8 4.3 10.8 6.5 16.8 8.8 22.5 7.5 35.8 28.8 40.8 51.1A141 141 0 0 1 337 223.6q.7 1.5-.7 2.7-2.9 1.4-5.7 3.2C318.7 239.7 294.8 253 277 253c-39.6 0-77.8-16-101.2-36.7-30-24.1-48.8-74.5-39-110.7C81 79.5 29.5 59.7 8 51c0 0-8-8.4-.1-6.2 50.5 14.3 150.1 60.8 151.3 60.8.7 0 3.4-5.6 3.9-8C160.7 97.1 23.4 38 6.3 32.4l-1-.3c-8-2.6-6-4.6.2-4.2 12.7.7 120.2 50.6 141 55.6 9.4-21 36-31.9 59.3-44.6m66.6-29.8c-17-5-29.4 7.3-38.5 20.3-21.5 26.5-60.6 27.4-76.7 59l-.5 1 6.4 1.8.2-.2c.5-.8 2-2.8 3.3-1 6.6 7.1-3.8 30.7-9.2 20.3l-.2-.3-8.9-2.5c-16 65 45.2 123.5 106.7 133.4 0 0 25.7.4 36-2 7.6-2 14.1-5.5 21.1-9s12.8-8.9 19.5-12.6c19.3-19 32-45.3 35.4-72.5 3.3-32.6.2-74.2-28.1-94.8-9.3-6-20.8-7.5-29.3-14.8-10.2-11.3-22.1-22.7-37.2-26M242 161.8c-.3-.5.4-1 .7-.6q9 8.4 17.3 17.4l1-.3c2.1-.5 3.9 1.6 2.9 3.5l-.2.4c-1.5 2.6-5 4.8-7 1.8a352 352 0 0 1-14.7-22.2m-73.6 13.4v-.2c-.2-2.2-2-7.7 1.7-6.9 4.1 2.5 5.7 8.8 5.9 13.3.2 4.9-8 5-7.7 0q.2-3.2 0-6.2M340.7 160q1.1.2.4 1c-6.6 3.7-6 11.1-7 17.3-7.7 5-6.9-16.5 6.6-18.3m-188.9-26.4c63.4 6.4 131.6 25.4 196.4 6.1 4-1 5.5 5 1.6 6-65.3 16.6-134.7 6.8-198-12m172-26.1c2-.5 3.8 9.2 6.8 11 1.5 3 13.4 5.7 8.4 9.4-8.6 1.8-18-12.7-15.2-20.4m-55.7 2.3q2.1.2 3 2.3c1.2 3.8-4.4 3.2-6.5 4.5a56 56 0 0 1-30 11.2c-.7 0-.7-.9-.1-1l1.9-.8c6-2.4 11.8-4.8 17.3-8.3 4.4-2.8 8.7-8 14.4-8m-33.5-66.4c-1.5-10.8 32.6-38 43-26.4 2.8 3-.8 7.5-4.4 5.6-14.5-3.8-28.5 12-38.6 20.8" fill="black"/></g><g id="accessories-sunglasses2-a79e2904"><path fill-rule="evenodd" clip-rule="evenodd" d="m412 73.2-2.5-.4q-1-.5-2.3-.8-3-.7-6-1c-28.5-6.4-94.5 2.7-97.3 27-9 3-17 .4-27.4.6-8-33.5-146.6-28.8-153.3-8.6-6.5-2-16-1.5-23.3-1.8q-23.5-.6-46.6 4.4c-28.7 4.5-67.8 9.9-47.9 45.7 3.5 3.5 9.3.7 9.5-4-6.7-17 8.5-19 20.1-24a196 196 0 0 1 88.5-8.6c2.3 2.7 5.7 5 9.3 6.2 20 3.3 9.5 18.2 22.2 20.3-2.3 51.9 60.6 80.2 97 46.1 14.6-14.2 18.1-35.3 21.5-54.3a5 5 0 0 0 3.6-2.7c4.3-4.3 7-8.2 15.4-9.4s15 1.2 16 1.9l.7 1.3q.7 1 1.5 1.7c-8.4 51.6 31.7 84.2 72.2 57.5 17.5-16.6 21.3-41.9 22-64.5a7 7 0 0 0 3-7.7c-1-4.9 1.6-9 5.8-11.1 5.5-2.8 4.6-12.7-1.8-13.8M238 97.7c-5-1-7 6.7-2 7.8q5.4 1.1 8.6 5.6l.2.3c2.7 4.4 9.7.4 7-4q-5-7.6-13.7-9.7M385.3 93c-1.8-1.2-4.5-.3-5.5 1.5-1.1 2-.4 4 1.3 5.3l.1.2c1.6 1 3 3 3.2 5v.2c.2 5.1 8.2 5.1 8 0s-3-9.3-7.1-12.2" fill="black"/></g><clipPath id="clip-a79e2904"><rect width="704" height="704" rx="0" ry="0"/></clipPath></defs><g clip-path="url(#clip-a79e2904)"><path fill-rule="evenodd" clip-rule="evenodd" d="M705.3 1074a2351 2351 0 0 1-15.6-101c-1-7.7-2.5-16.4 2.7-22 7.3-8 14-14.8 14.8-26.2.8-10.7-2.8-22.4-5-32.8a809 809 0 0 0-17.3-64.7q-10-32.5-21.3-64.6c-6.9-20-13.5-40.3-22.5-59.5-17-36.5-46-63.5-81.6-81.6-9-4.5-27-20.5-36.3-24-8.5-3.4-8.5 6.3-16.9 2.6-6.7-2.9-13-6.7-16.7-13.2-4-7-14.3-16.9-15.9-25-3.3-17.4.3-32.2-12-45.3a90 90 0 0 0-41.1-23.8c-33.7-9.3-78.5-2.8-98.8 28.5-9.7 14.9-13 33-26.2 45.1-11.4 10.7-8.8 18-23.6 23.4-.9.3-23.6-4.5-24.4-4.2-16.2-3.5-31.7 6.2-46.5 11.8a325 325 0 0 0-63 32.3 399 399 0 0 0-102.3 98.5 483 483 0 0 0-76.4 161c-1.7 6.4-3.5 13-1.5 19.4a25 25 0 0 0 9.8 12.4c6 4.3 18 7 17.7 15.7-.1 6.6-2.4 13.5-3.5 20q-1.9 11.6-3.4 23.2a1232 1232 0 0 0-10.3 106.6 920 920 0 0 0-.5 106q.2 3.5 2 6.2c-1 .4-1.2 2.4.1 2.7l2.7.5a12 12 0 0 0 7 2.4l5.5.2c19.3 4 38.6 7.9 58.1 10.8q35.7 5.2 71.5 8.7c49.2 4.8 98 3.2 147.1.6a1877 1877 0 0 1 147.4-2c49.2 1.4 98.4 3.5 147.6 4.4q82.5 1.6 164.8-5c7.5-.5 12.2-6.5 10.7-14-8.9-44.7-19-89.1-27-134" fill="#ae5d29"/><path fill-rule="evenodd" clip-rule="evenodd" d="m201 597.5 1.2-.4c14.5-5.7 29.6-14.8 45.4-11.4.5-.2 10.8 1.9 17.9 3.2l-6.7 7L247 598q61 100.7 144.3 100.7T517.7 598l4-1q.7 0 1.5.4c9.3 3.6 27.4 19.6 36.3 24.1 35.6 18 64.5 45 81.6 81.6 8.7 18.6 15.2 38 21.8 57.5l.7 2q11.3 32.1 21.3 64.6 9.6 30.6 16.6 61.8l.7 2.9c2.2 10.4 5.8 22 5 32.8a29 29 0 0 1-3 10.7l-80.4 29 38.4 261.3q-52.7 2.3-105.5 1.3c-49.2-.9-98.4-3-147.6-4.3q-71.5-1.9-143 1.7l-12 .6a946 946 0 0 1-139.5-1l-3.1-.3v-38.3l16.3-212.9-83-15.6-81.3-39.5a22 22 0 0 1-5.6-8.8c-1.9-6-.5-12 1-18l.5-1.3a493 493 0 0 1 76.4-161A399 399 0 0 1 138 629.7q29.8-19.6 63-32.3" fill="#ffcf77"/><path fill-rule="evenodd" clip-rule="evenodd" d="M232.2 584.6c5.1-.3 10.3.6 15.4 1 .4.1.6.8 0 .9q-13.5 3-26.9 7.1l-3.8 1.2c-10 3-19.8 6-29.6 10a264 264 0 0 0-54.8 30.8C67.2 682.8 20 754.3-9.9 828.3a526 526 0 0 0-24.3 77c-.4 1.6-2 5.4-1 7 .7 1.3 3.6 2.1 5 2.9l4.5 2.3 25.2 12.9 2.3 1.1c38 18.6 78.4 34.4 121 35.5l.4-3.7a342 342 0 0 1 9.9-60c.3-1 1.6-.6 1.7.3 3 23.1 2 46.4 1 69.7-1.8 41-4.3 82.2-6.5 123.3l-3.9 61.7c-1.3 20.5-1.7 41.6-4.7 62-.6 4.6-6 7-10 6.6a9 9 0 0 1-8-9c0-11.9 1.5-24 2.4-35.8l2.5-33.8c3.1-41.1 6.8-82.2 10.2-123.3l3.8-43.7C76.4 979.8 34.2 963-6.1 943.5c-.6 13.2-2 26.5-3.4 39.6q-5.8 55.2-9.6 110.5a2254 2254 0 0 0-4.2 92.7l-.2 7c0 4.4-.5 8.5-4.3 11.7a9 9 0 0 1-12.6 0c-5-4.6-4.2-10.9-4-17.1a1676 1676 0 0 1 1.8-47.2 1321 1321 0 0 1 10.5-109.5l2-14a461 461 0 0 1 15.5-77.9q-4.6-2.2-9.3-4.7-8.4-4-16.6-8.4c-4.2-2.5-7.9-5.8-9-10.8-1.4-5.5.6-11.5 2-16.9v-.4a502 502 0 0 1 26.6-80 523 523 0 0 1 67.8-117 354 354 0 0 1 88.7-83.3 239 239 0 0 1 53.8-25.7 143 143 0 0 1 42.8-7.5m90.1-66c6-6.5 18.1.2 15.2 8.8a108 108 0 0 1-34.7 52A79 79 0 0 1 247 598l1.7 2.4a321 321 0 0 0 46.1 52.6c36 31.2 84.8 48 132 36 37.1-9.4 69.8-38.8 79.4-76.2q-2 1-4.8.5c-7.7-1.7-15.3-9.8-20.3-15.6q-8-9.3-12.6-20.7c-5.6-14-7.4-32.1.3-45.7 1-1.7 3-.7 3.3 1l.3 2.5c1.5 12.7 3.3 25 9.3 36.6a76 76 0 0 0 18.2 23.1c2.6 2 5.8 3.6 8.1 6l.5.4c.6-5 4.1-7.3 7.6-7.2a29 29 0 0 1 8.8 2.3l.1.1a341 341 0 0 1 65.1 42 259 259 0 0 1 88.4 129c7.5 25.3 11.8 51.4 16.3 77.4l2.8 16c4.2 23.9 8.9 48.4 18.4 70.7 2.5 5.7.6 11.1-5.5 13.4L688 953c3.7 16 6 32.5 8.7 48.5 6 34.1 13.2 68 19.4 102l9.3 52.3 4.7 25.2 2.4 13.6.1.7c.5 2.4 1 4.9.4 7.3-.8 2.7-2.9 4.6-4.8 6.6-1.6 1.6-3.8 1.6-5.7.7l-.7-.3c-3.4-1.6-6-3.2-7.3-7q-.9-3.8-1.5-7.7l-2.8-14.5-5-29.1-1.6-9.1a1165 1165 0 0 1-12.8-94.5q-1.6-21-3.5-42.2l-.9-10.5c-1.1-13.3-2.5-27-2.7-40.5l-4.5 1.6L657 964c-5.5 2-12.5 6-18.4 5.2q-4.2-.4-6.8-2.9 3 43.1 8.5 86a1966 1966 0 0 0 22 135l1.9 9.6c.5 3.7-.5 5.9-2.5 9-1.7 2.4-5 3.7-7.8 2-3.6-2.3-5.5-4.3-6.5-8.4q-1.4-5.6-2.3-11.4a1654 1654 0 0 1-11.4-65.2Q622 1044.7 618.5 966a1388 1388 0 0 1-1.4-77.8q0-20 1.4-39.9c1-13.4 3-26.5 4.8-39.8 0-.5.7-.5.7 0 .8 14.9 2.1 29.8 2.8 44.7l1.4 42.8q.9 28.1 2.7 56.2a10 10 0 0 1 8.5-3.1c4.7-1 9.7-3.4 14.1-5l16.8-5.5 26.4-8.7a679 679 0 0 1-18-80.8l-2-12.3c-4-24.2-8.5-48.5-15.8-72a230 230 0 0 0-34.8-68.2 370 370 0 0 0-52.7-55.3C557 627 539.7 614 523 600q.2 1.4 0 3a117 117 0 0 1-35.8 67.9c-37.7 36-93.6 43.4-142 26.5-46.7-16.3-88-55-102.6-102.8-.3-.8.8-1 1.3-.5l2.4 3.3q0-.7.7-1a129 129 0 0 0 46.6-29.2 100 100 0 0 0 21.3-33.3l.4-1c1.7-5 3.2-10.2 7-14.2" fill="black"/><use transform="matrix(.99789 0 0 1 6.3 -58)" href="#head-shaved1-a79e2904"/><use transform="translate(351 275)" href="#expression-old-a79e2904"/><use transform="translate(58 333)" href="#facialHair-full2-a79e2904"/><use transform="translate(207.5 331)" href="#mask-respirator-a79e2904"/><use transform="translate(190 243)" href="#accessories-sunglasses2-a79e2904"/></g></svg>