<svg xmlns="http://www.w3.org/2000/svg" viewBox="0 0 704 704" fill="none" shape-rendering="auto" aria-hidden="true" width="512" height="512"><metadata xmlns:rdf="http://www.w3.org/1999/02/22-rdf-syntax-ns#" xmlns:xsi="http://www.w3.org/2001/XMLSchema-instance" xmlns:dc="http://purl.org/dc/elements/1.1/" xmlns:dcterms="http://purl.org/dc/terms/"><rdf:RDF><rdf:Description><dc:title>Open Peeps</dc:title><dc:creator>Pablo Stanley</dc:creator><dc:source xsi:type="dcterms:URI">https://www.openpeeps.com/</dc:source><dcterms:license xsi:type="dcterms:URI">https://creativecommons.org/publicdomain/zero/1.0/</dcterms:license><dc:rights>Remix of “Open Peeps” (https://www.openpeeps.com/) by “Pablo Stanley”, licensed under “CC0 1.0” (https://creativecommons.org/publicdomain/zero/1.0/)</dc:rights></rdf:Description></rdf:RDF></metadata><defs><g id="head-medium1-a69e2771"><path fill-rule="evenodd" clip-rule="evenodd" d="M345.4 202.7c151.6-7.5 162.2 36.6 183 64.7 10.3 13.9 37 34.5 41.4 82.2 3 33-16.5 71.2-16.5 100.8 0 15 18.5 47.5 9.9 69.5-19.2 49-59.7 103.3-111.4 103.3-51.6 0-147-28.5-204-110.2-18.8-26.8-54-302.9 97.6-310.3" fill="#ffdbb4"/><path fill-rule="evenodd" clip-rule="evenodd" d="M566 453.3c-3.3-3.6-5.9-6.6-6.7-11.6q-.6-3.2-.6-6.4c13.3-18.6 26.2-62.5 26.2-86.5 0-33.9-12.5-66.4-33-93.4-40-52.5-106.5-79.4-171.6-77.3-62.3 2-128.6 25-167.5 74.1-129 163-20.8 341 58.6 378 6.9 3.3 29.2 2.2 26-4.7-8.9-19.8-16-56.2-17.5-64.4l7.6 5c4.6 3.1 10.7 6.6 16.4 5.6q.4 0 .4-.6c.3-5.4-3.5-10.9-7-14.7-4.6-5.3-9-10.8-14.1-15.8l-6.5-6.3q-.5-19 2.8-38.1c4-22 10.7-43.6 18.5-64.8q9.8-7.1 18.7-15.3a183 183 0 0 0 34-46.7l.4-.1q26.8-12.5 53.2-25.9l27-14 15-7.3q-2 10.5-5.4 20.5c-1.8 5.5 3.8 9.6 8.7 8.7a142 142 0 0 0 68-33.2 170 170 0 0 0 21.9 26q8 8 16.5 14.8c-2.6 17.9-4.8 35.7-7.6 53.5-1.5 9.3-3.3 18.6-4.4 28-1.2 10.2 2.2 17.4 8.9 24.9 9.4 10.4 9.4 25.5 5.8 38.4l-1.6 4.7-.6 1.5v.1l-1.4 3a258 258 0 0 1-50 68.6 156 156 0 0 1-31.2 24.3l-3.3 1.7-2 .9a48 48 0 0 1-8.6 2.5h-1.3a168 168 0 0 1-64.6-13 98 98 0 0 1-10.5-5.5q-2.2-1.5-4.5-2.8c-2.4-1.2-4.7-1.1-7.3-1.2-4-.2-6.7 4-5.8 7.5 1.2 4.4 3 7 6.8 9.6q4.6 3.1 9.5 5.6 10.7 5.5 22.2 9 21.6 6.9 44.1 8.4c10.9.7 20.3-.7 30.2-5.3 10.4-4.8 19.7-12 28.4-19.5 19.4-16.7 36.2-37 50.5-58.2 13.4-20 23.9-41.6 20.4-66.4a47 47 0 0 0-12-25.9" fill="black"/></g><g id="expression-contempt-a69e2771"><path fill-rule="evenodd" clip-rule="evenodd" d="M154.6 192.8a29 29 0 0 1-16 9.2 34 34 0 0 1-19.5-.9l-.5-.2c-4.6-1.8-9-5.7-10.6-9.6a7 7 0 0 1-.4-4.7 7 7 0 0 1 3-3.7q.6-.4 1.7-.2 1.3.2 2 1c2.7 2.7 6.4 5.4 11 5.4 3.4 0 6.2-1.4 8.9-3l2-1q2.6-1.7 5.8-2.5a14 14 0 0 1 11.2 3q1.9 1.7 2.4 3.7.3 1.8-1 3.5m-19.8-75.4c7.6 4.6 19 15.3 11 26.6-9.6 10-23.4-1.4-30.2-6.6-6.3-4-13.3 6.3-7.5 11 49 36.3 69-29.8 30.5-36.4-4.2-.8-5.8 4-3.8 5.4M49.6 46.8l2.2-.6 2.2-.6 1.5-.4c10.3-2.7 21.6-5 31.8-3.9 3.7.5 6.7 2.5 7.3 6.4.4 3.3-1.7 7.6-5.3 8.1-12 2-24.3 1.4-36.3 3.4l-17.9 3.3c-4.5.8-9.2 1.1-13.8 1.8l1 .2c.5 0 .4.6 0 .6q-2.2-.2-4.5 0H17c-1 .1-1.5-1-.7-1.6 5.6-3.8 10.3-8 16.6-10.7q8.1-3.6 16.6-6m93.6-5.8c7.9-8 24.7-4.9 34-1.2q8.2 2.9 14.8 8.6l.4.4.6.6c2.9 2.8 6 6.7 5.6 10.7q0 1.2-1 1.5c-3.8.7-7.5-1.3-11-2.5l-2.3-.8q-5.2-1.9-10.5-3.1-6.7-1.5-13.5-1.6c-4.6 0-9.5 1.4-14-.4-4.8-2-7.3-8-3.1-12.2m-78 64.4c-2 2-4.8 3.3-8.2 2.6-2.6-.6-7.7-3.3-11.7-7.4a20 20 0 0 1-5.8-10.4q-.2-1.5-1.3-2-.8-.4-2-.3-.9 0-1.8.6-1.4 1-1.4 2a24 24 0 0 0 5 16.8 38 38 0 0 0 16.2 12.8c7.2 2 14.7.4 20.2-4.6a36 36 0 0 0 8.8-14.4l.4-1 1.5-3.7q1.3-3.5-.3-6-1.7-2.7-5.3-3.4-3.2-.5-6 1.3a8 8 0 0 0-3 5.2c-.6 4-2.2 8.6-5 11.6zm122.2-23.2q-2.2-1.2-4.8-.5-1.6.5-2.8 1.6t-1.5 2.9q-1 4-4.1 6.8a8 8 0 0 1-6.5 1.7 13 13 0 0 1-8.3-6l-.2-.4q-1.2-2.3-3-3.8-.6-.7-1.7-.7h-.8c-2.7 2.8-3.2 4.8-3.1 6.8q.2 3.2 2.3 6.3c3.1 4.7 9.1 8.5 13.1 9.4 5.6 1.2 11-.3 15.5-3.4a22 22 0 0 0 9-13.7q.3-2-.4-4a6 6 0 0 0-2.7-3" fill="black"/></g><clipPath id="clip-a69e2771"><rect width="704" height="704" rx="0" ry="0"/></clipPath></defs><g clip-path="url(#clip-a69e2771)"><path fill-rule="evenodd" clip-rule="evenodd" d="M705.3 1074a2351 2351 0 0 1-15.6-101c-1-7.7-2.5-16.4 2.7-22 7.3-8 14-14.8 14.8-26.2.8-10.7-2.8-22.4-5-32.8a809 809 0 0 0-17.3-64.7q-10-32.5-21.3-64.6c-6.9-20-13.5-40.3-22.5-59.5-17-36.5-46-63.5-81.6-81.6-9-4.5-27-20.5-36.3-24-8.5-3.4-8.5 6.3-16.9 2.6-6.7-2.9-13-6.7-16.7-13.2-4-7-14.3-16.9-15.9-25-3.3-17.4.3-32.2-12-45.3a90 90 0 0 0-41.1-23.8c-33.7-9.3-78.5-2.8-98.8 28.5-9.7 14.9-13 33-26.2 45.1-11.4 10.7-8.8 18-23.6 23.4-.9.3-23.6-4.5-24.4-4.2-16.2-3.5-31.7 6.2-46.5 11.8a325 325 0 0 0-63 32.3 399 399 0 0 0-102.3 98.5 483 483 0 0 0-76.4 161c-1.7 6.4-3.5 13-1.5 19.4a25 25 0 0 0 9.8 12.4c6 4.3 18 7 17.7 15.7-.1 6.6-2.4 13.5-3.5 20q-1.9 11.6-3.4 23.2a1232 1232 0 0 0-10.3 106.6 920 920 0 0 0-.5 106q.2 3.5 2 6.2c-1 .4-1.2 2.4.1 2.7l2.7.5a12 12 0 0 0 7 2.4l5.5.2c19.3 4 38.6 7.9 58.1 10.8q35.7 5.2 71.5 8.7c49.2 4.8 98 3.2 147.1.6a1877 1877 0 0 1 147.4-2c49.2 1.4 98.4 3.5 147.6 4.4q82.5 1.6 164.8-5c7.5-.5 12.2-6.5 10.7-14-8.9-44.7-19-89.1-27-134" fill="#ffdbb4"/><path fill-rule="evenodd" clip-rule="evenodd" d="m201 597.5 1.2-.4c14.5-5.7 29.6-14.8 45.4-11.4.5-.2 10.8 1.9 17.9 3.2l-6.7 7L247 598q61 100.7 144.3 100.7T517.7 598l4-1q.7 0 1.5.4c9.3 3.6 27.4 19.6 36.3 24.1 35.6 18 64.5 45 81.6 81.6 8.7 18.6 15.2 38 21.8 57.5l.7 2q11.3 32.1 21.3 64.6 9.6 30.6 16.6 61.8l.7 2.9c2.2 10.4 5.8 22 5 32.8a29 29 0 0 1-3 10.7l-80.4 29 38.4 261.3q-52.7 2.3-105.5 1.3c-49.2-.9-98.4-3-147.6-4.3q-71.5-1.9-143 1.7l-12 .6a946 946 0 0 1-139.5-1l-3.1-.3v-38.3l16.3-212.9-83-15.6-81.3-39.5a22 22 0 0 1-5.6-8.8c-1.9-6-.5-12 1-18l.5-1.3a493 493 0 0 1 76.4-161A399 399 0 0 1 138 629.7q29.8-19.6 63-32.3" fill="#ffcf77"/><path fill-rule="evenodd" clip-rule="evenodd" d="M232.2 584.6c5.1-.3 10.3.6 15.4 1 .4.1.6.8 0 .9q-13.5 3-26.9 7.1l-3.8 1.2c-10 3-19.8 6-29.6 10a264 264 0 0 0-54.8 30.8C67.2 682.8 20 754.3-9.9 828.3a526 526 0 0 0-24.3 77c-.4 1.6-2 5.4-1 7 .7 1.3 3.6 2.1 5 2.9l4.5 2.3 25.2 12.9 2.3 1.1c38 18.6 78.4 34.4 121 35.5l.4-3.7a342 342 0 0 1 9.9-60c.3-1 1.6-.6 1.7.3 3 23.1 2 46.4 1 69.7-1.8 41-4.3 82.2-6.5 123.3l-3.9 61.7c-1.3 20.5-1.7 41.6-4.7 62-.6 4.6-6 7-10 6.6a9 9 0 0 1-8-9c0-11.9 1.5-24 2.4-35.8l2.5-33.8c3.1-41.1 6.8-82.2 10.2-123.3l3.8-43.7C76.4 979.8 34.2 963-6.1 943.5c-.6 13.2-2 26.5-3.4 39.6q-5.8 55.2-9.6 110.5a2254 2254 0 0 0-4.2 92.7l-.2 7c0 4.4-.5 8.5-4.3 11.7a9 9 0 0 1-12.6 0c-5-4.6-4.2-10.9-4-17.1a1676 1676 0 0 1 1.8-47.2 1321 1321 0 0 1 10.5-109.5l2-14a461 461 0 0 1 15.5-77.9q-4.6-2.2-9.3-4.7-8.4-4-16.6-8.4c-4.2-2.5-7.9-5.8-9-10.8-1.4-5.5.6-11.5 2-16.9v-.4a502 502 0 0 1 26.6-80 523 523 0 0 1 67.8-117 354 354 0 0 1 88.7-83.3 239 239 0 0 1 53.8-25.7 143 143 0 0 1 42.8-7.5m90.1-66c6-6.5 18.1.2 15.2 8.8a108 108 0 0 1-34.7 52A79 79 0 0 1 247 598l1.7 2.4a321 321 0 0 0 46.1 52.6c36 31.2 84.8 48 132 36 37.1-9.4 69.8-38.8 79.4-76.2q-2 1-4.8.5c-7.7-1.7-15.3-9.8-20.3-15.6q-8-9.3-12.6-20.7c-5.6-14-7.4-32.1.3-45.7 1-1.7 3-.7 3.3 1l.3 2.5c1.5 12.7 3.3 25 9.3 36.6a76 76 0 0 0 18.2 23.1c2.6 2 5.8 3.6 8.1 6l.5.4c.6-5 4.1-7.3 7.6-7.2a29 29 0 0 1 8.8 2.3l.1.1a341 341 0 0 1 65.1 42 259 259 0 0 1 88.4 129c7.5 25.3 11.8 51.4 16.3 77.4l2.8 16c4.2 23.9 8.9 48.4 18.4 70.7 2.5 5.7.6 11.1-5.5 13.4L688 953c3.7 16 6 32.5 8.7 48.5 6 34.1 13.2 68 19.4 102l9.3 52.3 4.7 25.2 2.4 13.6.1.7c.5 2.4 1 4.9.4 7.3-.8 2.7-2.9 4.6-4.8 6.6-1.6 1.6-3.8 1.6-5.7.7l-.7-.3c-3.4-1.6-6-3.2-7.3-7q-.9-3.8-1.5-7.7l-2.8-14.5-5-29.1-1.6-9.1a1165 1165 0 0 1-12.8-94.5q-1.6-21-3.5-42.2l-.9-10.5c-1.1-13.3-2.5-27-2.7-40.5l-4.5 1.6L657 964c-5.5 2-12.5 6-18.4 5.2q-4.2-.4-6.8-2.9 3 43.1 8.5 86a1966 1966 0 0 0 22 135l1.9 9.6c.5 3.7-.5 5.9-2.5 9-1.7 2.4-5 3.7-7.8 2-3.6-2.3-5.5-4.3-6.5-8.4q-1.4-5.6-2.3-11.4a1654 1654 0 0 1-11.4-65.2Q622 1044.7 618.5 966a1388 1388 0 0 1-1.4-77.8q0-20 1.4-39.9c1-13.4 3-26.5 4.8-39.8 0-.5.7-.5.7 0 .8 14.9 2.1 29.8 2.8 44.7l1.4 42.8q.9 28.1 2.7 56.2a10 10 0 0 1 8.5-3.1c4.7-1 9.7-3.4 14.1-5l16.8-5.5 26.4-8.7a679 679 0 0 1-18-80.8l-2-12.3c-4-24.2-8.5-48.5-15.8-72a230 230 0 0 0-34.8-68.2 370 370 0 0 0-52.7-55.3C557 627 539.7 614 523 600q.2 1.4 0 3a117 117 0 0 1-35.8 67.9c-37.7 36-93.6 43.4-142 26.5-46.7-16.3-88-55-102.6-102.8-.3-.8.8-1 1.3-.5l2.4 3.3q0-.7.7-1a129 129 0 0 0 46.6-29.2 100 100 0 0 0 21.3-33.3l.4-1c1.7-5 3.2-10.2 7-14.2" fill="black"/><use transform="matrix(.99789 0 0 1 6.3 -58)" href="#head-medium1-a69e2771"/><use transform="translate(351 275)" href="#expression-contempt-a69e2771"/></g></svg>