<svg xmlns="http://www.w3.org/2000/svg" viewBox="0 0 704 704" fill="none" shape-rendering="auto" aria-hidden="true" width="512" height="512"><metadata xmlns:rdf="http://www.w3.org/1999/02/22-rdf-syntax-ns#" xmlns:xsi="http://www.w3.org/2001/XMLSchema-instance" xmlns:dc="http://purl.org/dc/elements/1.1/" xmlns:dcterms="http://purl.org/dc/terms/"><rdf:RDF><rdf:Description><dc:title>Open Peeps</dc:title><dc:creator>Pablo Stanley</dc:creator><dc:source xsi:type="dcterms:URI">https://www.openpeeps.com/</dc:source><dcterms:license xsi:type="dcterms:URI">https://creativecommons.org/publicdomain/zero/1.0/</dcterms:license><dc:rights>Remix of “Open Peeps” (https://www.openpeeps.com/) by “Pablo Stanley”, licensed under “CC0 1.0” (https://creativecommons.org/publicdomain/zero/1.0/)</dc:rights></rdf:Description></rdf:RDF></metadata><defs><g id="head-noHair1-a49e244b"><path fill-rule="evenodd" clip-rule="evenodd" d="M552 344.2c-9-38.1-28.8-73.6-60.4-102.3-95.4-94.3-270.4-43.1-269.6 98.9a189 189 0 0 0-3.7 50.6c.4 7.2 3.6 17.2-.6 23.7-9.5 12.2-15 21.2-11.8 37.3a40 40 0 0 0 25.3 29.5c7.8 2.2 15.1 7 18 14.5 17.3 31.6 30.1 58 57.4 79.6 7 5.5 79.3 38.9 103 38.9 69.7 0 157.5-25.2 159-103 .2-17.1-2.8-34.4-4.7-51.4-4.5-38.7-3-78.8-11.8-116.3" fill="#d08b5b"/><path fill-rule="evenodd" clip-rule="evenodd" d="M550.5 325.1c0-.4.7-.5.8 0 2.6 9.1 4 18.5 6.1 27.8q3 13.5 5.3 27a1428 1428 0 0 1 7.6 51.5l.6 4.3c4 30.3 10.4 61.8 4.7 92.2-4.8 26-21 47-42 62.3a182 182 0 0 1-67.9 29.1c-25.6 5.7-56 7.4-77-11.4-8.3-7.5 3.1-22.5 12.2-15.7 21.3 16 48.4 11.3 72.4 5l.7-.3a148 148 0 0 0 59-28.5 84 84 0 0 0 28.7-62c.6-13.6-.6-27.2-2-40.7l-.1-1.5q-2.5-23-4.8-46.3-2.2-21-3.2-42.3l-.3-7.2c-.6-14.4-1.4-29-.8-43.3M300.9 205.6c34.6-18 74.4-24.4 113-18.4 37 5.8 71 25 96.4 52.4a158 158 0 0 1 30.5 45.8 117 117 0 0 1 9.3 40.3c.2 4.3-1.1 8.4-1 12.8 0 .7-1 .8-1.2.1-1.2-4.9-4-8.6-5.9-13.3q-2.1-5.2-4.5-10.3l-1.3-2.9q-6.1-12.7-13.2-24.7a175 175 0 0 0-35.4-43.6 153 153 0 0 0-89-38.6 163 163 0 0 0-98.2 23.5 152 152 0 0 0-62.7 78.5q-8.7 24.6-9.8 50.6-.4 13 .6 26.3l.3 4.1q.8 7.5-.1 14.9a37 37 0 0 1 16.3-1.5 20 20 0 0 1 16.9 11.9q.2.8-.6.6c-4.8-2.4-12.6-1.2-17.6 0q-7.9 2.1-14.5 6.7a38 38 0 0 0-16.4 24.6 32 32 0 0 0 9.1 26.5q5.3 5.6 12.2 8.7c5.7 2.3 11.2 2.3 16.2 6.1 3 2.4 2.3 6.5.2 9.2 10.5 11.5 19.8 24 30.3 35.6q7.2 8 14.3 16.2l1.7 2c4.7 5.7 12 11.6 14.2 18.7 1.3 4.4-3.4 10-8.1 8-7.3-3-12.5-11-17.4-17l-.4-.5q-7.6-9.5-14-20l-1.3-2.3a226 226 0 0 1-19.9-40l-1 .9c-7 5-17 1.1-24-2q-10-4.8-17.3-13.2a50 50 0 0 1-11.5-43 51 51 0 0 1 24-32.6 47 47 0 0 1-9.4-23.2A143 143 0 0 1 209 351a180 180 0 0 1 15.2-62.6c15.4-35.4 42.5-65 76.8-82.8m-73 236a35 35 0 0 1 21.1 1.3 47 47 0 0 1 18 15.4c5.6 7.3-9 15.3-12.6 5.6v-.3q-1.6-4.4-5-8.3-1 1.6-2.6 2.5c-1.3.6-3.2.1-3.5-1.5-.4-1.8 0-4 1-5.5l.2-.2c-5-4-11.1-7-16.5-8-.6 0-.6-1 0-1" fill="black"/></g><g id="expression-eatingHappy-a49e244b"><path fill-rule="evenodd" clip-rule="evenodd" d="M90.1 169.3c5.6-9.2 17.6 13.3 18.8 17.2q1.8 5.2 2.3 10.5 6.5 1.5 13.3.1c6.6-1.2 10.6-4.8 16.3-7.8 4-2.1 9 .3 11 3.8 2.5 4.1 1 8.4-2.2 11.5-6 5.8-18 7.1-25.9 5.6q-6.8-1.4-12.3-5l-.1 1.3v.8c-.7 6.5-2.5 14.6-7.5 18.8-8.2 6.8-18.3-6.4-10.3-13.3l.2-.2c5-4 6-14.7 5.8-20.7q-.3-5.8-2.1-11.4l-.3-.8c-.3-1-4.3-10.9-5.8-9.6-.6.8-1.6 0-1.2-.8m44.7-52c7.6 4.7 19 15.4 11 26.7-9.6 10-23.4-1.4-30.2-6.6-6.3-4-13.3 6.3-7.5 11 49 36.3 69-29.8 30.5-36.4-4.2-.8-5.8 4-3.8 5.4M54.2 75a28 28 0 0 1 21 4.9l.5.3c5.9 4.3 12.5 11.9 9 19.3-1.3 3-5.3 3.4-8 2-4.2-2.2-5-7.7-8.8-10.8-3.1-2.5-7.4-4-11.4-3.6-9.5.8-15.3 10.2-18.3 18.3-.4 1-1.9 1.4-2.5.3-7-13 5.4-28.3 18.5-30.7m118.2-5c14.1-1.1 30.7 13.5 27 28.5-1.8 7.1-12.5 7-14.3 0-1-3.9-1-7.3-3.7-10.4a11 11 0 0 0-9-4 16 16 0 0 0-10 5c-2.5 2.3-4 5.9-6.4 8q-1.2.9-2 0c-4.4-4-1.8-12.2 1-16.4 3.8-6 10.2-10 17.4-10.7M27.3 48.5c9-8 25.5-15.8 37.7-11.9 7 2.3 10.1 13.6 2.3 17.2-9.1 4.2-19.6 2.5-28.8 6.8q-6.1 2.5-10.3 7.4c-2.1 2.6-4.3 6-7.4 7.6q-1.4.7-2.5-.4c-6.8-7.6 3-21.5 9-26.7m129.5-12.3a40 40 0 0 1 33.6 6.3l.6.4c5 3.8 11.1 9.4 10.8 16.1-.3 5.7-6.2 9.5-11.4 6.6-4.2-2.5-6.1-7.3-9.7-10.5a33 33 0 0 0-22.5-8.7c-3.4 0-6.8 1-10 1.4.2.5-2.4.3-4-.2-1-.5-1-1.9-.6-2.8 1.9-4.5 8.8-7.3 13.2-8.6" fill="black"/></g><clipPath id="clip-a49e244b"><rect width="704" height="704" rx="0" ry="0"/></clipPath></defs><g clip-path="url(#clip-a49e244b)"><path fill-rule="evenodd" clip-rule="evenodd" d="M705.3 1074a2351 2351 0 0 1-15.6-101c-1-7.7-2.5-16.4 2.7-22 7.3-8 14-14.8 14.8-26.2.8-10.7-2.8-22.4-5-32.8a809 809 0 0 0-17.3-64.7q-10-32.5-21.3-64.6c-6.9-20-13.5-40.3-22.5-59.5-17-36.5-46-63.5-81.6-81.6-9-4.5-27-20.5-36.3-24-8.5-3.4-8.5 6.3-16.9 2.6-6.7-2.9-13-6.7-16.7-13.2-4-7-14.3-16.9-15.9-25-3.3-17.4.3-32.2-12-45.3a90 90 0 0 0-41.1-23.8c-33.7-9.3-78.5-2.8-98.8 28.5-9.7 14.9-13 33-26.2 45.1-11.4 10.7-8.8 18-23.6 23.4-.9.3-23.6-4.5-24.4-4.2-16.2-3.5-31.7 6.2-46.5 11.8a325 325 0 0 0-63 32.3 399 399 0 0 0-102.3 98.5 483 483 0 0 0-76.4 161c-1.7 6.4-3.5 13-1.5 19.4a25 25 0 0 0 9.8 12.4c6 4.3 18 7 17.7 15.7-.1 6.6-2.4 13.5-3.5 20q-1.9 11.6-3.4 23.2a1232 1232 0 0 0-10.3 106.6 920 920 0 0 0-.5 106q.2 3.5 2 6.2c-1 .4-1.2 2.4.1 2.7l2.7.5a12 12 0 0 0 7 2.4l5.5.2c19.3 4 38.6 7.9 58.1 10.8q35.7 5.2 71.5 8.7c49.2 4.8 98 3.2 147.1.6a1877 1877 0 0 1 147.4-2c49.2 1.4 98.4 3.5 147.6 4.4q82.5 1.6 164.8-5c7.5-.5 12.2-6.5 10.7-14-8.9-44.7-19-89.1-27-134" fill="#d08b5b"/><path fill-rule="evenodd" clip-rule="evenodd" d="m201 597.5 1.2-.4c14.5-5.7 29.6-14.8 45.4-11.4.5-.2 10.8 1.9 17.9 3.2l-6.7 7L247 598q61 100.7 144.3 100.7T517.7 598l4-1q.7 0 1.5.4c9.3 3.6 27.4 19.6 36.3 24.1 35.6 18 64.5 45 81.6 81.6 8.7 18.6 15.2 38 21.8 57.5l.7 2q11.3 32.1 21.3 64.6 9.6 30.6 16.6 61.8l.7 2.9c2.2 10.4 5.8 22 5 32.8a29 29 0 0 1-3 10.7l-80.4 29 38.4 261.3q-52.7 2.3-105.5 1.3c-49.2-.9-98.4-3-147.6-4.3q-71.5-1.9-143 1.7l-12 .6a946 946 0 0 1-139.5-1l-3.1-.3v-38.3l16.3-212.9-83-15.6-81.3-39.5a22 22 0 0 1-5.6-8.8c-1.9-6-.5-12 1-18l.5-1.3a493 493 0 0 1 76.4-161A399 399 0 0 1 138 629.7q29.8-19.6 63-32.3" fill="#ffcf77"/><path fill-rule="evenodd" clip-rule="evenodd" d="M232.2 584.6c5.1-.3 10.3.6 15.4 1 .4.1.6.8 0 .9q-13.5 3-26.9 7.1l-3.8 1.2c-10 3-19.8 6-29.6 10a264 264 0 0 0-54.8 30.8C67.2 682.8 20 754.3-9.9 828.3a526 526 0 0 0-24.3 77c-.4 1.6-2 5.4-1 7 .7 1.3 3.6 2.1 5 2.9l4.5 2.3 25.2 12.9 2.3 1.1c38 18.6 78.4 34.4 121 35.5l.4-3.7a342 342 0 0 1 9.9-60c.3-1 1.6-.6 1.7.3 3 23.1 2 46.4 1 69.7-1.8 41-4.3 82.2-6.5 123.3l-3.9 61.7c-1.3 20.5-1.7 41.6-4.7 62-.6 4.6-6 7-10 6.6a9 9 0 0 1-8-9c0-11.9 1.5-24 2.4-35.8l2.5-33.8c3.1-41.1 6.8-82.2 10.2-123.3l3.8-43.7C76.4 979.8 34.2 963-6.1 943.5c-.6 13.2-2 26.5-3.4 39.6q-5.8 55.2-9.6 110.5a2254 2254 0 0 0-4.2 92.7l-.2 7c0 4.4-.5 8.5-4.3 11.7a9 9 0 0 1-12.6 0c-5-4.6-4.2-10.9-4-17.1a1676 1676 0 0 1 1.8-47.2 1321 1321 0 0 1 10.5-109.5l2-14a461 461 0 0 1 15.5-77.9q-4.6-2.2-9.3-4.7-8.4-4-16.6-8.4c-4.2-2.5-7.9-5.8-9-10.8-1.4-5.5.6-11.5 2-16.9v-.4a502 502 0 0 1 26.6-80 523 523 0 0 1 67.8-117 354 354 0 0 1 88.7-83.3 239 239 0 0 1 53.8-25.7 143 143 0 0 1 42.8-7.5m90.1-66c6-6.5 18.1.2 15.2 8.8a108 108 0 0 1-34.7 52A79 79 0 0 1 247 598l1.7 2.4a321 321 0 0 0 46.1 52.6c36 31.2 84.8 48 132 36 37.1-9.4 69.8-38.8 79.4-76.2q-2 1-4.8.5c-7.7-1.7-15.3-9.8-20.3-15.6q-8-9.3-12.6-20.7c-5.6-14-7.4-32.1.3-45.7 1-1.7 3-.7 3.3 1l.3 2.5c1.5 12.7 3.3 25 9.3 36.6a76 76 0 0 0 18.2 23.1c2.6 2 5.8 3.6 8.1 6l.5.4c.6-5 4.1-7.3 7.6-7.2a29 29 0 0 1 8.8 2.3l.1.1a341 341 0 0 1 65.1 42 259 259 0 0 1 88.4 129c7.5 25.3 11.8 51.4 16.3 77.4l2.8 16c4.2 23.9 8.9 48.4 18.4 70.7 2.5 5.7.6 11.1-5.5 13.4L688 953c3.7 16 6 32.5 8.7 48.5 6 34.1 13.2 68 19.4 102l9.3 52.3 4.7 25.2 2.4 13.6.1.7c.5 2.4 1 4.9.4 7.3-.8 2.7-2.9 4.6-4.8 6.6-1.6 1.6-3.8 1.6-5.7.7l-.7-.3c-3.4-1.6-6-3.2-7.3-7q-.9-3.8-1.5-7.7l-2.8-14.5-5-29.1-1.6-9.1a1165 1165 0 0 1-12.8-94.5q-1.6-21-3.5-42.2l-.9-10.5c-1.1-13.3-2.5-27-2.7-40.5l-4.5 1.6L657 964c-5.5 2-12.5 6-18.4 5.2q-4.2-.4-6.8-2.9 3 43.1 8.5 86a1966 1966 0 0 0 22 135l1.9 9.6c.5 3.7-.5 5.9-2.5 9-1.7 2.4-5 3.7-7.8 2-3.6-2.3-5.5-4.3-6.5-8.4q-1.4-5.6-2.3-11.4a1654 1654 0 0 1-11.4-65.2Q622 1044.7 618.5 966a1388 1388 0 0 1-1.4-77.8q0-20 1.4-39.9c1-13.4 3-26.5 4.8-39.8 0-.5.7-.5.7 0 .8 14.9 2.1 29.8 2.8 44.7l1.4 42.8q.9 28.1 2.7 56.2a10 10 0 0 1 8.5-3.1c4.7-1 9.7-3.4 14.1-5l16.8-5.5 26.4-8.7a679 679 0 0 1-18-80.8l-2-12.3c-4-24.2-8.5-48.5-15.8-72a230 230 0 0 0-34.8-68.2 370 370 0 0 0-52.7-55.3C557 627 539.7 614 523 600q.2 1.4 0 3a117 117 0 0 1-35.8 67.9c-37.7 36-93.6 43.4-142 26.5-46.7-16.3-88-55-102.6-102.8-.3-.8.8-1 1.3-.5l2.4 3.3q0-.7.7-1a129 129 0 0 0 46.6-29.2 100 100 0 0 0 21.3-33.3l.4-1c1.7-5 3.2-10.2 7-14.2" fill="black"/><use transform="matrix(.99789 0 0 1 6.3 -58)" href="#head-noHair1-a49e244b"/><use transform="translate(351 275)" href="#expression-eatingHappy-a49e244b"/></g></svg>