<svg xmlns="http://www.w3.org/2000/svg" viewBox="0 0 704 704" fill="none" shape-rendering="auto" aria-hidden="true" width="512" height="512"><metadata xmlns:rdf="http://www.w3.org/1999/02/22-rdf-syntax-ns#" xmlns:xsi="http://www.w3.org/2001/XMLSchema-instance" xmlns:dc="http://purl.org/dc/elements/1.1/" xmlns:dcterms="http://purl.org/dc/terms/"><rdf:RDF><rdf:Description><dc:title>Open Peeps</dc:title><dc:creator>Pablo Stanley</dc:creator><dc:source xsi:type="dcterms:URI">https://www.openpeeps.com/</dc:source><dcterms:license xsi:type="dcterms:URI">https://creativecommons.org/publicdomain/zero/1.0/</dcterms:license><dc:rights>Remix of “Open Peeps” (https://www.openpeeps.com/) by “Pablo Stanley”, licensed under “CC0 1.0” (https://creativecommons.org/publicdomain/zero/1.0/)</dc:rights></rdf:Description></rdf:RDF></metadata><defs><g id="head-afro-1d98d298"><path fill-rule="evenodd" clip-rule="evenodd" d="M345.4 202.7c151.6-7.5 220 99.2 224.4 147 3 33-16.5 71.1-16.5 100.7 0 15 18.5 47.5 9.9 69.5-19.2 49-59.7 103.3-111.4 103.3-51.6 0-118.9 14.3-176-67.5-5.3-7.6-73-51.2-79.6-92.6-16.4-103.2 41-255.1 149.2-260.4" fill="#edb98a"/><path d="M338.3 136.3a28 28 0 0 1 22.6-8.2c11.9.7 22.1 8 33.9 8.5 12.3.6 24.2-3.7 36.5-1.7a33 33 0 0 1 20 10.6c16.8-4.8 35 1.6 45.7 15.5 13.2-2 27.6 6.7 31.6 19.4 16.8.5 32.6 14 34.5 30.9a27 27 0 0 1 16 12.5 38 38 0 0 1 4.1 23.2c8 4 12 12.7 13 21.8 7.2 5.4 10.3 15 8.9 24.2 5.5 3.1 8.3 10.3 8.3 16.8 0 6-1.6 11.4.6 17.2a25 25 0 0 1 1.7 15l-.2.5-.5 2.5q2.3 2 3.7 4.9c3.5 7 3 15 .3 22 1.2 4.5 1 9.3-.7 13.6a25 25 0 0 1 4.4 16.1 26 26 0 0 1-8 16.8 30 30 0 0 1-9 25c.8 5.3 0 11-2.9 16q-3.2 5.5-8.2 8.2.3 4.4-1.2 9.2a29 29 0 0 1-6.9 11.3 25 25 0 0 1-17.5 28.1q-1.5.4-3 .4-2 17.1-8.1 33a131 131 0 0 1-55 65.3 113 113 0 0 1-40.5 14.4c-10.2 1.5-20 1-30.4 0q-19.4-1.6-38.4-6.5l-2-.5a57 57 0 0 1-15.2-5.8 20 20 0 0 1-8.8-13.7c-.6-3.2 1.4-6.6 4.8-6.6h2.5l.6-.1h.1l1-.2a22 22 0 0 1 10.8 1.1l.5.2a178 178 0 0 0 37.8 9h.6l.2.1h.1l2 .3 13 1.1c48.3 2.7 88.9-35.3 101.1-81a144 144 0 0 0 3.4-49.4q-.6-1.8-.6-4v-2.2c-1.6-16-4.4-32-6.2-48q-3.2-28-2.8-56.2.5-14 2.5-27.7l.5-3.3q-9-1.9-15.7-8c-9.4 5.5-21.6 6-31 .2a35 35 0 0 1-35.5.7 28 28 0 0 1-22.2 4.8q-5.4-1.3-10-4.8-3.3.6-6.6.4l-.4.3a33 33 0 0 1-28.8 1.6q-6.5 4-14 5c-7.3 1-15.2-.7-21.3-4.9a45 45 0 0 1-37 3.1 34 34 0 0 1-9.8 10.6q1.1 3.9.7 7.9a32 32 0 0 1-3.3 11.7 21 21 0 0 1 1.4 13.4 33 33 0 0 1-10.6 17.4 33 33 0 0 1-17.7 27.6q-.6.8-1.5 1.5c-6.2 5.7-16 5.3-23.7 2h-.5c-2.7.1-4.6-1-5.8-2.5l-3.3.4a47 47 0 0 0-12.4 4.1c-9.7 5-14.2 13.8-15.5 24.4a35 35 0 0 0 10.8 31c4.3 3.9 9.9 6.3 15.5 7.3 6.2 1 12.9-1.6 17.5 3.7q1.7 1.6 1 4c-1.5 4.4-4 6.1-8.1 6.8q8.6 10.4 18.4 19.7c7.1 6.7 14.5 13.2 21 20.6 6.7 7.8 12.9 16.1 17.2 25.6q3.5 8.3 6.5 16.7l.3 1c2.4 6 5.5 11.7 2 17.9-1.5 2.4-4.8 4.8-7.8 4.4-8.4-1.1-11.3-6.8-13.9-14.3-2-5.6-3.4-11.4-5.5-17l-1.3-3c-4.9 1.4-10.2.3-14.6-2.5a35 35 0 0 1-32.7-2.3l-1.3-.3a26 26 0 0 1-34.1-14.7c-6 0-12-2.2-16.3-6.5q-6-6.2-7-14.2a24 24 0 0 1-19.6-20.4c-6.3-1.9-12-6-15.1-11.8a22 22 0 0 1-2-16.4l-.3-.5c-6.5-3.4-11.5-9-12-17q-.2-3.3.7-6.7a20 20 0 0 1 .6-7 31 31 0 0 1-7.2-33.6 30 30 0 0 1-4.5-34.6 27 27 0 0 1-6.2-19 47 47 0 0 1 9.4-23.6c-3.6-4-5.5-9.6-5.4-15a31 31 0 0 1 9.5-20 34 34 0 0 1 11.6-37.1 19 19 0 0 1-2.3-13c1.3-8 7.3-13.5 13.9-17.9a19 19 0 0 1 1.2-13.8c2.9-6.2 8.3-10 14-13.4 1.6-13.6 16.8-25.3 29.6-18.2-3.2-10.2 6-21.2 16.4-22.3a34 34 0 0 1 38.8-21.5 32 32 0 0 1 36.3-10.7 51 51 0 0 1 48.3-7" fill="black"/><path d="M237.4 442.2c10-.6 17.4 7.5 22.6 15 5 7-7.7 14.3-11.4 6.6a38 38 0 0 0-4.8-8l-1 1.5-.2.5-.7 1-.2 1.1q-1.4 3.7-5 5c-3.2 1-6.2-1.3-7.2-4-1.6-4.5 2.1-8.4 6-10.1-3.8-.7-7.6.6-10.4 3.6-.3.4-1 0-1-.5-.3-7 7-11.4 13.3-11.7" fill="black"/></g><g id="expression-eyesClosed-1d98d298"><path fill-rule="evenodd" clip-rule="evenodd" d="m146.2 199 .7-.2c5.6-1.3 10.9-3 16 .4 5 3.2 5.6 9.2 1.8 13.6-4 4.6-9.2 4.3-14.7 4.4h-.3a135 135 0 0 1-26.5-2.2l-2.5-.5c-2.5-.5-5-1.2-6.3-3.6-2.3-4.3 14.6-7.7 16.7-8.2q7.5-2.1 15.1-3.7m9.4-51.6a23 23 0 0 1-10.2 5.9c-10 3-23 1.4-31.1-1.7q-2.7-1-4.3-3.5a6 6 0 0 1-.4-5q.2-.8.6-1.4a6 6 0 0 1 3.3-3 7 7 0 0 1 4.5-.3l.6.2c5.2 1.6 13.7 4.4 20.8 3.8 4.3-.3 8-1.8 10-5.7q1.3-3-.2-5.9a21 21 0 0 0-6.4-6.9c-3.3-2.4-6.7-3.3-10.3-4.3l-4-1.2q-.8-.3-1.2-.8-.5-.7-.6-1.3 0-.8.3-1.4t1-1c7-3 16-1 22.8 4q5.3 3.7 8 9a17 17 0 0 1 1.7 10.6q-1.1 6.2-4.9 9.9M41.1 77.6c2-1 3.6 3.1 4 4.2l.9 2.3a26 26 0 0 0 5.7 10.2c2.4 2.3 6.3 4.3 9 1.6s1.4-5.4 1.8-8.6c.7-5.6 8.4-11.3 13-5.4C86 95.3 69.9 113.8 55 110.5a23 23 0 0 1-16.2-15l-.1-.3C37 90.6 35.6 80 41 77.6m135.1 9.2c-5-11.4 12.7-16.2 14.3-6v.6c1.5 11.3-1.6 26.5-15.4 27.7-15.6 1.2-22-16.1-20.6-28.8.2-2.3 3-2.6 3.8-.6l.2.5c2.5 6.4 4.9 18.7 13.7 18.7 6 0 5.7-8 4-12M187.5 54c9-.3 9 13.7 0 13.9-29.8.7-59.6 1.6-89.4 1.8h-5.5c-28 .2-56 .6-84-1.8-2.4-.2-2-3.5 0-3.4 29.3-4.2 59-5.4 88.5-7 30-1.6 60.3-2.4 90.4-3.5" fill="black"/></g><clipPath id="clip-1d98d298"><rect width="704" height="704" rx="0" ry="0"/></clipPath></defs><g clip-path="url(#clip-1d98d298)"><path fill-rule="evenodd" clip-rule="evenodd" d="M705.3 1074a2351 2351 0 0 1-15.6-101c-1-7.7-2.5-16.4 2.7-22 7.3-8 14-14.8 14.8-26.2.8-10.7-2.8-22.4-5-32.8a809 809 0 0 0-17.3-64.7q-10-32.5-21.3-64.6c-6.9-20-13.5-40.3-22.5-59.5-17-36.5-46-63.5-81.6-81.6-9-4.5-27-20.5-36.3-24-8.5-3.4-8.5 6.3-16.9 2.6-6.7-2.9-13-6.7-16.7-13.2-4-7-14.3-16.9-15.9-25-3.3-17.4.3-32.2-12-45.3a90 90 0 0 0-41.1-23.8c-33.7-9.3-78.5-2.8-98.8 28.5-9.7 14.9-13 33-26.2 45.1-11.4 10.7-8.8 18-23.6 23.4-.9.3-23.6-4.5-24.4-4.2-16.2-3.5-31.7 6.2-46.5 11.8a325 325 0 0 0-63 32.3 399 399 0 0 0-102.3 98.5 483 483 0 0 0-76.4 161c-1.7 6.4-3.5 13-1.5 19.4a25 25 0 0 0 9.8 12.4c6 4.3 18 7 17.7 15.7-.1 6.6-2.4 13.5-3.5 20q-1.9 11.6-3.4 23.2a1232 1232 0 0 0-10.3 106.6 920 920 0 0 0-.5 106q.2 3.5 2 6.2c-1 .4-1.2 2.4.1 2.7l2.7.5a12 12 0 0 0 7 2.4l5.5.2c19.3 4 38.6 7.9 58.1 10.8q35.7 5.2 71.5 8.7c49.2 4.8 98 3.2 147.1.6a1877 1877 0 0 1 147.4-2c49.2 1.4 98.4 3.5 147.6 4.4q82.5 1.6 164.8-5c7.5-.5 12.2-6.5 10.7-14-8.9-44.7-19-89.1-27-134" fill="#edb98a"/><path fill-rule="evenodd" clip-rule="evenodd" d="m201 597.5 1.2-.4c14.5-5.7 29.6-14.8 45.4-11.4.5-.2 10.8 1.9 17.9 3.2l-6.7 7L247 598q61 100.7 144.3 100.7T517.7 598l4-1q.7 0 1.5.4c9.3 3.6 27.4 19.6 36.3 24.1 35.6 18 64.5 45 81.6 81.6 8.7 18.6 15.2 38 21.8 57.5l.7 2q11.3 32.1 21.3 64.6 9.6 30.6 16.6 61.8l.7 2.9c2.2 10.4 5.8 22 5 32.8a29 29 0 0 1-3 10.7l-80.4 29 38.4 261.3q-52.7 2.3-105.5 1.3c-49.2-.9-98.4-3-147.6-4.3q-71.5-1.9-143 1.7l-12 .6a946 946 0 0 1-139.5-1l-3.1-.3v-38.3l16.3-212.9-83-15.6-81.3-39.5a22 22 0 0 1-5.6-8.8c-1.9-6-.5-12 1-18l.5-1.3a493 493 0 0 1 76.4-161A399 399 0 0 1 138 629.7q29.8-19.6 63-32.3" fill="#9ddadb"/><path fill-rule="evenodd" clip-rule="evenodd" d="M232.2 584.6c5.1-.3 10.3.6 15.4 1 .4.1.6.8 0 .9q-13.5 3-26.9 7.1l-3.8 1.2c-10 3-19.8 6-29.6 10a264 264 0 0 0-54.8 30.8C67.2 682.8 20 754.3-9.9 828.3a526 526 0 0 0-24.3 77c-.4 1.6-2 5.4-1 7 .7 1.3 3.6 2.1 5 2.9l4.5 2.3 25.2 12.9 2.3 1.1c38 18.6 78.4 34.4 121 35.5l.4-3.7a342 342 0 0 1 9.9-60c.3-1 1.6-.6 1.7.3 3 23.1 2 46.4 1 69.7-1.8 41-4.3 82.2-6.5 123.3l-3.9 61.7c-1.3 20.5-1.7 41.6-4.7 62-.6 4.6-6 7-10 6.6a9 9 0 0 1-8-9c0-11.9 1.5-24 2.4-35.8l2.5-33.8c3.1-41.1 6.8-82.2 10.2-123.3l3.8-43.7C76.4 979.8 34.2 963-6.1 943.5c-.6 13.2-2 26.5-3.4 39.6q-5.8 55.2-9.6 110.5a2254 2254 0 0 0-4.2 92.7l-.2 7c0 4.4-.5 8.5-4.3 11.7a9 9 0 0 1-12.6 0c-5-4.6-4.2-10.9-4-17.1a1676 1676 0 0 1 1.8-47.2 1321 1321 0 0 1 10.5-109.5l2-14a461 461 0 0 1 15.5-77.9q-4.6-2.2-9.3-4.7-8.4-4-16.6-8.4c-4.2-2.5-7.9-5.8-9-10.8-1.4-5.5.6-11.5 2-16.9v-.4a502 502 0 0 1 26.6-80 523 523 0 0 1 67.8-117 354 354 0 0 1 88.7-83.3 239 239 0 0 1 53.8-25.7 143 143 0 0 1 42.8-7.5m90.1-66c6-6.5 18.1.2 15.2 8.8a108 108 0 0 1-34.7 52A79 79 0 0 1 247 598l1.7 2.4a321 321 0 0 0 46.1 52.6c36 31.2 84.8 48 132 36 37.1-9.4 69.8-38.8 79.4-76.2q-2 1-4.8.5c-7.7-1.7-15.3-9.8-20.3-15.6q-8-9.3-12.6-20.7c-5.6-14-7.4-32.1.3-45.7 1-1.7 3-.7 3.3 1l.3 2.5c1.5 12.7 3.3 25 9.3 36.6a76 76 0 0 0 18.2 23.1c2.6 2 5.8 3.6 8.1 6l.5.4c.6-5 4.1-7.3 7.6-7.2a29 29 0 0 1 8.8 2.3l.1.1a341 341 0 0 1 65.1 42 259 259 0 0 1 88.4 129c7.5 25.3 11.8 51.4 16.3 77.4l2.8 16c4.2 23.9 8.9 48.4 18.4 70.7 2.5 5.7.6 11.1-5.5 13.4L688 953c3.7 16 6 32.5 8.7 48.5 6 34.1 13.2 68 19.4 102l9.3 52.3 4.7 25.2 2.4 13.6.1.7c.5 2.4 1 4.9.4 7.3-.8 2.7-2.9 4.6-4.8 6.6-1.6 1.6-3.8 1.6-5.7.7l-.7-.3c-3.4-1.6-6-3.2-7.3-7q-.9-3.8-1.5-7.7l-2.8-14.5-5-29.1-1.6-9.1a1165 1165 0 0 1-12.8-94.5q-1.6-21-3.5-42.2l-.9-10.5c-1.1-13.3-2.5-27-2.7-40.5l-4.5 1.6L657 964c-5.5 2-12.5 6-18.4 5.2q-4.2-.4-6.8-2.9 3 43.1 8.5 86a1966 1966 0 0 0 22 135l1.9 9.6c.5 3.7-.5 5.9-2.5 9-1.7 2.4-5 3.7-7.8 2-3.6-2.3-5.5-4.3-6.5-8.4q-1.4-5.6-2.3-11.4a1654 1654 0 0 1-11.4-65.2Q622 1044.7 618.5 966a1388 1388 0 0 1-1.4-77.8q0-20 1.4-39.9c1-13.4 3-26.5 4.8-39.8 0-.5.7-.5.7 0 .8 14.9 2.1 29.8 2.8 44.7l1.4 42.8q.9 28.1 2.7 56.2a10 10 0 0 1 8.5-3.1c4.7-1 9.7-3.4 14.1-5l16.8-5.5 26.4-8.7a679 679 0 0 1-18-80.8l-2-12.3c-4-24.2-8.5-48.5-15.8-72a230 230 0 0 0-34.8-68.2 370 370 0 0 0-52.7-55.3C557 627 539.7 614 523 600q.2 1.4 0 3a117 117 0 0 1-35.8 67.9c-37.7 36-93.6 43.4-142 26.5-46.7-16.3-88-55-102.6-102.8-.3-.8.8-1 1.3-.5l2.4 3.3q0-.7.7-1a129 129 0 0 0 46.6-29.2 100 100 0 0 0 21.3-33.3l.4-1c1.7-5 3.2-10.2 7-14.2" fill="black"/><use transform="matrix(.99789 0 0 1 6.3 -58)" href="#head-afro-1d98d298"/><use transform="translate(351 275)" href="#expression-eyesClosed-1d98d298"/></g></svg>