<svg xmlns="http://www.w3.org/2000/svg" viewBox="0 0 704 704" fill="none" shape-rendering="auto" aria-hidden="true" width="512" height="512"><metadata xmlns:rdf="http://www.w3.org/1999/02/22-rdf-syntax-ns#" xmlns:xsi="http://www.w3.org/2001/XMLSchema-instance" xmlns:dc="http://purl.org/dc/elements/1.1/" xmlns:dcterms="http://purl.org/dc/terms/"><rdf:RDF><rdf:Description><dc:title>Open Peeps</dc:title><dc:creator>Pablo Stanley</dc:creator><dc:source xsi:type="dcterms:URI">https://www.openpeeps.com/</dc:source><dcterms:license xsi:type="dcterms:URI">https://creativecommons.org/publicdomain/zero/1.0/</dcterms:license><dc:rights>Remix of “Open Peeps” (https://www.openpeeps.com/) by “Pablo Stanley”, licensed under “CC0 1.0” (https://creativecommons.org/publicdomain/zero/1.0/)</dc:rights></rdf:Description></rdf:RDF></metadata><defs><g id="head-twists2-8fa041d3"><path fill-rule="evenodd" clip-rule="evenodd" d="M558 372c-3.6-29.6-15.3-61-27.6-88.6C503 225 439.7 217 383.1 204.9c-55.8-8.1-115-15.5-170 .8-30.9 7.5-43 44.4-38 73.4 2.7 18.1 11 35.3 18 52 14 34.5 22.8 71.4 22.9 108.7-1 24.4-4.4 52.3 23.6 62.6 26.6 13.3 28.9 49.2 62.3 69.6 13.5 27.3 50.3 29.8 76.7 36q25.2 5 50.7 7.2c49 6.3 88.4-8 114.1-51.7 17.2-26.7 30-57.4 26.9-89.7-3.2-34-8.4-67.8-12.2-101.7" fill="#694d3d"/><path fill-rule="evenodd" clip-rule="evenodd" d="M383.6 134c2.8-3.2 7-2.1 9.7.4q2.6.7 5 2.2 5.4-.5 10.6-.3l2.8-1.3c7-2.5 13.2-1.2 18.3 2.2a12 12 0 0 1 17.8.5 13 13 0 0 1 10-5.6c6-.5 11.9 2 16.7 5.7q4.4-4.9 11-5 4.4-.8 8.4.4 6 1.9 10.1 6.3c4.3-4.2 9.6-7.1 15.7-6.7 7.9.6 14.4 6.4 17.5 13.5a40 40 0 0 1 14.4 9.6l.6.7q3.3 1.2 6.2 3.5c5.8 4.8 7 11.8 5.2 18.7l.7 3.4a18 18 0 0 1 13.2 9 24 24 0 0 1-1 23.1 31 31 0 0 1-6.7 7.5 19 19 0 0 1-3.2 19.7 26 26 0 0 1-4 5A16 16 0 0 1 555 264l-.5 1.3-.3.6-.2.9q-.3 3.6-2.5 7c-3.3 4.6-7.3 7.5-9.4 12.9l-.2.5c-1 2.6-3.9 4.4-6.4 3.6 14 28.6 21.3 60.5 26.3 91.7a790 790 0 0 1 6 47l1.5 15.6c1.4 13.9 2.6 27.8 2.6 41.7 0 31.6-9 61.9-28.4 87a131 131 0 0 1-73.5 47.7c-30.2 7-65.6 4.2-92.7-11.8-8-4.7-1-16 7.1-12.2a137 137 0 0 0 48.1 13.7c16.6 1.1 33.3-1 49-6.4A120 120 0 0 0 559 516c3.3-16.6 2.8-33.7 1.6-50.4v-1.2c-2.5-32.3-5.8-64.8-11-96.8q-7-42.4-21-83a50 50 0 0 0-11.9-7.8q-47.5-2.1-94.9 1.2a790 790 0 0 0-80.3 9.7l-2.9.5c-5.9 1-12.4 1.6-18 4-4.7 2-6.6 6-7.8 10.8-3 12.2-3.5 25.5-4 38-.5 12.2.6 24.5-.4 36.7a43 43 0 0 1-11 28c-4 3.9-8.8 6-13.3 9-3 1.8-4.2 3.8-3.9 7.3.9 7.6 7 17.3 0 23.8a3 3 0 0 1-4.4 0c-2.9-3-6.8-5.5-10.2-8-1.5-1-.3-3 1.3-2.3l6.5 3a41 41 0 0 0-26.6-7.6 166 166 0 0 1-15.6 6.4 38 38 0 0 0-13 35.3 28 28 0 0 0 11 19.6c7.5 5.1 17.6 3 25.8 6.7a35 35 0 0 1 15.8 18l1.5 3.1a99 99 0 0 0 39.7 46l1 .6c3.7 2.2 6.4 4.3 6.6 8.9q-.2 2.5-2.2 3.9c-5.6 3.5-11.2-1-15.9-4a115 115 0 0 1-35.7-38.3c-4.2-7.6-6.7-18.4-13.5-24.3-4.1-3.6-10-3.6-15.1-4.3-4.8-.6-9.4-1.6-13.7-4-17.4-9.6-22.3-33-18.2-51.1q1-4.5 3-9c-6.6 1.2-13.8-5.5-11.2-12.3l.6-1.5c-4.2-2.8-7.6-7-9.2-12.6q-1.2-4.4-.5-8.6-3.1-2.1-4.9-5.7c-3.4-1.6-6.5-4-8.3-7.3-2.5-4.7-2.2-9-.3-13l-.8-1.4c-7-4.5-12-12.2-11.4-20.8a21 21 0 0 1 2-7.6l-.3-1c-5.9-3-10.7-7.8-12.5-14.4-1.7-6.6.3-13.2 4.4-18.3-6-4.4-9.6-10.5-7.4-19.8q1.4-5.7 5.1-10.1v-.3l-.6-.4c-7.4-5.9-11.7-13.3-7.1-22.5q3.2-6 8.3-8.8l.2-.6c-2.4-5.2-3.3-11-1.6-17.2 1.4-5 4.7-9 8.9-11.7q-.5-3.4.2-7.3c.7-4.4 3-8.3 6.1-11l.4-1.7c1.1-3.5 3.1-7.3 5.5-10.1q2.8-3.3 6.7-3.3-.2-3.2.4-6.5a22 22 0 0 1 12.1-16.2q4-1.7 8.1-1.2c2.3-4.8 6.8-8.3 12.2-9q3.2-.5 6 0a34 34 0 0 1 5.4-2q3.9-4.8 9.8-7.3 6.9-2.4 13 0l1.4-.3q2.8-5.4 10.2-7.5c5.6-1.4 11.3.6 15.8 4.1 2.3-5.2 6.3-8.8 13-8.5 4 .1 7.8 2.2 10.7 5.1l4.8-.5q2.6-3 5.7-5.6c3.4-2.7 7.8-2.5 10.3 1.4l1.6 2.5 2.3-.1c2.7-3.7 6.5-6.2 11.5-6.4 4.7-.2 8 2 10.5 5.3l6.2-.1q3.7-4.2 8.5-7.3a7 7 0 0 1 8.2 1l3.8 4.4q4.7-5 11.5-6.4M236.4 451.5c4.7-2.7 11 .2 15.5 2.5 5.5 2.7 11 6.9 14.3 12 4.6 7.2-6.2 12.9-11 6.5-3-3.9-5.4-7.8-9-11.2-3.2-3.2-8-5.3-10-9.4q0-.3.2-.4m3.3-171.8v-.3c1.4-3.6-4.4-5.2-5.7-1.6-2 5.5.3 11.4 5.7 13.8 1.5.6 3.2.4 4-1.1.8-1.3.5-3.5-1-4.1q-4.5-2-3-6.7m-50-10.2c3-2.6-1.3-6.8-4.2-4.2-2.7 2.3-4.7 5.6-4.2 9.3s3.4 6.4 6.5 8.3c3.3 2 6.4-3.2 3-5.2l-.3-.2c-1.4-.8-3-2-3.3-3.7s1.3-3.2 2.5-4.3m16.5-45.2.2-.1c3.1-2.2.1-7.5-3-5.2-3 2-5.2 4.7-5.5 8.4-.2 3.6 1.6 6.7 4 9.3 2.7 2.8 7-1.5 4.3-4.3-2.6-2.7-3.1-5.7 0-8" fill="black"/></g><g id="expression-veryAngry-8fa041d3"><path fill-rule="evenodd" clip-rule="evenodd" d="M159.6 178.7a30 30 0 0 0-26.6.3 74 74 0 0 0-25.3 21.7q-4 5-7.8 10.3l-3.1 4.4-.7.8a27 27 0 0 0-4.8 8q-.6 1.5-.4 3l.5 1.3q-2 .5-2.9-.6-1.4-1.6-1.3-4.5c0-6.5 4.2-16 6-20l.4-1a76 76 0 0 1 30.7-36.5c13.7-7.6 29.9-9 44-1.8 15.7 7.9 20 23.6 21.7 39.7a8 8 0 0 1-2.5 6.5c-2 2-4.7 3.2-7.2 3.2q-4.1-.1-6.9-2.9a10 10 0 0 1-3-6.9v-1.5a37 37 0 0 0-2.4-14.8 18 18 0 0 0-8.4-8.7m-20.8-72.3c7.6 4.6 19 15.3 11 26.6-9.6 10-23.4-1.4-30.2-6.6-6.3-4-13.3 6.3-7.5 11 49 36.3 69-29.8 30.5-36.4-4.2-.8-5.8 4-3.8 5.4m-63.6 1.5a10 10 0 0 1-6.5 1q-3-.7-5.6-3.6c-2.3-2.7-4-6.5-3-10.1l.4-1q.6-1.5 1.6-3 .6-2.9.5-4.5v-1a20 20 0 0 1 1.4-6l-7.7-2.9a202 202 0 0 1-27.4-13l-5.7-4.1-1-.9-.6 1.3q-.9.7-1.4.4-.6-.1-1-.8a2.5 2.5 0 0 1 .7-3c1.8-1.5 4.3-.9 6.4-.5l.9.2 9.7 2 3.9 1 4.4 1c16.9 3.8 33.7 7.7 51 9.4l1.7.1q4.8.5 7.6 3.7 2.6 2.9 2.1 7.4a10 10 0 0 1-12.2 8.2l-16-4.6 1.3 3c1 2.5 2 5.2 2.1 8q.1 3.9-1.9 7a14 14 0 0 1-5.7 5.3m120.2-61.5q-2.1 2.6-4.4 5-4.8 5-10 9.6l-3.8 3.4-1.4 1.2-.8.7.6.7.5.6c2 3.2 3 6.6 4 10q1.2 3.6 2.6 7l.3.7q2 4.3 1 8.3a11 11 0 0 1-7.3 7.4q-4.5.9-8.2-1.2-3.5-2-4.9-6.2a44 44 0 0 1-1.8-14.6q-.7.8-1.6 1.2-2.9 1.5-5.9.6-3.4-1-5.7-3.8a9 9 0 0 1-2-5.7q.1-2.8 2.5-5.4l1.5-1.6q1.9-1.7 4.4-2.5a8 8 0 0 1 4.7 0c2-.5 3.2-1.1 4.4-1.7l2.3-1.1 10.4-4.6 9-3.9z" fill="black"/></g><clipPath id="clip-8fa041d3"><rect width="704" height="704" rx="0" ry="0"/></clipPath></defs><g clip-path="url(#clip-8fa041d3)"><path fill-rule="evenodd" clip-rule="evenodd" d="M705.3 1074a2351 2351 0 0 1-15.6-101c-1-7.7-2.5-16.4 2.7-22 7.3-8 14-14.8 14.8-26.2.8-10.7-2.8-22.4-5-32.8a809 809 0 0 0-17.3-64.7q-10-32.5-21.3-64.6c-6.9-20-13.5-40.3-22.5-59.5-17-36.5-46-63.5-81.6-81.6-9-4.5-27-20.5-36.3-24-8.5-3.4-8.5 6.3-16.9 2.6-6.7-2.9-13-6.7-16.7-13.2-4-7-14.3-16.9-15.9-25-3.3-17.4.3-32.2-12-45.3a90 90 0 0 0-41.1-23.8c-33.7-9.3-78.5-2.8-98.8 28.5-9.7 14.9-13 33-26.2 45.1-11.4 10.7-8.8 18-23.6 23.4-.9.3-23.6-4.5-24.4-4.2-16.2-3.5-31.7 6.2-46.5 11.8a325 325 0 0 0-63 32.3 399 399 0 0 0-102.3 98.5 483 483 0 0 0-76.4 161c-1.7 6.4-3.5 13-1.5 19.4a25 25 0 0 0 9.8 12.4c6 4.3 18 7 17.7 15.7-.1 6.6-2.4 13.5-3.5 20q-1.9 11.6-3.4 23.2a1232 1232 0 0 0-10.3 106.6 920 920 0 0 0-.5 106q.2 3.5 2 6.2c-1 .4-1.2 2.4.1 2.7l2.7.5a12 12 0 0 0 7 2.4l5.5.2c19.3 4 38.6 7.9 58.1 10.8q35.7 5.2 71.5 8.7c49.2 4.8 98 3.2 147.1.6a1877 1877 0 0 1 147.4-2c49.2 1.4 98.4 3.5 147.6 4.4q82.5 1.6 164.8-5c7.5-.5 12.2-6.5 10.7-14-8.9-44.7-19-89.1-27-134" fill="#694d3d"/><path fill-rule="evenodd" clip-rule="evenodd" d="m201 597.5 1.2-.4c14.5-5.7 29.6-14.8 45.4-11.4.5-.2 10.8 1.9 17.9 3.2l-6.7 7L247 598q61 100.7 144.3 100.7T517.7 598l4-1q.7 0 1.5.4c9.3 3.6 27.4 19.6 36.3 24.1 35.6 18 64.5 45 81.6 81.6 8.7 18.6 15.2 38 21.8 57.5l.7 2q11.3 32.1 21.3 64.6 9.6 30.6 16.6 61.8l.7 2.9c2.2 10.4 5.8 22 5 32.8a29 29 0 0 1-3 10.7l-80.4 29 38.4 261.3q-52.7 2.3-105.5 1.3c-49.2-.9-98.4-3-147.6-4.3q-71.5-1.9-143 1.7l-12 .6a946 946 0 0 1-139.5-1l-3.1-.3v-38.3l16.3-212.9-83-15.6-81.3-39.5a22 22 0 0 1-5.6-8.8c-1.9-6-.5-12 1-18l.5-1.3a493 493 0 0 1 76.4-161A399 399 0 0 1 138 629.7q29.8-19.6 63-32.3" fill="#ffcf77"/><path fill-rule="evenodd" clip-rule="evenodd" d="M232.2 584.6c5.1-.3 10.3.6 15.4 1 .4.1.6.8 0 .9q-13.5 3-26.9 7.1l-3.8 1.2c-10 3-19.8 6-29.6 10a264 264 0 0 0-54.8 30.8C67.2 682.8 20 754.3-9.9 828.3a526 526 0 0 0-24.3 77c-.4 1.6-2 5.4-1 7 .7 1.3 3.6 2.1 5 2.9l4.5 2.3 25.2 12.9 2.3 1.1c38 18.6 78.4 34.4 121 35.5l.4-3.7a342 342 0 0 1 9.9-60c.3-1 1.6-.6 1.7.3 3 23.1 2 46.4 1 69.7-1.8 41-4.3 82.2-6.5 123.3l-3.9 61.7c-1.3 20.5-1.7 41.6-4.7 62-.6 4.6-6 7-10 6.6a9 9 0 0 1-8-9c0-11.9 1.5-24 2.4-35.8l2.5-33.8c3.1-41.1 6.8-82.2 10.2-123.3l3.8-43.7C76.4 979.8 34.2 963-6.1 943.5c-.6 13.2-2 26.5-3.4 39.6q-5.8 55.2-9.6 110.5a2254 2254 0 0 0-4.2 92.7l-.2 7c0 4.4-.5 8.5-4.3 11.7a9 9 0 0 1-12.6 0c-5-4.6-4.2-10.9-4-17.1a1676 1676 0 0 1 1.8-47.2 1321 1321 0 0 1 10.5-109.5l2-14a461 461 0 0 1 15.5-77.9q-4.6-2.2-9.3-4.7-8.4-4-16.6-8.4c-4.2-2.5-7.9-5.8-9-10.8-1.4-5.5.6-11.5 2-16.9v-.4a502 502 0 0 1 26.6-80 523 523 0 0 1 67.8-117 354 354 0 0 1 88.7-83.3 239 239 0 0 1 53.8-25.7 143 143 0 0 1 42.8-7.5m90.1-66c6-6.5 18.1.2 15.2 8.8a108 108 0 0 1-34.7 52A79 79 0 0 1 247 598l1.7 2.4a321 321 0 0 0 46.1 52.6c36 31.2 84.8 48 132 36 37.1-9.4 69.8-38.8 79.4-76.2q-2 1-4.8.5c-7.7-1.7-15.3-9.8-20.3-15.6q-8-9.3-12.6-20.7c-5.6-14-7.4-32.1.3-45.7 1-1.7 3-.7 3.3 1l.3 2.5c1.5 12.7 3.3 25 9.3 36.6a76 76 0 0 0 18.2 23.1c2.6 2 5.8 3.6 8.1 6l.5.4c.6-5 4.1-7.3 7.6-7.2a29 29 0 0 1 8.8 2.3l.1.1a341 341 0 0 1 65.1 42 259 259 0 0 1 88.4 129c7.5 25.3 11.8 51.4 16.3 77.4l2.8 16c4.2 23.9 8.9 48.4 18.4 70.7 2.5 5.7.6 11.1-5.5 13.4L688 953c3.7 16 6 32.5 8.7 48.5 6 34.1 13.2 68 19.4 102l9.3 52.3 4.7 25.2 2.4 13.6.1.7c.5 2.4 1 4.9.4 7.3-.8 2.7-2.9 4.6-4.8 6.6-1.6 1.6-3.8 1.6-5.7.7l-.7-.3c-3.4-1.6-6-3.2-7.3-7q-.9-3.8-1.5-7.7l-2.8-14.5-5-29.1-1.6-9.1a1165 1165 0 0 1-12.8-94.5q-1.6-21-3.5-42.2l-.9-10.5c-1.1-13.3-2.5-27-2.7-40.5l-4.5 1.6L657 964c-5.5 2-12.5 6-18.4 5.2q-4.2-.4-6.8-2.9 3 43.1 8.5 86a1966 1966 0 0 0 22 135l1.9 9.6c.5 3.7-.5 5.9-2.5 9-1.7 2.4-5 3.7-7.8 2-3.6-2.3-5.5-4.3-6.5-8.4q-1.4-5.6-2.3-11.4a1654 1654 0 0 1-11.4-65.2Q622 1044.7 618.5 966a1388 1388 0 0 1-1.4-77.8q0-20 1.4-39.9c1-13.4 3-26.5 4.8-39.8 0-.5.7-.5.7 0 .8 14.9 2.1 29.8 2.8 44.7l1.4 42.8q.9 28.1 2.7 56.2a10 10 0 0 1 8.5-3.1c4.7-1 9.7-3.4 14.1-5l16.8-5.5 26.4-8.7a679 679 0 0 1-18-80.8l-2-12.3c-4-24.2-8.5-48.5-15.8-72a230 230 0 0 0-34.8-68.2 370 370 0 0 0-52.7-55.3C557 627 539.7 614 523 600q.2 1.4 0 3a117 117 0 0 1-35.8 67.9c-37.7 36-93.6 43.4-142 26.5-46.7-16.3-88-55-102.6-102.8-.3-.8.8-1 1.3-.5l2.4 3.3q0-.7.7-1a129 129 0 0 0 46.6-29.2 100 100 0 0 0 21.3-33.3l.4-1c1.7-5 3.2-10.2 7-14.2" fill="black"/><use transform="matrix(.99789 0 0 1 6.3 -58)" href="#head-twists2-8fa041d3"/><use transform="translate(351 275)" href="#expression-veryAngry-8fa041d3"/></g></svg>