<svg xmlns="http://www.w3.org/2000/svg" viewBox="0 0 704 704" fill="none" shape-rendering="auto" aria-hidden="true" width="512" height="512"><metadata xmlns:rdf="http://www.w3.org/1999/02/22-rdf-syntax-ns#" xmlns:xsi="http://www.w3.org/2001/XMLSchema-instance" xmlns:dc="http://purl.org/dc/elements/1.1/" xmlns:dcterms="http://purl.org/dc/terms/"><rdf:RDF><rdf:Description><dc:title>Open Peeps</dc:title><dc:creator>Pablo Stanley</dc:creator><dc:source xsi:type="dcterms:URI">https://www.openpeeps.com/</dc:source><dcterms:license xsi:type="dcterms:URI">https://creativecommons.org/publicdomain/zero/1.0/</dcterms:license><dc:rights>Remix of “Open Peeps” (https://www.openpeeps.com/) by “Pablo Stanley”, licensed under “CC0 1.0” (https://creativecommons.org/publicdomain/zero/1.0/)</dc:rights></rdf:Description></rdf:RDF></metadata><defs><g id="head-bun-a19e1f92"><path fill-rule="evenodd" clip-rule="evenodd" d="M270.4 146.5c63-3.4 118.9-21.1 163.2 18.5 0 0 71.8-53.6 83.8-33.2 8 13.7-3.1 32-.2 49 19.5 33 18.4 89.2 19.5 102.4 2.8 33.1 20.2 157.9 20.2 187.5 0 15.1-12.4 54.7-20.2 76.8-17.3 49-50.3 74-104.4 74-54 0-142.4-45.2-170.7-85.3-2.5-3.5-18.5 6.7-35.3-11C208 505.7 198 469 198 447c0-27.8-18-47.1-15.9-82.8 4.7-79.5 21-214 88.3-217.8" fill="#ae5d29"/><path fill-rule="evenodd" clip-rule="evenodd" d="M517.4 131.6c8 13.7-3 32 0 49 7.4 12.7 11.9 29 14.6 44.8l-14.8 7.8-5.4.8q-132.4 19.5-169 35.1Q306 285 253.1 380l-1 2-7 47.2-32 9.8-15 7.1c-.4-27.3-18-46.6-16-81.9 4.7-79.5 21-214 88.4-217.8 63-3.4 118.8-21.1 163.2 18.5q71.7-53.6 83.7-33.2" fill="#e279c7"/><path fill-rule="evenodd" clip-rule="evenodd" d="M263.4 54h2.5l2.7.4a22 22 0 0 1 12 6.8l.2.3a31 31 0 0 1 4.1 3.7l.7-.6 2-1.6q4.6-4 10.4-5.6l.5-.1h.3q4.1-1.5 8.4-1.4 5.3-.2 10 1.7 5.8 2.5 10 7 2.6 2.3 5 5a38 38 0 0 1 8.6 14.9 171 171 0 0 1 27-1.3 132 132 0 0 1 45.9 9.9q5.4 2.2 10.4 5.5l2.8 1.7 4.1 2.5q4.8 3 9.2 7a100 100 0 0 1 10.9 10.2q9.4 5.2 17.2 13a128 128 0 0 1 28.2-11.9 99 99 0 0 1 18.8-3.5l4.1-.3 1.8-.2h1.5c.4-.1 1 .9 1 1.3l.1.3.9 1h.8c.7 0 1.6 1.3 2.1 1.9l.4.4a4 4 0 0 1 1 2l1.5 12.5q.2 4.6-.5 9.3l-1.2 9-2 6.3-.7 2.4q-2.4 8-5.7 15.4 2.4 2.7 4.5 5.6l1 1 .4-.3q.7-.2 1.1.4 4.7 4.5 6.9 10.6l.8 2 .5 1.1a74 74 0 0 1 4.1 16.9 312 312 0 0 1 5.5 22 5 5 0 0 1-.2 3l.9 1 1.6 1.5c2.7 2.7 5.5 5.6 7.5 8.8q2.9 5 5.3 10.4l.3.8.8 1.5a37 37 0 0 1 4 14.6 30 30 0 0 1-1.9 15.6 19 19 0 0 1-7.3 11.5q-1.3 1.2-2.7 2a8 8 0 0 1-6.8.9h-.3l-.8-.3q.8.5 0 1l-1.6.5q.4.5-.2.8-1.4.8-2.6.5l.2 1.4c1.3 10.5 2.5 12.6 3.5 24q1 17.2 3.3 34.5l.5 4.2a444 444 0 0 0 10 56.8q2.3 6.6 3 13.4a133 133 0 0 1 1.8 14.1q1.7 4.5 1.7 9.3.2 6.3-.5 12.6-.3 6.6-1.8 13a74 74 0 0 1-4.6 17 165 165 0 0 1-20.2 44q-7.4 11.8-16.4 22.4a153 153 0 0 1-67.7 45q-7.7 2.2-15.6 3.3a100 100 0 0 1-31.4-.5 96 96 0 0 1-19.5-4.7q-7.6-2.8-15-6.3-3.7-1.8-7.2-4.2a80 80 0 0 1-14.2-11.5q-.6-.7.4-1.2h.2l-.7-.7-.2-.1-.3-.3c-.4-.4 0-1.1.3-1.3h.5v-.2l-.1-.2h-.2q-.6-1 .4-1.4h1.3l.2.1-.4-.3q-.8-.8.3-1.3.9 0 1.7.3h.4l.6.3-1-1c-.4-.2 0-1 .3-1.2q.8-.3 1.6.3 1.5.2 2.5.9l3.7 3.3q1.2.4 2.1 1 2.2 2.2 4.5 4l1.1.8.6.4 6.6 3.9 24 8.1 1.2.3 7.7 1q7.8.8 15.4 0 5.9 0 11.4-1.2a106 106 0 0 0 18.7-4.9 141 141 0 0 0 29.3-15.3 181 181 0 0 0 19.8-17.5l.9-.8 5.3-6.3 1.6-1.9q9.9-12.3 17.7-26 7.8-13.5 13-28.3 1.5-5.2 2.8-10.6a58 58 0 0 0 3.3-15.8v-1.4l.1-.7a86 86 0 0 0 .6-8.4v-8.7l-.1-.8-.3-2-1.3-11.8-.6-4.5-.4-2.6-.2-1.5q-.7-4-1.7-8l-.3-1.1-1.8-8.8-2-8.6q-1.8-8.7-3.1-17.4a682 682 0 0 1-6.6-55.7q-1.2-13-1.3-26 0-.6.6-.9v-1.6c-.1-1.5-.1.3-.2-1.4v-5.3c-5.3.4-8.9 0-14-.2h-1q-7-.4-14-1.6 0 .4-.5.5h-1.4l.2.7q0 .4-.5.6h-1.3a30 30 0 0 1-10-1l-3-.8-7.5-2.4q-4-1-8-.1c-3 .7-5.4 2-8.5 1.2l-1.8-.7h-.8c-3.2-.5-6-2.5-9-3.6a5 5 0 0 0-3.2.2l-.3.2-1 .7-1.2 1.5-.6.7a15 15 0 0 1-3.6 3.4 9 9 0 0 1-6.2 2.6q-2 0-4-.7-7.6 2.5-15.3.4a22 22 0 0 1-8.3-3c-3.5 1.4-6.9 3.4-10.2 5l-.8.5A23 23 0 0 1 384 317a140 140 0 0 1-14.8-1.8l-.7-.1-2.4-.4-2-.4-1 .4c-8 3-16.7 5.4-24.8 3.3a22 22 0 0 1-10-3.9l-1.3-.8h-.1l-.1-.1a11 11 0 0 1-6.5-11.2q-.4-2.2 0-4.6l-4.3 5a334 334 0 0 0-15.7 20.1l-1 1.6q-4.2 5.8-7.6 11.8l-7.3 12q-4.8 5.3-9.4 11l-1.2 1.5-4.4 5.7q-4.6 5.6-7.6 12a117 117 0 0 0-5.8 12.3 97 97 0 0 0-5.2 20.7v1l-.3 3.5.7.5.7.3.6.1c1 .3 2.5 1 2.1 1.6l-1.9 3.7q.3.3.2.7l-4 7.4v.2l3.1 1.7q2.9 1.8 4.9 4.2 2.1 1.3 4 2.9a31 31 0 0 1 6.8 11.3q.5 1.5.5 3.3c-1.2 8.5-11 2.7-11.2 2a26 26 0 0 0-6.3-12.3l-.1-.1q-3-1.4-6-2.4l-1 .1q.4.8-.6 1.1-4.7 1-9.5.5l-4.9-.7q-3 1.2-5.7 3l-.6.4h-.1a39 39 0 0 0-11.5 15.8l-.3.7A56 56 0 0 0 216 500a316 316 0 0 0 10.1 15.2l3.4 4.5 6.9 6.8 3.1 1.7 1.3.4q3 1.5 6.4 1.6 4.5.2 8.6-1l.6-.3.4-.1q2.3-1.5 4.3-3.6.4-.4 1.5-.2l1-1.1q.4-.4.9 0c1-.2 3.5 1.3 2.8 2l-.3.6 1.3.7c2 .6 5.2 2.7 5 3.3h-.1q-.7 1.5-2 2.4l-.2.2-.6.4c.9.5 1.6 1.1 1.2 1.5l-.5 1 5 6.2q2.6 5.5 6.3 10.2 3 5.2 7.5 9.3l.7.7 6.7 4.5 1 .6c.5.3 1.4.7 1 1.5l-.2.2q2.2 1.5 4.6 2.7h.1c.6.5 1.4 1.2.6 1.7s-2.6-.8-3.5-1.4l-.6-.1.9.5.4.2c.4.3 2.1 1.4 1 1.9q-1 0-1.7-.5l-1.8-.9q.4.5-.3.8h-.5q1.8 1.2 3.7 2.1l.2.1c.5.4 1.3 1 .7 1.6s-2.6-.7-3-1l-1.5-.9-.4.1 1.3.8.6.4c.8.4 1.9 1 1.5 1.8-.4.7-1.6.1-2.3-.3l-.8-.5-.1-.1v.1c-.5.7-1.4.3-2 0l-.6-.4-2.6-1.6-1.3-.8a83 83 0 0 1-19.3-15.5q-6-7.2-10.3-15.6l.2-.6-1-2a30 30 0 0 1-14.7 0 37 37 0 0 1-15-6.1l-.7-.6q-2.8-1.5-5.2-3.6a87 87 0 0 1-14.8-16.1l-5.5-7.7a66 66 0 0 1-9.7-26.6 54 54 0 0 1 0-18.1l-1-.9q0 .5-.3.4l-2.3-2.3a53 53 0 0 1-14-32.6c-.7-5.2 0-10.2.7-15.3q0-.4.5-.7l.1-1.2a35 35 0 0 1-11-25.7q.3-4.9 2-9.3l.2-.3c-5.5-.9-9.9-4.8-13.2-9.6l-.8-.7c-6-5-10-12.2-12.8-19.7a46 46 0 0 1-3.9-13.9v-1a89 89 0 0 1-1.2-23 115 115 0 0 1-4-21.5v-.5l-.2-1v-.6a139 139 0 0 1 11-62.3l2.2-5.3.7-1.9c8-12.8 20-23.2 30-34.1 3.5-3.8-2.1-9.5-5.6-5.7-6.7 7.3-14 14.3-20.4 21.7a28 28 0 0 1-9.3-.8q-7-1.1-12.8-5.4c-5.2-2.4-9.7-7-10.1-13v-1.7q-.7-4.5 1.2-8.8a15 15 0 0 1 5.4-8l.1-.2.7-.6 1-.9a55 55 0 0 1-3.6-6.9 28 28 0 0 1-2.2-11.5l-.1-1.5q-.5-6.1 1.7-11.8l.3-.9 1-2.5q2.3-4.7 6.2-8a26 26 0 0 1 8-5.3c2.2-1.2 5-2.2 7.2-2.3h.8c.2-5.7 1-12 3.2-17.2q1.9-5.7 6.3-9.5 2.5-2.8 6.5-4.2l.5-.2h.1a17 17 0 0 1 7.7-1.6 17 17 0 0 1 10.6 2.9l1.5-2.6q2.9-4.6 7-8.3l1-.8 4-3.3q4.8-3.2 10.2-4.8 6.3-2.3 12.8-2h1.5q6.6.4 12.7 3 6.3 2.5 11.2 7 1-1.5 2.7-3l1-.8.7-.7q1.8-1.6 3.9-2.8 2.3-1.3 5-1.9 2.6-1 5.4-1m-20.6 412.3c.2 0 9.5 3.4 14 5.7h.3c5.3 2.7 8 4.6 12.7 8q.5.4.6 1c0 4.9-1.2 11-5.3 8.2l-1.8-1-1-.6q-13.5-8.4-28.6-13c-.7-.2 4.4-8 5.8-7.5-.8-.3 3.2-.8 3.3-.8m95-218.1-29.5 3a82 82 0 0 1-23.3-1.4l-4.2 2.8-15.9 12.1c-10.6 8.4-21 17.3-30.4 27a177 177 0 0 0-38.2 59.4q-1.1.6-1.5 2.4c-1.5 9-5.8 17.4-7.4 26.4-1.5 9 .5 16.5 6.1 23.6 1.2 1.5 3.7 1.4 5.2.4.3.7 1.8.6 2.4-2.4q3.8-3.9 6-9c1-2.6-.7-4.4-2.9-4.7a137 137 0 0 1 16.2-36.6 152 152 0 0 1 16.5-20.5l1.2-1.4q.3-.3 1 0l1-1.3q.7-.4 1 0c.7 0 1.8.6 2.2.8q1 .6.3 1.5l-.3.3q1.1.4 1.9 1c1.8.4 4.4 2.1 4 2.7l-2.8 3q1.3.8 1.1 1.3a123 123 0 0 0-33.2 71.4v.7c-.3 3.5-.3 13-.7 15.3a50 50 0 0 0 8.3 3.1l.8-.3a28 28 0 0 1 11.6-2h.6l2.1.1v-1.2q-.4-.1-.4-.5a66 66 0 0 1 2.3-26.2 107 107 0 0 1 5.1-15.6c6-14.4 14.6-27.4 23.2-40.4 6.3-9.4 12.2-19 18.8-28.4q8.2-12 17.5-23a235 235 0 0 1 23.3-24.2q10.1-8.8 21.6-15.8.5-.2 1.2.4l1.2-.8.6-.3q.3-.1.6.2l1.5-.8 1.2-.9q-8.5-.4-16.9-1.2m70.5-66.7q-6.7-1.3-13.7-.3-2.9.3-5.7 1 6.6 5.6 10 14c2.5 6-7.2 8.6-9.6 2.7-2.3-5.7-6.7-10-12-12.6l-3.3 2a36 36 0 0 0-10.6 14.3 41 41 0 0 0-1.5 8c-1 10.3 2 20.4 7 29.3h.3q6.8-3.7 14.2-6.3a133 133 0 0 1 40.1-18l1.2-.3 6.9-1.6 1.4-.2-.2-1.5a44 44 0 0 0-15.3-27v-.1q-2.6-1.5-5.3-2.4l-.7-.3zm-121.9-8.9a161 161 0 0 0-58.9 5.5l2.3 4.6q5.5 11.6 12.3 22.5a108 108 0 0 0 15.9 19.6q3 2.7 6.8 4.6 3 2.1 6.1 3.8l.8.4 7.5 2.9 1.2.3.6.2 1.2.2.8-.5.5-.2q.3 0 .4.3v.3l1-.6a31 31 0 0 0 9 2.2h.1v.1h1.1a82 82 0 0 0 22.6-1.5l31.6-3.4q.3 0 .3.3l.7-.1c1-.1 2 1.5 1.3 2l1.5 1.2h.3a44 44 0 0 1-3.4-8.9l-1-5.2a47 47 0 0 1-.6-8.5v-2.2l-6-2.1-17.6-2.2q-5.2.2-10.5.8-6 .5-11.9 1.3-.6 0-1.4-1l-1.7.2c-.9.1-1.8-1.6-.6-2l1.2-.5.7-.2h-.8q-1.5 0-2.8.3c-1.2.1-1-1.4-.1-1.8h.4c-.7-.5-1.3-1.7-.5-2l.2-.1 1.1-.5v-.3l-1.6.2c-.1 0 .6-1 1-1.3l.8-.2c0-.4.7-1.1 1-1.2a103 103 0 0 1 14.2-3.7q0-.3.3-.3a68 68 0 0 1 32.6 3.7l1 .4 2.8 1.1a40 40 0 0 1 2.1-6l-1-.5q-.3.7-.8.5-10.5-7-22-11.7a113 113 0 0 0-23.8-7.6q-9-2.4-18.3-3.2m229 16-2.6 4.2q-6.9 10.5-16.1 19.1a50 50 0 0 1 12.8 1.6q.3-.3.6-.2l.7.5a53 53 0 0 1 15.5 7v-4.6a82 82 0 0 0-6.3-20.5v-.5q-2-3.5-4.6-6.7m1.3-56.8-6.2 1.5q-5.8.9-11.2 3a188 188 0 0 0-14.7 6q-14 6.5-26.1 16.1l-1.5 1.2-5.2 4.9-5.2 5.6-6.5 6.7-1 1.5 1.1.4c1 .4.8 2.1-.1 1.9l-1-.3q.3.2.3.4c0 .5-.3 1.2-1 1l-.7-.3-.2 1h.2c.7.2 2 1.3 2 2q.2.9-.8 1l-1.3-.6q.5.5.5.8 0 1-1 1a7 7 0 0 1-2.4-1.3q-.3.5-.7.4l-.4-.1.3.3.2.2q4.1 4.4 7 9.8l.4-.3 2.8-2.2.3-.3.2-.2-2 .7c.1-.3.6-1 .8-1.1q4.4-3.9 9.5-6.6 3.1-2.1 6.9-3.6 8.6-3.9 17.6-6.6l2.7-.9q.3 0 .3.2l.4-.1c.9-.3 2.3 1.2 1.7 1.9l1 .9.2.2h.3c.7-.3 1.9.8 2.6 1.6l.6.6c.4.5 1.3 1.4.2 1.8l-1.2.4q0 .4-.5.7l-1.3.4.7.7.4.4c.5.5 1.5 1.5.6 2h-.1l-1.2.4q.2.6-.5 1-10.7 3.6-21 8.5-7.7 4.3-16.3 6.3c-.4.2-1.5-.5-1.9-1.2l-.8.2-.5.1a44 44 0 0 1 2.3 9.8l3.4-.2q11.7-.6 23.3.7a93 93 0 0 0 11.7-8.2 100 100 0 0 0 24-31q3.7-8 6-16.5a78 78 0 0 0 2.5-18.4v-.5q-.1-3-.5-5.7m-73.2 67-.8.2.4 1 1-.8q-.3 0-.6-.4m71.8-81.2q2.7-1 4.1-.3-2 0-4 .3" fill="black"/></g><g id="expression-smileBig-a19e1f92"><path fill-rule="evenodd" clip-rule="evenodd" d="M43.2 170.8c11-6.6 51.7-1.8 83.8 0 25.5 1.4 43.7-1.4 49.5 2.5 13.1 9 6.8 51.7-16 57.6-22.6 5.8-106.6 14-121 0-14.6-14-15.9-48.3 3.7-60.1" fill="white"/><path fill-rule="evenodd" clip-rule="evenodd" d="M57.3 159.5c17.2-2.1 33.8 3.1 50.6 5.8a236 236 0 0 0 32 3q.2-2.4 3-4c4-1.7 7.1-2.5 11.4-2.4q6 .3 11.9 1.3a37 37 0 0 1 19.4 9.4c12 11.8 10.1 30.9.9 43.8-19.2 26.7-54.1 28-84 27.6h-2.8c-27.3-.5-66.3 3.6-78.7-27.4a44 44 0 0 1 1.7-35.6c6.6-13 20.6-19.8 34.6-21.5m85.2 44.4h-.2q-18.9.7-37.8 1l2.3 17.3c.2 1.1.8 2.8.6 3.8v.4a4 4 0 0 1 2 2.2c9.8 0 20.3-.1 30.2-1.9v-.2q.4-1.9 1.5-2.7c.7-4 .6-8.4.9-12.4zM94.9 205q-13.5.3-27.1.2h-4.2q1.5 6.8 2.6 14c.9 4.8-3.4 8-7.2 7.8l1.3.2c11.6 1.6 23.7 1.2 35.5 1.2-.6-3.7-.4-8-.5-11v-.5zm-61.5-.8q.5 3.7 1.8 7c4 9.3 12.8 13.6 22.2 15.5q-2.7-.9-3.3-4.2A128 128 0 0 1 53 205q-9.9 0-19.6-.8m143.2-2c-4.7 1-10 .6-14.6.8l-12.9.5.6 8.8c.3 3.7.3 7.7 1 11.5a46 46 0 0 0 22.2-15.2q2.1-2.8 3.7-6.4M55.4 174.8a28 28 0 0 0-19 12.8 27 27 0 0 0-3.2 14q9.8-1 19.8-1.2l.1-3.6.1-3c.2-5.9.3-13.2 2.2-19m40 .7-3.3-.4c-9.5-1-19-2.2-28.4-1.6l-4.2.5c1.7 6 1.5 13.1 2.2 19.1l1 6.9h1.7q15.2-.9 30.5-1.4V191c.2-4.8-.1-10.3.6-15.4m47.6-.8a191 191 0 0 1-41.5 1.4l.5 6.2 1.3 12.4.5 3.6 37.5-1.9h1.7l.5-7q.5-6.9 1.3-13.8l-.4-.1zm4.4 1.7 1.2 19.6 8.3-.4 4-.2c5.4-.3 12.3-2 17.6-.4.4-4.8-1-9.5-5.3-12.7-7.7-5.7-17.3-3.7-25.8-5.9m-28.2-58.3c12.3-7 43-14.2 45 7.9 1 10.1-6.6 18.6-15.5 22.3l-.3.1c-8.3 3.4-23 7.3-30.1 0-6-6.2 2-17.2 9.3-12.2 3.9 2.6 11.9.7 16.1-.6h.3c4.6-1.4 10.7-5.7 8.8-11.3-1.7-5-8.8-6-13.3-6-6.7-.3-13.2 1.2-19.8 1.7-1 0-1.3-1.4-.5-2M170 82.6c16.7-.8 27 17.4 23.2 32.3-.6 2.6-3.5 5-6.3 4.8h-.7l-1-.2c-2.7-.8-5-3.5-4.8-6.4v-.8c.4-7-.4-15.1-8.7-16.8-7.1-1.5-11 5.3-11.2 11.6 0 1.1-1.2 2-2.2 1.3-5.2-3-6-9.3-4-14.6A17 17 0 0 1 170 82.6M46.4 86.5c12.2-4 25.2 2.4 31 13.1 2.2.6 4.2 2.2 4 4.6-.5 3.5-1.1 5.7-3.5 8.4-3.8 4.1-11 2-12.5-3.1v-.2c-1.9-6.6-9.1-11-15.7-8.7-7.8 2.7-7.5 10.9-13 15.6q-1 .9-2.1.3c-5.8-2.8-4.8-11.1-2.7-16 2.7-6.2 8-11.8 14.5-14M30 49.7c9.8-10 35.5-19.7 42.2-1.2 1.3 3.5-1.5 8.2-5.1 9-6 1.2-11.4-1.4-17.3-1a26 26 0 0 0-13.8 5c-10.7 8.3-13 22.3-20.5 32.9q-.8.7-1.1-.3A58 58 0 0 1 30 49.7m128-9.9a33 33 0 0 1 20.5 0 40 40 0 0 1 23 18.6c.8 1.5 1.7 4.4 2.6 6.2 5.1 3 7.3 9.7 2.7 14.5l-.2.3-.6.6a10 10 0 0 1-9.6 2.5c-7.5-2.2-8.4-8.1-11-14.4a26 26 0 0 0-8.3-10.6 40 40 0 0 0-32.6-5.4c-.5.1-1.1-.6-.8-1 2-2.6 3-4.6 5.7-6.6q4-3 8.6-4.7" fill="black"/></g><g id="accessories-glasses3-a19e1f92"><path fill-rule="evenodd" clip-rule="evenodd" d="M380.1 158.3c-6.7 9-19.2 12-30.7 11-24.8-2.4-32.6-30.6-33.5-52.6 16.7 4.7-1.4-28.5 55.6-32 20-1.8 14.5 10.3 23.4 19.2-.2 18.6-3.3 38.8-14.8 54.4M262 137c-14.7 68.6-95 52.3-103.4-9.6 7.8-5.5 5.7-19 15.4-24 15.3-9.8 34.5-9.4 52-9.1 22.2 1.5 28.5 10.7 40 20.8-.6 6.7-2.2 14.7-4 21.9m150-63.8-2.4-.4q-1-.5-2.3-.8-3-.7-6-1c-28.5-6.4-94.5 2.7-97.3 27-9 3-17 .4-27.4.6-8-33.5-146.6-28.8-153.3-8.6-6.5-2-16-1.5-23.3-1.8q-23.5-.6-46.6 4.4c-28.7 4.5-67.8 9.9-47.9 45.7 3.5 3.5 9.3.7 9.5-4-6.7-17 8.5-19 20.1-24a196 196 0 0 1 88.5-8.6c2.3 2.7 5.7 5 9.3 6.2 20 3.3 9.5 18.2 22.2 20.3-2.3 51.9 60.6 80.2 97 46.1 14.6-14.2 18.1-35.3 21.5-54.3a5 5 0 0 0 3.6-2.7c4.3-4.3 7-8.2 15.4-9.4s15 1.2 16 1.9l.7 1.3q.7 1 1.5 1.7c-8.4 51.6 31.7 84.2 72.2 57.5 17.5-16.6 21.3-41.9 22-64.5a7 7 0 0 0 3-7.7c-1-4.9 1.6-9 5.8-11.1 5.5-2.8 4.6-12.7-1.8-13.8" fill="black"/></g><clipPath id="clip-a19e1f92"><rect width="704" height="704" rx="0" ry="0"/></clipPath></defs><g clip-path="url(#clip-a19e1f92)"><path fill-rule="evenodd" clip-rule="evenodd" d="M705.3 1074a2351 2351 0 0 1-15.6-101c-1-7.7-2.5-16.4 2.7-22 7.3-8 14-14.8 14.8-26.2.8-10.7-2.8-22.4-5-32.8a809 809 0 0 0-17.3-64.7q-10-32.5-21.3-64.6c-6.9-20-13.5-40.3-22.5-59.5-17-36.5-46-63.5-81.6-81.6-9-4.5-27-20.5-36.3-24-8.5-3.4-8.5 6.3-16.9 2.6-6.7-2.9-13-6.7-16.7-13.2-4-7-14.3-16.9-15.9-25-3.3-17.4.3-32.2-12-45.3a90 90 0 0 0-41.1-23.8c-33.7-9.3-78.5-2.8-98.8 28.5-9.7 14.9-13 33-26.2 45.1-11.4 10.7-8.8 18-23.6 23.4-.9.3-23.6-4.5-24.4-4.2-16.2-3.5-31.7 6.2-46.5 11.8a325 325 0 0 0-63 32.3 399 399 0 0 0-102.3 98.5 483 483 0 0 0-76.4 161c-1.7 6.4-3.5 13-1.5 19.4a25 25 0 0 0 9.8 12.4c6 4.3 18 7 17.7 15.7-.1 6.6-2.4 13.5-3.5 20q-1.9 11.6-3.4 23.2a1232 1232 0 0 0-10.3 106.6 920 920 0 0 0-.5 106q.2 3.5 2 6.2c-1 .4-1.2 2.4.1 2.7l2.7.5a12 12 0 0 0 7 2.4l5.5.2c19.3 4 38.6 7.9 58.1 10.8q35.7 5.2 71.5 8.7c49.2 4.8 98 3.2 147.1.6a1877 1877 0 0 1 147.4-2c49.2 1.4 98.4 3.5 147.6 4.4q82.5 1.6 164.8-5c7.5-.5 12.2-6.5 10.7-14-8.9-44.7-19-89.1-27-134" fill="#ae5d29"/><path fill-rule="evenodd" clip-rule="evenodd" d="m201 597.5 1.2-.4c14.5-5.7 29.6-14.8 45.4-11.4.5-.2 10.8 1.9 17.9 3.2l-6.7 7L247 598q61 100.7 144.3 100.7T517.7 598l4-1q.7 0 1.5.4c9.3 3.6 27.4 19.6 36.3 24.1 35.6 18 64.5 45 81.6 81.6 8.7 18.6 15.2 38 21.8 57.5l.7 2q11.3 32.1 21.3 64.6 9.6 30.6 16.6 61.8l.7 2.9c2.2 10.4 5.8 22 5 32.8a29 29 0 0 1-3 10.7l-80.4 29 38.4 261.3q-52.7 2.3-105.5 1.3c-49.2-.9-98.4-3-147.6-4.3q-71.5-1.9-143 1.7l-12 .6a946 946 0 0 1-139.5-1l-3.1-.3v-38.3l16.3-212.9-83-15.6-81.3-39.5a22 22 0 0 1-5.6-8.8c-1.9-6-.5-12 1-18l.5-1.3a493 493 0 0 1 76.4-161A399 399 0 0 1 138 629.7q29.8-19.6 63-32.3" fill="#e279c7"/><path fill-rule="evenodd" clip-rule="evenodd" d="M232.2 584.6c5.1-.3 10.3.6 15.4 1 .4.1.6.8 0 .9q-13.5 3-26.9 7.1l-3.8 1.2c-10 3-19.8 6-29.6 10a264 264 0 0 0-54.8 30.8C67.2 682.8 20 754.3-9.9 828.3a526 526 0 0 0-24.3 77c-.4 1.6-2 5.4-1 7 .7 1.3 3.6 2.1 5 2.9l4.5 2.3 25.2 12.9 2.3 1.1c38 18.6 78.4 34.4 121 35.5l.4-3.7a342 342 0 0 1 9.9-60c.3-1 1.6-.6 1.7.3 3 23.1 2 46.4 1 69.7-1.8 41-4.3 82.2-6.5 123.3l-3.9 61.7c-1.3 20.5-1.7 41.6-4.7 62-.6 4.6-6 7-10 6.6a9 9 0 0 1-8-9c0-11.9 1.5-24 2.4-35.8l2.5-33.8c3.1-41.1 6.8-82.2 10.2-123.3l3.8-43.7C76.4 979.8 34.2 963-6.1 943.5c-.6 13.2-2 26.5-3.4 39.6q-5.8 55.2-9.6 110.5a2254 2254 0 0 0-4.2 92.7l-.2 7c0 4.4-.5 8.5-4.3 11.7a9 9 0 0 1-12.6 0c-5-4.6-4.2-10.9-4-17.1a1676 1676 0 0 1 1.8-47.2 1321 1321 0 0 1 10.5-109.5l2-14a461 461 0 0 1 15.5-77.9q-4.6-2.2-9.3-4.7-8.4-4-16.6-8.4c-4.2-2.5-7.9-5.8-9-10.8-1.4-5.5.6-11.5 2-16.9v-.4a502 502 0 0 1 26.6-80 523 523 0 0 1 67.8-117 354 354 0 0 1 88.7-83.3 239 239 0 0 1 53.8-25.7 143 143 0 0 1 42.8-7.5m90.1-66c6-6.5 18.1.2 15.2 8.8a108 108 0 0 1-34.7 52A79 79 0 0 1 247 598l1.7 2.4a321 321 0 0 0 46.1 52.6c36 31.2 84.8 48 132 36 37.1-9.4 69.8-38.8 79.4-76.2q-2 1-4.8.5c-7.7-1.7-15.3-9.8-20.3-15.6q-8-9.3-12.6-20.7c-5.6-14-7.4-32.1.3-45.7 1-1.7 3-.7 3.3 1l.3 2.5c1.5 12.7 3.3 25 9.3 36.6a76 76 0 0 0 18.2 23.1c2.6 2 5.8 3.6 8.1 6l.5.4c.6-5 4.1-7.3 7.6-7.2a29 29 0 0 1 8.8 2.3l.1.1a341 341 0 0 1 65.1 42 259 259 0 0 1 88.4 129c7.5 25.3 11.8 51.4 16.3 77.4l2.8 16c4.2 23.9 8.9 48.4 18.4 70.7 2.5 5.7.6 11.1-5.5 13.4L688 953c3.7 16 6 32.5 8.7 48.5 6 34.1 13.2 68 19.4 102l9.3 52.3 4.7 25.2 2.4 13.6.1.7c.5 2.4 1 4.9.4 7.3-.8 2.7-2.9 4.6-4.8 6.6-1.6 1.6-3.8 1.6-5.7.7l-.7-.3c-3.4-1.6-6-3.2-7.3-7q-.9-3.8-1.5-7.7l-2.8-14.5-5-29.1-1.6-9.1a1165 1165 0 0 1-12.8-94.5q-1.6-21-3.5-42.2l-.9-10.5c-1.1-13.3-2.5-27-2.7-40.5l-4.5 1.6L657 964c-5.5 2-12.5 6-18.4 5.2q-4.2-.4-6.8-2.9 3 43.1 8.5 86a1966 1966 0 0 0 22 135l1.9 9.6c.5 3.7-.5 5.9-2.5 9-1.7 2.4-5 3.7-7.8 2-3.6-2.3-5.5-4.3-6.5-8.4q-1.4-5.6-2.3-11.4a1654 1654 0 0 1-11.4-65.2Q622 1044.7 618.5 966a1388 1388 0 0 1-1.4-77.8q0-20 1.4-39.9c1-13.4 3-26.5 4.8-39.8 0-.5.7-.5.7 0 .8 14.9 2.1 29.8 2.8 44.7l1.4 42.8q.9 28.1 2.7 56.2a10 10 0 0 1 8.5-3.1c4.7-1 9.7-3.4 14.1-5l16.8-5.5 26.4-8.7a679 679 0 0 1-18-80.8l-2-12.3c-4-24.2-8.5-48.5-15.8-72a230 230 0 0 0-34.8-68.2 370 370 0 0 0-52.7-55.3C557 627 539.7 614 523 600q.2 1.4 0 3a117 117 0 0 1-35.8 67.9c-37.7 36-93.6 43.4-142 26.5-46.7-16.3-88-55-102.6-102.8-.3-.8.8-1 1.3-.5l2.4 3.3q0-.7.7-1a129 129 0 0 0 46.6-29.2 100 100 0 0 0 21.3-33.3l.4-1c1.7-5 3.2-10.2 7-14.2" fill="black"/><use transform="matrix(.99789 0 0 1 6.3 -58)" href="#head-bun-a19e1f92"/><use transform="translate(351 275)" href="#expression-smileBig-a19e1f92"/><use transform="translate(190 243)" href="#accessories-glasses3-a19e1f92"/></g></svg>