<svg xmlns="http://www.w3.org/2000/svg" viewBox="0 0 64 64" fill="none" shape-rendering="auto" aria-hidden="true"><metadata xmlns:rdf="http://www.w3.org/1999/02/22-rdf-syntax-ns#" xmlns:xsi="http://www.w3.org/2001/XMLSchema-instance" xmlns:dc="http://purl.org/dc/elements/1.1/" xmlns:dcterms="http://purl.org/dc/terms/"><rdf:RDF><rdf:Description><dc:title>Personas by Draftbit</dc:title><dc:creator>Draftbit - draftbit.com</dc:creator><dc:source xsi:type="dcterms:URI">https://personas.draftbit.com/</dc:source><dcterms:license xsi:type="dcterms:URI">https://creativecommons.org/licenses/by/4.0/</dcterms:license><dc:rights>Remix of “Personas by Draftbit” (https://personas.draftbit.com/) by “Draftbit - draftbit.com”, licensed under “CC BY 4.0” (https://creativecommons.org/licenses/by/4.0/)</dc:rights></rdf:Description></rdf:RDF></metadata><defs><g id="eyes-happy-1e98d42b"><path d="M6 3.25c1.33 0 2.28.71 2.71 2.01a.75.75 0 0 1-1.42.48c-.26-.7-.65-1-1.3-1-.69.01-1.08.3-1.3 1a.75.75 0 0 1-1.43-.48c.43-1.3 1.38-2 2.7-2.01m12.02 0c1.33 0 2.28.71 2.71 2.01a.75.75 0 0 1-1.42.48c-.23-.7-.62-1-1.3-1-.66.01-1.05.3-1.28 1a.75.75 0 0 1-1.4-.48c.43-1.3 1.38-2 2.7-2.01" fill="#1B0640"/></g><g id="hair-long-1e98d42b"><path fill-rule="evenodd" clip-rule="evenodd" d="M36.5 23.5q-2.7-3-3.97-7.47-2.8 3.42-8.03 3.97-8.75.91-14.95-2.82A14 14 0 0 0 8.5 22.5v1.03q-1.11.13-2 .73V23c0-9.11 7.16-16.5 16-16.5s16 7.39 16 16.5v1.26a4.5 4.5 0 0 0-2-.73zm2 8.24v6.6c0 7.32-4.61 13.52-11 15.68V41.58a14 14 0 0 0 8.42-9.08H36q1.4-.02 2.5-.76m-32 6.6c0 7.37 4.68 13.6 11.13 15.73l-.13-7.02v-5.47a14 14 0 0 1-8.42-9.08H9q-1.4-.02-2.5-.76z" fill="#f27d65"/><path d="M32.53 16.03a18.5 18.5 0 0 0 3.97 7.47v.03q1.11.13 2 .73V23c0-9.11-7.16-16.5-16-16.5s-16 7.39-16 16.5v1.26q.89-.6 2-.73V22.5q.02-2.84 1.05-5.32 6.2 3.74 14.95 2.82 5.22-.56 8.03-3.97" fill="white" opacity=".26" style="mix-blend-mode:overlay"/></g><g id="clothes-checkered-1e98d42b"><path d="M16 2.8v3a5 5 0 0 0 10 0v-3l6.65 2.05a9 9 0 0 1 6.35 8.6v4.35H3v-4.35a9 9 0 0 1 6.35-8.6z" fill="#7555ca"/><path d="m11 4.34-1.65.5A9 9 0 0 0 7 5.97V17.8h4zm4 13.46h4v-5.29a7 7 0 0 1-4-3.1zm8 0h4V9.4a7 7 0 0 1-4 3.11zm8 0h4V5.96l-.06-.04a9 9 0 0 0-2.3-1.07L31 4.35z" fill="black" opacity=".4" style="mix-blend-mode:overlay"/><path d="M3.4 10.8a9 9 0 0 1 2.53-4h8.14a7 7 0 0 0 2.03 4zm35.6 4v3H3v-3zm-2.93-8a9 9 0 0 1 2.53 4H25.9a7 7 0 0 0 2.03-4z" fill="white" opacity=".17" style="mix-blend-mode:lighten"/></g><g id="mouth-frown-1e98d42b"><path d="M1 2.67A1 1 0 0 0 2 4.4a6 6 0 0 1 3-.86 6 6 0 0 1 3 .86 1 1 0 0 0 1-1.73 8 8 0 0 0-4-1.13 8 8 0 0 0-4 1.13" fill="#1B0640"/></g><g id="nose-smallRound-1e98d42b"><path d="M4.29 1.99A.75.75 0 1 1 5.7 1.5c.23.7.62 1 1.3 1 .66 0 1.05-.3 1.28-1A.75.75 0 0 1 9.7 2c-.4 1.29-1.36 2-2.69 2S4.72 3.3 4.3 2" fill="black" opacity=".36" style="mix-blend-mode:overlay"/></g><g id="facialHair-beardMustache-1e98d42b"><path d="m8.47 6.76 2.43-.83A2.5 2.5 0 0 1 14 7.3a2.5 2.5 0 0 1 3.1-1.37l2.43.83A18.7 18.7 0 0 0 28 0v6.3a14 14 0 0 1-28 0V0c2.05 2.94 5 5.43 8.47 6.76" fill="#f27d65"/><mask id="facialHairBeardMustache-a" style="mask-type:luminance"><path d="m8.47 6.76 2.43-.83A2.5 2.5 0 0 1 14 7.3a2.5 2.5 0 0 1 3.1-1.37l2.43.83A18.7 18.7 0 0 0 28 0v6.3a14 14 0 0 1-28 0V0c2.05 2.94 5 5.43 8.47 6.76" fill="white"/></mask><g mask="url(#facialHairBeardMustache-a)"><path d="M28 .3v6a14 14 0 0 1-28 0V0c2.05 2.94 5 5.42 8.47 6.75l-2.8.97a1 1 0 0 0 .07 1.91l5.08 1.3A2.7 2.7 0 0 0 14 9.34a2.7 2.7 0 0 0 3.18 1.6l5.08-1.3a1 1 0 0 0 .08-1.92l-2.82-.97A18.7 18.7 0 0 0 28 0z" fill="white" opacity=".26" style="mix-blend-mode:overlay"/><path d="M18 10.72v.08a3 3 0 0 1-3 3h-2a3 3 0 0 1-3-3.08l.82.21A2.7 2.7 0 0 0 14 9.34a2.7 2.7 0 0 0 3.18 1.6z" fill="#FFFEFD"/></g></g><clipPath id="clip-1e98d42b"><rect width="64" height="64" rx="0" ry="0"/></clipPath></defs><g clip-path="url(#clip-1e98d42b)"><path d="M37 46.08V52a5 5 0 0 1-10 0v-5.92A14 14 0 0 1 18.58 37h-.08a4.5 4.5 0 0 1-.5-8.97V27a14 14 0 1 1 28 0v1.03a4.5 4.5 0 0 1-.58 8.97A14 14 0 0 1 37 46.08" fill="#eeb4a4"/><mask id="personas-a" style="mask-type:luminance"><path d="M37 46.08V52a5 5 0 0 1-10 0v-5.92A14 14 0 0 1 18.58 37h-.08a4.5 4.5 0 0 1-.5-8.97V27a14 14 0 1 1 28 0v1.03a4.5 4.5 0 0 1-.58 8.97A14 14 0 0 1 37 46.08" fill="white"/></mask><g mask="url(#personas-a)"><path d="M32 13a14 14 0 0 1 14 14v6a14 14 0 1 1-28 0v-6a14 14 0 0 1 14-14" fill="white" opacity=".36" style="mix-blend-mode:overlay"/></g><use transform="translate(20 24)" href="#eyes-happy-1e98d42b"/><use transform="translate(9.5 4.5)" href="#hair-long-1e98d42b"/><use transform="translate(11 46.2)" href="#clothes-checkered-1e98d42b"/><use transform="translate(27 37.46)" href="#mouth-frown-1e98d42b"/><use transform="translate(25 32.25)" href="#nose-smallRound-1e98d42b"/><use transform="translate(18 28.7)" href="#facialHair-beardMustache-1e98d42b"/></g></svg>