<svg xmlns="http://www.w3.org/2000/svg" viewBox="0 0 64 64" fill="none" shape-rendering="auto" aria-hidden="true"><metadata xmlns:rdf="http://www.w3.org/1999/02/22-rdf-syntax-ns#" xmlns:xsi="http://www.w3.org/2001/XMLSchema-instance" xmlns:dc="http://purl.org/dc/elements/1.1/" xmlns:dcterms="http://purl.org/dc/terms/"><rdf:RDF><rdf:Description><dc:title>Personas by Draftbit</dc:title><dc:creator>Draftbit - draftbit.com</dc:creator><dc:source xsi:type="dcterms:URI">https://personas.draftbit.com/</dc:source><dcterms:license xsi:type="dcterms:URI">https://creativecommons.org/licenses/by/4.0/</dcterms:license><dc:rights>Remix of “Personas by Draftbit” (https://personas.draftbit.com/) by “Draftbit - draftbit.com”, licensed under “CC BY 4.0” (https://creativecommons.org/licenses/by/4.0/)</dc:rights></rdf:Description></rdf:RDF></metadata><defs><g id="eyes-happy-a89e2a97"><path d="M6 3.25c1.33 0 2.28.71 2.71 2.01a.75.75 0 0 1-1.42.48c-.26-.7-.65-1-1.3-1-.69.01-1.08.3-1.3 1a.75.75 0 0 1-1.43-.48c.43-1.3 1.38-2 2.7-2.01m12.02 0c1.33 0 2.28.71 2.71 2.01a.75.75 0 0 1-1.42.48c-.23-.7-.62-1-1.3-1-.66.01-1.05.3-1.28 1a.75.75 0 0 1-1.4-.48c.43-1.3 1.38-2 2.7-2.01" fill="#1B0640"/></g><linearGradient id="hairFade-a" x1="8.5" y1="10.1" x2="8.5" y2="24.5" gradientUnits="userSpaceOnUse"><stop/><stop offset="1" stop-opacity=".01"/></linearGradient><g id="hair-fade-a89e2a97"><mask id="hairFade-b" style="mask-type:alpha"><path d="M16 10.1c.08 1.73.18 3.4-.4 4.67-.86 1.93-2.3 2.81-3.34 3.73-.7.61-2.44 2.49-3.76 6v-2A14 14 0 0 1 16 10.1m13 0a14 14 0 0 1 7.5 12.4v2c-1.32-3.51-3.06-5.39-3.76-6-1.05-.92-2.48-1.8-3.35-3.73-.57-1.27-.47-2.94-.4-4.67" fill="url(#hairFade-a)"/></mask><g mask="url(#hairFade-b)"><path d="m16 10.1.06 14.4H8.5l-.2-14.4zm20.5 14.4h-7.28L29 10.1h7.43z" fill="#dee1f5"/></g><path d="M14.8 15.45c0-3.6 2.72-6.63 6.3-7l9.4-.95a6.84 6.84 0 0 1-6.49 9h-8.14c-.58 0-1.05-.47-1.05-1.05" fill="#dee1f5"/></g><g id="clothes-small-a89e2a97"><path d="M32 17.8H10v-8A11 11 0 0 1 16 0v1.8a5 5 0 0 0 10 0V0a11 11 0 0 1 6 9.8z" fill="#f55d81"/><mask id="clothesSmall-a" style="mask-type:luminance"><path d="M32 17.8H10v-8A11 11 0 0 1 16 0v1.8a5 5 0 0 0 10 0V0a11 11 0 0 1 6 9.8z" fill="white"/></mask><g mask="url(#clothesSmall-a)"><path opacity=".14" d="M20.62 6.05 22 5.8l1.2.5L10 12.8z" fill="black"/><path d="M21-1.2h11v47H10v-33l13.34-6.58z" fill="white" opacity=".26" style="mix-blend-mode:overlay"/></g></g><g id="mouth-smirk-a89e2a97"><path d="M3.32 4.26a.75.75 0 1 1 .36-1.45c2.44.63 4.17.34 5.29-.8a.75.75 0 1 1 1.06 1.08C8.5 4.6 6.23 4.99 3.33 4.27" fill="#1B0640"/></g><g id="nose-mediumRound-a89e2a97"><path d="M3.25.75a.75.75 0 0 1 1.5 0c0 .84.91 1.75 2.25 1.75S9.25 1.6 9.25.75a.75.75 0 1 1 1.5 0C10.75 2.41 9.16 4 7 4S3.25 2.41 3.25.75" fill="black" opacity=".36" style="mix-blend-mode:overlay"/></g><clipPath id="clip-a89e2a97"><rect width="64" height="64" rx="0" ry="0"/></clipPath></defs><g clip-path="url(#clip-a89e2a97)"><path d="M37 46.08V52a5 5 0 0 1-10 0v-5.92A14 14 0 0 1 18.58 37h-.08a4.5 4.5 0 0 1-.5-8.97V27a14 14 0 1 1 28 0v1.03a4.5 4.5 0 0 1-.58 8.97A14 14 0 0 1 37 46.08" fill="#e7a391"/><mask id="personas-a" style="mask-type:luminance"><path d="M37 46.08V52a5 5 0 0 1-10 0v-5.92A14 14 0 0 1 18.58 37h-.08a4.5 4.5 0 0 1-.5-8.97V27a14 14 0 1 1 28 0v1.03a4.5 4.5 0 0 1-.58 8.97A14 14 0 0 1 37 46.08" fill="white"/></mask><g mask="url(#personas-a)"><path d="M32 13a14 14 0 0 1 14 14v6a14 14 0 1 1-28 0v-6a14 14 0 0 1 14-14" fill="white" opacity=".36" style="mix-blend-mode:overlay"/></g><use transform="translate(20 24)" href="#eyes-happy-a89e2a97"/><use transform="translate(9.5 4.5)" href="#hair-fade-a89e2a97"/><use transform="translate(11 46.2)" href="#clothes-small-a89e2a97"/><use transform="translate(27 37.46)" href="#mouth-smirk-a89e2a97"/><use transform="translate(25 32.25)" href="#nose-mediumRound-a89e2a97"/></g></svg>