<svg xmlns="http://www.w3.org/2000/svg" viewBox="0 0 64 64" fill="none" shape-rendering="auto" aria-hidden="true"><metadata xmlns:rdf="http://www.w3.org/1999/02/22-rdf-syntax-ns#" xmlns:xsi="http://www.w3.org/2001/XMLSchema-instance" xmlns:dc="http://purl.org/dc/elements/1.1/" xmlns:dcterms="http://purl.org/dc/terms/"><rdf:RDF><rdf:Description><dc:title>Personas by Draftbit</dc:title><dc:creator>Draftbit - draftbit.com</dc:creator><dc:source xsi:type="dcterms:URI">https://personas.draftbit.com/</dc:source><dcterms:license xsi:type="dcterms:URI">https://creativecommons.org/licenses/by/4.0/</dcterms:license><dc:rights>Remix of “Personas by Draftbit” (https://personas.draftbit.com/) by “Draftbit - draftbit.com”, licensed under “CC BY 4.0” (https://creativecommons.org/licenses/by/4.0/)</dc:rights></rdf:Description></rdf:RDF></metadata><defs><g id="eyes-open-92a0468c"><path d="M5.5 3a1.5 1.5 0 1 1 0 3 1.5 1.5 0 0 1 0-3m13 0a1.5 1.5 0 1 1 0 3 1.5 1.5 0 0 1 0-3" fill="#1B0640"/></g><g id="hair-beanie-92a0468c"><path d="M9.5 17.3a14 14 0 0 1 26 0l.24.2a1 1 0 0 1 .34.54l.62 2.64a.5.5 0 0 1-.77.52q-6.66-4.7-13.43-4.7T9.08 21.2a.5.5 0 0 1-.77-.52l.61-2.64a1 1 0 0 1 .34-.55z" fill="#E15C66"/><path d="M22.5 12.5c6.45 0 12.01 4.04 13.25 5q.25.21.33.53l.62 2.6c.1.46-.44.83-.83.57-2.31-1.52-7.8-4.7-13.37-4.7s-11.05 3.18-13.36 4.7c-.4.26-.93-.1-.82-.56l.6-2.6q.08-.32.34-.53c1.23-.95 6.8-4.99 13.24-4.99" fill="black" opacity=".26" style="mix-blend-mode:overlay"/></g><g id="clothes-small-92a0468c"><path d="M32 17.8H10v-8A11 11 0 0 1 16 0v1.8a5 5 0 0 0 10 0V0a11 11 0 0 1 6 9.8z" fill="#54d7c7"/><mask id="clothesSmall-a" style="mask-type:luminance"><path d="M32 17.8H10v-8A11 11 0 0 1 16 0v1.8a5 5 0 0 0 10 0V0a11 11 0 0 1 6 9.8z" fill="white"/></mask><g mask="url(#clothesSmall-a)"><path opacity=".14" d="M20.62 6.05 22 5.8l1.2.5L10 12.8z" fill="black"/><path d="M21-1.2h11v47H10v-33l13.34-6.58z" fill="white" opacity=".26" style="mix-blend-mode:overlay"/></g></g><g id="mouth-frown-92a0468c"><path d="M1 2.67A1 1 0 0 0 2 4.4a6 6 0 0 1 3-.86 6 6 0 0 1 3 .86 1 1 0 0 0 1-1.73 8 8 0 0 0-4-1.13 8 8 0 0 0-4 1.13" fill="#1B0640"/></g><g id="nose-wrinkles-92a0468c"><path opacity=".12" d="m3.4.8-.12.24q-.32 1.12-.2 1.97-.5.8-.87 1.48Q1.54 5.76.97 7.41a.5.5 0 0 1-.94-.32A21 21 0 0 1 3.39.8m7.2-.02.1.1q1.27 1.8 2 3.14.7 1.35 1.3 3.07a.5.5 0 0 1-.96.32A20 20 0 0 0 10.93 3q.1-.85-.2-1.96a1 1 0 0 0-.14-.26" fill="black"/><path d="M4.2.53a.75.75 0 0 0-.92.51q-.3 1.12-.2 1.97C3.32 4.6 4.69 5.5 7 5.5c2.33 0 3.7-.89 3.92-2.5q.1-.85-.2-1.96a.75.75 0 1 0-1.44.42C9.8 3.29 9.2 4 7 4s-2.8-.71-2.28-2.54a.75.75 0 0 0-.5-.93" fill="black" opacity=".36" style="mix-blend-mode:overlay"/></g><clipPath id="clip-92a0468c"><rect width="64" height="64" rx="0" ry="0"/></clipPath></defs><g clip-path="url(#clip-92a0468c)"><path d="M37 46.08V52a5 5 0 0 1-10 0v-5.92A14 14 0 0 1 18.58 37h-.08a4.5 4.5 0 0 1-.5-8.97V27a14 14 0 1 1 28 0v1.03a4.5 4.5 0 0 1-.58 8.97A14 14 0 0 1 37 46.08" fill="#d78774"/><mask id="personas-a" style="mask-type:luminance"><path d="M37 46.08V52a5 5 0 0 1-10 0v-5.92A14 14 0 0 1 18.58 37h-.08a4.5 4.5 0 0 1-.5-8.97V27a14 14 0 1 1 28 0v1.03a4.5 4.5 0 0 1-.58 8.97A14 14 0 0 1 37 46.08" fill="white"/></mask><g mask="url(#personas-a)"><path d="M32 13a14 14 0 0 1 14 14v6a14 14 0 1 1-28 0v-6a14 14 0 0 1 14-14" fill="white" opacity=".36" style="mix-blend-mode:overlay"/></g><use transform="translate(20 24)" href="#eyes-open-92a0468c"/><use transform="translate(9.5 4.5)" href="#hair-beanie-92a0468c"/><use transform="translate(11 46.2)" href="#clothes-small-92a0468c"/><use transform="translate(27 37.46)" href="#mouth-frown-92a0468c"/><use transform="translate(25 32.25)" href="#nose-wrinkles-92a0468c"/></g></svg>