<svg xmlns="http://www.w3.org/2000/svg" viewBox="0 0 64 64" fill="none" shape-rendering="auto" aria-hidden="true"><metadata xmlns:rdf="http://www.w3.org/1999/02/22-rdf-syntax-ns#" xmlns:xsi="http://www.w3.org/2001/XMLSchema-instance" xmlns:dc="http://purl.org/dc/elements/1.1/" xmlns:dcterms="http://purl.org/dc/terms/"><rdf:RDF><rdf:Description><dc:title>Personas by Draftbit</dc:title><dc:creator>Draftbit - draftbit.com</dc:creator><dc:source xsi:type="dcterms:URI">https://personas.draftbit.com/</dc:source><dcterms:license xsi:type="dcterms:URI">https://creativecommons.org/licenses/by/4.0/</dcterms:license><dc:rights>Remix of “Personas by Draftbit” (https://personas.draftbit.com/) by “Draftbit - draftbit.com”, licensed under “CC BY 4.0” (https://creativecommons.org/licenses/by/4.0/)</dc:rights></rdf:Description></rdf:RDF></metadata><defs><g id="eyes-glasses-93a0481f"><path d="M6 3a1.5 1.5 0 1 1 0 3 1.5 1.5 0 0 1 0-3m12 0a1.5 1.5 0 1 1 0 3 1.5 1.5 0 0 1 0-3" fill="#1B0640"/><path d="M9 8H3V2h6zm12 0h-6V2h6z" fill="white" opacity=".3"/><path d="M18 0q2.5 0 5 1.05l1 .53v1.58l-1 .52v3.16A3.1 3.1 0 0 1 20 10h-4c-1.66 0-3-1.41-3-3.16V3.16h-2v3.68A3.1 3.1 0 0 1 8 10H4c-1.66 0-3-1.41-3-3.16V3.68l-1-.52V1.58l1-.53A13 13 0 0 1 6 0c2.5 0 3.5 1.05 5 1.05h2c1.5 0 2.5-1.05 5-1.05M6 2.1q-1.5 0-3 .45v4.3c0 .57.45 1.04 1 1.04h4c.55 0 1-.47 1-1.05V2.8l-.76-.27A6 6 0 0 0 6 2.11m12 0c-.82 0-1.4.13-2.24.42L15 2.8v4.05c0 .58.45 1.05 1 1.05h4c.55 0 1-.47 1-1.05v-4.3q-1.5-.44-3-.44" fill="#1B0640"/></g><g id="hair-cap-93a0481f"><path opacity=".2" d="M22.5 14.5c3.88 0 7.55-.37 11 4.22l-1.9 6.5c-.61 1.22-1.64 1.55-2.46.79Q26 23.15 22.5 23.15T15.86 26c-.82.76-1.85.43-2.46-.8l-1.9-6.49c3.45-4.6 7.12-4.22 11-4.22" fill="black"/><path d="M19.8 8.7a3 3 0 0 1 5.4 0c6.1.96 10.82 5.24 11.3 12.72a28 28 0 0 0-3.96-1.3l-.94.6a2 2 0 0 1-2.46.46 13.9 13.9 0 0 0-13.28 0 2 2 0 0 1-2.46-.46l-.94-.6q-2.1.52-3.96 1.3c.48-7.48 5.2-11.76 11.3-12.71" fill="#F29C65"/><path d="M12.46 20.12q-2.1.52-3.96 1.3c.55-8.55 6.63-12.92 14-12.92s13.45 4.37 14 12.92a28 28 0 0 0-3.96-1.3l.96-.62q-5.18-4-11-4t-11 4z" fill="black" opacity=".28" style="mix-blend-mode:overlay"/><path d="m31.95 20.5-.35.22a2 2 0 0 1-2.46.46 13.9 13.9 0 0 0-13.28 0 2 2 0 0 1-2.46-.46l-.35-.23c.87.07 2.19-.47 2.8-.81a13.9 13.9 0 0 1 13.29 0c.62.34 1.94.88 2.8.81" fill="white" opacity=".2" style="mix-blend-mode:lighten"/></g><g id="clothes-squared-93a0481f"><path d="M16 2.8v3a5 5 0 0 0 10 0v-3l6.65 2.05a9 9 0 0 1 6.35 8.6v4.35H3v-4.35a9 9 0 0 1 6.35-8.6z" fill="#6dbb58"/></g><g id="mouth-smile-93a0481f"><path d="M1 4.4a1 1 0 1 1 1-1.73 6 6 0 0 0 3 .87 6 6 0 0 0 3-.87A1 1 0 1 1 9 4.4a8 8 0 0 1-4 1.14A8 8 0 0 1 1 4.4" fill="#1B0640"/></g><g id="nose-wrinkles-93a0481f"><path opacity=".12" d="m3.4.8-.12.24q-.32 1.12-.2 1.97-.5.8-.87 1.48Q1.54 5.76.97 7.41a.5.5 0 0 1-.94-.32A21 21 0 0 1 3.39.8m7.2-.02.1.1q1.27 1.8 2 3.14.7 1.35 1.3 3.07a.5.5 0 0 1-.96.32A20 20 0 0 0 10.93 3q.1-.85-.2-1.96a1 1 0 0 0-.14-.26" fill="black"/><path d="M4.2.53a.75.75 0 0 0-.92.51q-.3 1.12-.2 1.97C3.32 4.6 4.69 5.5 7 5.5c2.33 0 3.7-.89 3.92-2.5q.1-.85-.2-1.96a.75.75 0 1 0-1.44.42C9.8 3.29 9.2 4 7 4s-2.8-.71-2.28-2.54a.75.75 0 0 0-.5-.93" fill="black" opacity=".36" style="mix-blend-mode:overlay"/></g><g id="facialHair-goatee-93a0481f"><path fill-rule="evenodd" clip-rule="evenodd" d="M14 7.3c1.45 0 3.07.32 4.39.67a3.6 3.6 0 0 1 2.6 3.57v4.74a2.6 2.6 0 0 1-1.29 2.32c-1.3.73-3.42 1.7-5.56 1.7-2.15 0-4.4-.97-5.78-1.7A2.7 2.7 0 0 1 7 16.2v-4.66a3.6 3.6 0 0 1 2.61-3.57c1.32-.35 2.94-.67 4.4-.67m0 1.46c-1.51 0-3.05.33-4.1.62-.8.22-1.31.97-1.31 1.8v2.67c0 1.06.56 2.06 1.54 2.48 1.08.46 2.59.97 3.97.97s2.85-.5 3.9-.97a2.6 2.6 0 0 0 1.51-2.44v-2.7c0-.85-.52-1.61-1.33-1.82-1.08-.3-2.65-.63-4.17-.63" fill="#dee1f5"/></g><clipPath id="clip-93a0481f"><rect width="64" height="64" rx="0" ry="0"/></clipPath></defs><g clip-path="url(#clip-93a0481f)"><path d="M37 46.08V52a5 5 0 0 1-10 0v-5.92A14 14 0 0 1 18.58 37h-.08a4.5 4.5 0 0 1-.5-8.97V27a14 14 0 1 1 28 0v1.03a4.5 4.5 0 0 1-.58 8.97A14 14 0 0 1 37 46.08" fill="#b16a5b"/><mask id="personas-a" style="mask-type:luminance"><path d="M37 46.08V52a5 5 0 0 1-10 0v-5.92A14 14 0 0 1 18.58 37h-.08a4.5 4.5 0 0 1-.5-8.97V27a14 14 0 1 1 28 0v1.03a4.5 4.5 0 0 1-.58 8.97A14 14 0 0 1 37 46.08" fill="white"/></mask><g mask="url(#personas-a)"><path d="M32 13a14 14 0 0 1 14 14v6a14 14 0 1 1-28 0v-6a14 14 0 0 1 14-14" fill="white" opacity=".36" style="mix-blend-mode:overlay"/></g><use transform="translate(20 24)" href="#eyes-glasses-93a0481f"/><use transform="translate(9.5 4.5)" href="#hair-cap-93a0481f"/><use transform="translate(11 46.2)" href="#clothes-squared-93a0481f"/><use transform="translate(27 37.46)" href="#mouth-smile-93a0481f"/><use transform="translate(25 32.25)" href="#nose-wrinkles-93a0481f"/><use transform="translate(18 28.7)" href="#facialHair-goatee-93a0481f"/></g></svg>