<svg xmlns="http://www.w3.org/2000/svg" viewBox="0 0 64 64" fill="none" shape-rendering="auto" aria-hidden="true"><metadata xmlns:rdf="http://www.w3.org/1999/02/22-rdf-syntax-ns#" xmlns:xsi="http://www.w3.org/2001/XMLSchema-instance" xmlns:dc="http://purl.org/dc/elements/1.1/" xmlns:dcterms="http://purl.org/dc/terms/"><rdf:RDF><rdf:Description><dc:title>Personas by Draftbit</dc:title><dc:creator>Draftbit - draftbit.com</dc:creator><dc:source xsi:type="dcterms:URI">https://personas.draftbit.com/</dc:source><dcterms:license xsi:type="dcterms:URI">https://creativecommons.org/licenses/by/4.0/</dcterms:license><dc:rights>Remix of “Personas by Draftbit” (https://personas.draftbit.com/) by “Draftbit - draftbit.com”, licensed under “CC BY 4.0” (https://creativecommons.org/licenses/by/4.0/)</dc:rights></rdf:Description></rdf:RDF></metadata><defs><g id="eyes-open-8ea04040"><path d="M5.5 3a1.5 1.5 0 1 1 0 3 1.5 1.5 0 0 1 0-3m13 0a1.5 1.5 0 1 1 0 3 1.5 1.5 0 0 1 0-3" fill="#1B0640"/></g><g id="hair-extraLong-8ea04040"><path fill-rule="evenodd" clip-rule="evenodd" d="M36.5 23.5q-2.7-3-3.97-7.47-2.8 3.42-8.03 3.97-8.75.91-14.95-2.82A14 14 0 0 0 8.5 22.5v1.03q-1.11.13-2 .73V23c0-9.11 7.16-16.5 16-16.5s16 7.39 16 16.5v1.26a4.5 4.5 0 0 0-2-.73zm2 8.24v22.28h-11V41.58a14 14 0 0 0 8.42-9.08H36q1.4-.02 2.5-.76m-32 22.33h11.13l-.13-7.02v-5.47a14 14 0 0 1-8.42-9.08H9q-1.4-.02-2.5-.76z" fill="#f27d65"/><path d="M32.53 16.03a18.5 18.5 0 0 0 3.97 7.47v.03q1.11.13 2 .73V23c0-9.11-7.16-16.5-16-16.5s-16 7.39-16 16.5v1.26q.89-.6 2-.73V22.5q.02-2.84 1.05-5.32 6.2 3.74 14.95 2.82 5.22-.56 8.03-3.97" fill="white" opacity=".26" style="mix-blend-mode:overlay"/></g><g id="clothes-squared-8ea04040"><path d="M16 2.8v3a5 5 0 0 0 10 0v-3l6.65 2.05a9 9 0 0 1 6.35 8.6v4.35H3v-4.35a9 9 0 0 1 6.35-8.6z" fill="#e24553"/></g><g id="mouth-bigSmile-8ea04040"><path d="M2 1.54h6v1a3 3 0 0 1-6 0z" fill="white"/></g><g id="nose-smallRound-8ea04040"><path d="M4.29 1.99A.75.75 0 1 1 5.7 1.5c.23.7.62 1 1.3 1 .66 0 1.05-.3 1.28-1A.75.75 0 0 1 9.7 2c-.4 1.29-1.36 2-2.69 2S4.72 3.3 4.3 2" fill="black" opacity=".36" style="mix-blend-mode:overlay"/></g><clipPath id="clip-8ea04040"><rect width="64" height="64" rx="0" ry="0"/></clipPath></defs><g clip-path="url(#clip-8ea04040)"><path d="M37 46.08V52a5 5 0 0 1-10 0v-5.92A14 14 0 0 1 18.58 37h-.08a4.5 4.5 0 0 1-.5-8.97V27a14 14 0 1 1 28 0v1.03a4.5 4.5 0 0 1-.58 8.97A14 14 0 0 1 37 46.08" fill="#e5a07e"/><mask id="personas-a" style="mask-type:luminance"><path d="M37 46.08V52a5 5 0 0 1-10 0v-5.92A14 14 0 0 1 18.58 37h-.08a4.5 4.5 0 0 1-.5-8.97V27a14 14 0 1 1 28 0v1.03a4.5 4.5 0 0 1-.58 8.97A14 14 0 0 1 37 46.08" fill="white"/></mask><g mask="url(#personas-a)"><path d="M32 13a14 14 0 0 1 14 14v6a14 14 0 1 1-28 0v-6a14 14 0 0 1 14-14" fill="white" opacity=".36" style="mix-blend-mode:overlay"/></g><use transform="translate(20 24)" href="#eyes-open-8ea04040"/><use transform="translate(9.5 4.5)" href="#hair-extraLong-8ea04040"/><use transform="translate(11 46.2)" href="#clothes-squared-8ea04040"/><use transform="translate(27 37.46)" href="#mouth-bigSmile-8ea04040"/><use transform="translate(25 32.25)" href="#nose-smallRound-8ea04040"/></g></svg>