<svg xmlns="http://www.w3.org/2000/svg" viewBox="0 0 64 64" fill="none" shape-rendering="auto" aria-hidden="true"><metadata xmlns:rdf="http://www.w3.org/1999/02/22-rdf-syntax-ns#" xmlns:xsi="http://www.w3.org/2001/XMLSchema-instance" xmlns:dc="http://purl.org/dc/elements/1.1/" xmlns:dcterms="http://purl.org/dc/terms/"><rdf:RDF><rdf:Description><dc:title>Personas by Draftbit</dc:title><dc:creator>Draftbit - draftbit.com</dc:creator><dc:source xsi:type="dcterms:URI">https://personas.draftbit.com/</dc:source><dcterms:license xsi:type="dcterms:URI">https://creativecommons.org/licenses/by/4.0/</dcterms:license><dc:rights>Remix of “Personas by Draftbit” (https://personas.draftbit.com/) by “Draftbit - draftbit.com”, licensed under “CC BY 4.0” (https://creativecommons.org/licenses/by/4.0/)</dc:rights></rdf:Description></rdf:RDF></metadata><defs><g id="eyes-glasses-1f98d5be"><path d="M6 3a1.5 1.5 0 1 1 0 3 1.5 1.5 0 0 1 0-3m12 0a1.5 1.5 0 1 1 0 3 1.5 1.5 0 0 1 0-3" fill="#1B0640"/><path d="M9 8H3V2h6zm12 0h-6V2h6z" fill="white" opacity=".3"/><path d="M18 0q2.5 0 5 1.05l1 .53v1.58l-1 .52v3.16A3.1 3.1 0 0 1 20 10h-4c-1.66 0-3-1.41-3-3.16V3.16h-2v3.68A3.1 3.1 0 0 1 8 10H4c-1.66 0-3-1.41-3-3.16V3.68l-1-.52V1.58l1-.53A13 13 0 0 1 6 0c2.5 0 3.5 1.05 5 1.05h2c1.5 0 2.5-1.05 5-1.05M6 2.1q-1.5 0-3 .45v4.3c0 .57.45 1.04 1 1.04h4c.55 0 1-.47 1-1.05V2.8l-.76-.27A6 6 0 0 0 6 2.11m12 0c-.82 0-1.4.13-2.24.42L15 2.8v4.05c0 .58.45 1.05 1 1.05h4c.55 0 1-.47 1-1.05v-4.3q-1.5-.44-3-.44" fill="#1B0640"/></g><g id="hair-mohawk-1f98d5be"><path d="M22.53 5.5a6.5 6.5 0 0 1 4.85 2.05c.56.54.96 1.32 1.1 2.14l.67 4.17c.35 1.94-.7 3.67-2.53 4.09q-2.43.55-4.12.55-1.7 0-4.24-.58c-1.84-.42-2.84-2.2-2.38-4.14l.8-4.2c.15-.74.52-1.43 1.02-1.93.63-.64 2.1-2.15 4.83-2.15" fill="#dee1f5"/><path d="M27.38 7.55c.56.54.96 1.32 1.1 2.14l.67 4.17c.35 1.94-.7 3.67-2.53 4.09q-2.43.55-4.12.55-1.7 0-4.24-.58c-1.84-.42-2.84-2.2-2.38-4.14l.79-4.2c.16-.74.53-1.43 1.03-1.93.26-.27.67-.69 1.25-1.08-.31.48-1.45.98-1.45 2.43v3.5a3.06 3.06 0 0 0 2.02 3.5q1.77.5 2.98.5 1.19 0 2.9-.47c1.28-.35 2.35-1.89 2.1-3.53v-3c0-1.5-1.1-2.54-1.5-3l-.14-.14c.73.42 1.22.9 1.52 1.2" fill="white" opacity=".26" style="mix-blend-mode:overlay"/></g><g id="clothes-checkered-1f98d5be"><path d="M16 2.8v3a5 5 0 0 0 10 0v-3l6.65 2.05a9 9 0 0 1 6.35 8.6v4.35H3v-4.35a9 9 0 0 1 6.35-8.6z" fill="#f3b63a"/><path d="m11 4.34-1.65.5A9 9 0 0 0 7 5.97V17.8h4zm4 13.46h4v-5.29a7 7 0 0 1-4-3.1zm8 0h4V9.4a7 7 0 0 1-4 3.11zm8 0h4V5.96l-.06-.04a9 9 0 0 0-2.3-1.07L31 4.35z" fill="black" opacity=".4" style="mix-blend-mode:overlay"/><path d="M3.4 10.8a9 9 0 0 1 2.53-4h8.14a7 7 0 0 0 2.03 4zm35.6 4v3H3v-3zm-2.93-8a9 9 0 0 1 2.53 4H25.9a7 7 0 0 0 2.03-4z" fill="white" opacity=".17" style="mix-blend-mode:lighten"/></g><g id="mouth-bigSmile-1f98d5be"><path d="M2 1.54h6v1a3 3 0 0 1-6 0z" fill="white"/></g><g id="nose-mediumRound-1f98d5be"><path d="M3.25.75a.75.75 0 0 1 1.5 0c0 .84.91 1.75 2.25 1.75S9.25 1.6 9.25.75a.75.75 0 1 1 1.5 0C10.75 2.41 9.16 4 7 4S3.25 2.41 3.25.75" fill="black" opacity=".36" style="mix-blend-mode:overlay"/></g><clipPath id="clip-1f98d5be"><rect width="64" height="64" rx="0" ry="0"/></clipPath></defs><g clip-path="url(#clip-1f98d5be)"><path d="M37 46.08V52a5 5 0 0 1-10 0v-5.92A14 14 0 0 1 18.58 37h-.08a4.5 4.5 0 0 1-.5-8.97V27a14 14 0 1 1 28 0v1.03a4.5 4.5 0 0 1-.58 8.97A14 14 0 0 1 37 46.08" fill="#d78774"/><mask id="personas-a" style="mask-type:luminance"><path d="M37 46.08V52a5 5 0 0 1-10 0v-5.92A14 14 0 0 1 18.58 37h-.08a4.5 4.5 0 0 1-.5-8.97V27a14 14 0 1 1 28 0v1.03a4.5 4.5 0 0 1-.58 8.97A14 14 0 0 1 37 46.08" fill="white"/></mask><g mask="url(#personas-a)"><path d="M32 13a14 14 0 0 1 14 14v6a14 14 0 1 1-28 0v-6a14 14 0 0 1 14-14" fill="white" opacity=".36" style="mix-blend-mode:overlay"/></g><use transform="translate(20 24)" href="#eyes-glasses-1f98d5be"/><use transform="translate(9.5 4.5)" href="#hair-mohawk-1f98d5be"/><use transform="translate(11 46.2)" href="#clothes-checkered-1f98d5be"/><use transform="translate(27 37.46)" href="#mouth-bigSmile-1f98d5be"/><use transform="translate(25 32.25)" href="#nose-mediumRound-1f98d5be"/></g></svg>