<svg xmlns="http://www.w3.org/2000/svg" viewBox="0 0 64 64" fill="none" shape-rendering="auto" aria-hidden="true"><metadata xmlns:rdf="http://www.w3.org/1999/02/22-rdf-syntax-ns#" xmlns:xsi="http://www.w3.org/2001/XMLSchema-instance" xmlns:dc="http://purl.org/dc/elements/1.1/" xmlns:dcterms="http://purl.org/dc/terms/"><rdf:RDF><rdf:Description><dc:title>Personas by Draftbit</dc:title><dc:creator>Draftbit - draftbit.com</dc:creator><dc:source xsi:type="dcterms:URI">https://personas.draftbit.com/</dc:source><dcterms:license xsi:type="dcterms:URI">https://creativecommons.org/licenses/by/4.0/</dcterms:license><dc:rights>Remix of “Personas by Draftbit” (https://personas.draftbit.com/) by “Draftbit - draftbit.com”, licensed under “CC BY 4.0” (https://creativecommons.org/licenses/by/4.0/)</dc:rights></rdf:Description></rdf:RDF></metadata><defs><g id="eyes-wink-96a04cd8"><path d="M5.5 3a1.5 1.5 0 1 1 0 3 1.5 1.5 0 0 1 0-3m14.9.26a.75.75 0 0 1 .2 1.48l-4 .5a.75.75 0 0 1-.2-1.48z" fill="#1B0640"/></g><g id="hair-curly-96a04cd8"><path d="m36.5 23.5-.02-.02-.3.02a2 2 0 0 1-1.8-2.88 2 2 0 0 1-2.73-2.1 2 2 0 0 1-3.3.56h-.02a2 2 0 0 1-2 2.05 2 2 0 0 1-1.75-1.04 2 2 0 0 1-3.92.33 2 2 0 0 1-3.87-.6l-.13-.02a2 2 0 0 1-3.67-.98l-.84-.32.02.26a2 2 0 0 1-2.74 1.86 2 2 0 0 1-.93 2.68v.23a4.5 4.5 0 0 0 .58 8.97 14 14 0 0 0 8.42 9.08v3.06q-.38-.3-.65-.68-.73-.2-1.43-.46a3.46 3.46 0 0 1-4.54-2.3l-.98-.7a3.46 3.46 0 0 1-3.83-3.8q-.26-.31-.5-.66a3.46 3.46 0 0 1-2.66-5.07l-.14-.39a3.47 3.47 0 0 1-1.08-5.96 3.47 3.47 0 0 1 .47-6.2 3.47 3.47 0 0 1 2.28-5.8A3.47 3.47 0 0 1 8.3 7.76a3.47 3.47 0 0 1 5.14-3.5 3.47 3.47 0 0 1 5.94-1.83 3.47 3.47 0 0 1 6.22 0 3.47 3.47 0 0 1 5.94 1.83 3.47 3.47 0 0 1 5.14 3.5 3.47 3.47 0 0 1 3.87 4.86 3.47 3.47 0 0 1 2.28 5.8 3.47 3.47 0 0 1 .47 6.19 3.47 3.47 0 0 1-1.08 5.97l-.14.4a3.47 3.47 0 0 1-2.66 5.06q-.24.34-.5.66a3.46 3.46 0 0 1-3.83 3.8l-.98.7a3.46 3.46 0 0 1-4.54 2.3q-.7.26-1.43.46-.27.4-.65.68v-3.06a14 14 0 0 0 8.4-9.08h.1a4.5 4.5 0 0 0 .5-8.97z" fill="#362c47"/><mask id="hairCurly-a" style="mask-type:luminance"><path d="m36.5 23.5-.02-.02-.3.02a2 2 0 0 1-1.8-2.88 2 2 0 0 1-2.73-2.1 2 2 0 0 1-3.3.56h-.02a2 2 0 0 1-2 2.05 2 2 0 0 1-1.75-1.04 2 2 0 0 1-3.92.33 2 2 0 0 1-3.87-.6l-.13-.02a2 2 0 0 1-3.67-.98l-.84-.32.02.26a2 2 0 0 1-2.74 1.86 2 2 0 0 1-.93 2.68v.23a4.5 4.5 0 0 0 .58 8.97 14 14 0 0 0 8.42 9.08v3.06q-.38-.3-.65-.68-.73-.2-1.43-.46a3.46 3.46 0 0 1-4.54-2.3l-.98-.7a3.46 3.46 0 0 1-3.83-3.8q-.26-.31-.5-.66a3.46 3.46 0 0 1-2.66-5.07l-.14-.39a3.47 3.47 0 0 1-1.08-5.96 3.47 3.47 0 0 1 .47-6.2 3.47 3.47 0 0 1 2.28-5.8A3.47 3.47 0 0 1 8.3 7.76a3.47 3.47 0 0 1 5.14-3.5 3.47 3.47 0 0 1 5.94-1.83 3.47 3.47 0 0 1 6.22 0 3.47 3.47 0 0 1 5.94 1.83 3.47 3.47 0 0 1 5.14 3.5 3.47 3.47 0 0 1 3.87 4.86 3.47 3.47 0 0 1 2.28 5.8 3.47 3.47 0 0 1 .47 6.19 3.47 3.47 0 0 1-1.08 5.97l-.14.4a3.47 3.47 0 0 1-2.66 5.06q-.24.34-.5.66a3.46 3.46 0 0 1-3.83 3.8l-.98.7a3.46 3.46 0 0 1-4.54 2.3q-.7.26-1.43.46-.27.4-.65.68v-3.06a14 14 0 0 0 8.4-9.08h.1a4.5 4.5 0 0 0 .5-8.97z" fill="white"/></mask><g mask="url(#hairCurly-a)"><rect x="-.5" y=".5" width="46" height="44" fill="white" opacity=".26" style="mix-blend-mode:overlay"/></g></g><g id="clothes-rounded-96a04cd8"><path d="M16 4.8v.47a5 5 0 0 0 10 0V4.8c7.06 1.52 12.93 6.74 16 13H0c3.07-6.26 8.94-11.48 16-13" fill="#f55d81"/></g><g id="mouth-surprise-96a04cd8"><ellipse cx="5" cy="3.54" rx="2" ry="2.5" fill="#1B0640"/></g><g id="nose-mediumRound-96a04cd8"><path d="M3.25.75a.75.75 0 0 1 1.5 0c0 .84.91 1.75 2.25 1.75S9.25 1.6 9.25.75a.75.75 0 1 1 1.5 0C10.75 2.41 9.16 4 7 4S3.25 2.41 3.25.75" fill="black" opacity=".36" style="mix-blend-mode:overlay"/></g><clipPath id="clip-96a04cd8"><rect width="64" height="64" rx="0" ry="0"/></clipPath></defs><g clip-path="url(#clip-96a04cd8)"><path d="M37 46.08V52a5 5 0 0 1-10 0v-5.92A14 14 0 0 1 18.58 37h-.08a4.5 4.5 0 0 1-.5-8.97V27a14 14 0 1 1 28 0v1.03a4.5 4.5 0 0 1-.58 8.97A14 14 0 0 1 37 46.08" fill="#d78774"/><mask id="personas-a" style="mask-type:luminance"><path d="M37 46.08V52a5 5 0 0 1-10 0v-5.92A14 14 0 0 1 18.58 37h-.08a4.5 4.5 0 0 1-.5-8.97V27a14 14 0 1 1 28 0v1.03a4.5 4.5 0 0 1-.58 8.97A14 14 0 0 1 37 46.08" fill="white"/></mask><g mask="url(#personas-a)"><path d="M32 13a14 14 0 0 1 14 14v6a14 14 0 1 1-28 0v-6a14 14 0 0 1 14-14" fill="white" opacity=".36" style="mix-blend-mode:overlay"/></g><use transform="translate(20 24)" href="#eyes-wink-96a04cd8"/><use transform="translate(9.5 4.5)" href="#hair-curly-96a04cd8"/><use transform="translate(11 46.2)" href="#clothes-rounded-96a04cd8"/><use transform="translate(27 37.46)" href="#mouth-surprise-96a04cd8"/><use transform="translate(25 32.25)" href="#nose-mediumRound-96a04cd8"/></g></svg>