<svg xmlns="http://www.w3.org/2000/svg" viewBox="0 0 64 64" fill="none" shape-rendering="auto" aria-hidden="true"><metadata xmlns:rdf="http://www.w3.org/1999/02/22-rdf-syntax-ns#" xmlns:xsi="http://www.w3.org/2001/XMLSchema-instance" xmlns:dc="http://purl.org/dc/elements/1.1/" xmlns:dcterms="http://purl.org/dc/terms/"><rdf:RDF><rdf:Description><dc:title>Personas by Draftbit</dc:title><dc:creator>Draftbit - draftbit.com</dc:creator><dc:source xsi:type="dcterms:URI">https://personas.draftbit.com/</dc:source><dcterms:license xsi:type="dcterms:URI">https://creativecommons.org/licenses/by/4.0/</dcterms:license><dc:rights>Remix of “Personas by Draftbit” (https://personas.draftbit.com/) by “Draftbit - draftbit.com”, licensed under “CC BY 4.0” (https://creativecommons.org/licenses/by/4.0/)</dc:rights></rdf:Description></rdf:RDF></metadata><defs><g id="eyes-sleep-aa9e2dbd"><path d="M7.5 3.63a1 1 0 0 1 1 1.74A4.5 4.5 0 0 1 6.25 6 4.5 4.5 0 0 1 4 5.37a1 1 0 0 1 1-1.74Q5.65 4 6.25 4t1.25-.37m12 0a1 1 0 0 1 1 1.74 4.5 4.5 0 0 1-2.25.63A4.5 4.5 0 0 1 16 5.37a1 1 0 0 1 1-1.74q.65.37 1.25.37t1.25-.37" fill="#1B0640"/></g><g id="hair-shortCombover-aa9e2dbd"><path d="M32.76 10.13a7.9 7.9 0 0 1 4.6 8.35l-.86 6.02q-4.25-2.55-5.6-11.56a9.2 9.2 0 0 1-5.7 2.77q-2.73.3-4.7.3-4.5 0-8-1.5 0 5.5-4 10.5l-.92-8.51a9 9 0 0 1 8.95-9.98H33.5q0 1.94-.74 3.63" fill="#dee1f5"/><path d="M33.5 6.5a9.24 9.24 0 0 1-8.3 9.21 46 46 0 0 1-4.7.29q-4.5 0-8-1.5 0 5.5-4 10.5l-.92-8.53a9 9 0 0 1 8.95-9.97zm1.46 5.1a7.9 7.9 0 0 1 2.4 6.88l-.86 6.02q-3.44-2.07-4.99-8.39a9.3 9.3 0 0 0 3.48-4.5" fill="white" opacity=".26" style="mix-blend-mode:overlay"/></g><g id="clothes-checkered-aa9e2dbd"><path d="M16 2.8v3a5 5 0 0 0 10 0v-3l6.65 2.05a9 9 0 0 1 6.35 8.6v4.35H3v-4.35a9 9 0 0 1 6.35-8.6z" fill="#456dff"/><path d="m11 4.34-1.65.5A9 9 0 0 0 7 5.97V17.8h4zm4 13.46h4v-5.29a7 7 0 0 1-4-3.1zm8 0h4V9.4a7 7 0 0 1-4 3.11zm8 0h4V5.96l-.06-.04a9 9 0 0 0-2.3-1.07L31 4.35z" fill="black" opacity=".4" style="mix-blend-mode:overlay"/><path d="M3.4 10.8a9 9 0 0 1 2.53-4h8.14a7 7 0 0 0 2.03 4zm35.6 4v3H3v-3zm-2.93-8a9 9 0 0 1 2.53 4H25.9a7 7 0 0 0 2.03-4z" fill="white" opacity=".17" style="mix-blend-mode:lighten"/></g><g id="mouth-bigSmile-aa9e2dbd"><path d="M2 1.54h6v1a3 3 0 0 1-6 0z" fill="white"/></g><g id="nose-wrinkles-aa9e2dbd"><path opacity=".12" d="m3.4.8-.12.24q-.32 1.12-.2 1.97-.5.8-.87 1.48Q1.54 5.76.97 7.41a.5.5 0 0 1-.94-.32A21 21 0 0 1 3.39.8m7.2-.02.1.1q1.27 1.8 2 3.14.7 1.35 1.3 3.07a.5.5 0 0 1-.96.32A20 20 0 0 0 10.93 3q.1-.85-.2-1.96a1 1 0 0 0-.14-.26" fill="black"/><path d="M4.2.53a.75.75 0 0 0-.92.51q-.3 1.12-.2 1.97C3.32 4.6 4.69 5.5 7 5.5c2.33 0 3.7-.89 3.92-2.5q.1-.85-.2-1.96a.75.75 0 1 0-1.44.42C9.8 3.29 9.2 4 7 4s-2.8-.71-2.28-2.54a.75.75 0 0 0-.5-.93" fill="black" opacity=".36" style="mix-blend-mode:overlay"/></g><clipPath id="clip-aa9e2dbd"><rect width="64" height="64" rx="0" ry="0"/></clipPath></defs><g clip-path="url(#clip-aa9e2dbd)"><path d="M37 46.08V52a5 5 0 0 1-10 0v-5.92A14 14 0 0 1 18.58 37h-.08a4.5 4.5 0 0 1-.5-8.97V27a14 14 0 1 1 28 0v1.03a4.5 4.5 0 0 1-.58 8.97A14 14 0 0 1 37 46.08" fill="#92594b"/><mask id="personas-a" style="mask-type:luminance"><path d="M37 46.08V52a5 5 0 0 1-10 0v-5.92A14 14 0 0 1 18.58 37h-.08a4.5 4.5 0 0 1-.5-8.97V27a14 14 0 1 1 28 0v1.03a4.5 4.5 0 0 1-.58 8.97A14 14 0 0 1 37 46.08" fill="white"/></mask><g mask="url(#personas-a)"><path d="M32 13a14 14 0 0 1 14 14v6a14 14 0 1 1-28 0v-6a14 14 0 0 1 14-14" fill="white" opacity=".36" style="mix-blend-mode:overlay"/></g><use transform="translate(20 24)" href="#eyes-sleep-aa9e2dbd"/><use transform="translate(9.5 4.5)" href="#hair-shortCombover-aa9e2dbd"/><use transform="translate(11 46.2)" href="#clothes-checkered-aa9e2dbd"/><use transform="translate(27 37.46)" href="#mouth-bigSmile-aa9e2dbd"/><use transform="translate(25 32.25)" href="#nose-wrinkles-aa9e2dbd"/></g></svg>