<svg xmlns="http://www.w3.org/2000/svg" viewBox="0 0 64 64" fill="none" shape-rendering="auto" aria-hidden="true"><metadata xmlns:rdf="http://www.w3.org/1999/02/22-rdf-syntax-ns#" xmlns:xsi="http://www.w3.org/2001/XMLSchema-instance" xmlns:dc="http://purl.org/dc/elements/1.1/" xmlns:dcterms="http://purl.org/dc/terms/"><rdf:RDF><rdf:Description><dc:title>Personas by Draftbit</dc:title><dc:creator>Draftbit - draftbit.com</dc:creator><dc:source xsi:type="dcterms:URI">https://personas.draftbit.com/</dc:source><dcterms:license xsi:type="dcterms:URI">https://creativecommons.org/licenses/by/4.0/</dcterms:license><dc:rights>Remix of “Personas by Draftbit” (https://personas.draftbit.com/) by “Draftbit - draftbit.com”, licensed under “CC BY 4.0” (https://creativecommons.org/licenses/by/4.0/)</dc:rights></rdf:Description></rdf:RDF></metadata><defs><g id="eyes-happy-1d98d298"><path d="M6 3.25c1.33 0 2.28.71 2.71 2.01a.75.75 0 0 1-1.42.48c-.26-.7-.65-1-1.3-1-.69.01-1.08.3-1.3 1a.75.75 0 0 1-1.43-.48c.43-1.3 1.38-2 2.7-2.01m12.02 0c1.33 0 2.28.71 2.71 2.01a.75.75 0 0 1-1.42.48c-.23-.7-.62-1-1.3-1-.66.01-1.05.3-1.28 1a.75.75 0 0 1-1.4-.48c.43-1.3 1.38-2 2.7-2.01" fill="#1B0640"/></g><g id="hair-curlyHighTop-1d98d298"><path d="M24.3 4.5a2 2 0 0 1 3.8 0h.57a2 2 0 0 1 3.83.67l.22.1a2 2 0 0 1 3.13 2.3l.15.17a2 2 0 0 1 2.4 1.96 2 2 0 0 1-.62 1.45l.11.47a2 2 0 0 1 .02 3.75l-.05.32a2 2 0 0 1-.02 3.63 2 2 0 0 1 .16.85q.39.47.4 1.13c0 .93-.71 1.7-1.62 1.8L36.5 25q-.66-1-1.2-2.46a2 2 0 0 1-.45-.8 2 2 0 0 1-.56-2.68l-.02-.1a2 2 0 0 1-.96-2.94 2 2 0 0 1-2.44-.32 2 2 0 0 1-3.72.06l-.31.03a2 2 0 0 1-3.58.2h-.23a2 2 0 0 1-3.52-.1l-.4-.02a2 2 0 0 1-3.68-.17 2 2 0 0 1-3.04-.22l-.03.16a2 2 0 0 1-.7 3.35 2 2 0 0 1-1.4 3.07q-.75 1.46-1.76 2.9l-.2-1.92a1.8 1.8 0 0 1-.33-3.47v-.12a2 2 0 0 1-.4-3.9v-.14a2 2 0 0 1 .07-3.92q0-.1.04-.17A2 2 0 0 1 9.14 7.7 2 2 0 0 1 11 5a2 2 0 0 1 1.2.4v-.1a2 2 0 0 1 3.84-.8h.05a2 2 0 0 1 3.82 0h.18a2 2 0 0 1 3.82 0z" fill="#f29c65"/><mask id="hairCurlyHighTop-a" style="mask-type:luminance"><path d="M24.3 4.5a2 2 0 0 1 3.8 0h.57a2 2 0 0 1 3.83.67l.22.1a2 2 0 0 1 3.13 2.3l.15.17a2 2 0 0 1 2.4 1.96 2 2 0 0 1-.62 1.45l.11.47a2 2 0 0 1 .02 3.75l-.05.32a2 2 0 0 1-.02 3.63 2 2 0 0 1 .16.85q.39.47.4 1.13c0 .93-.71 1.7-1.62 1.8L36.5 25q-.66-1-1.2-2.46a2 2 0 0 1-.45-.8 2 2 0 0 1-.56-2.68l-.02-.1a2 2 0 0 1-.96-2.94 2 2 0 0 1-2.44-.32 2 2 0 0 1-3.72.06l-.31.03a2 2 0 0 1-3.58.2h-.23a2 2 0 0 1-3.52-.1l-.4-.02a2 2 0 0 1-3.68-.17 2 2 0 0 1-3.04-.22l-.03.16a2 2 0 0 1-.7 3.35 2 2 0 0 1-1.4 3.07q-.75 1.46-1.76 2.9l-.2-1.92a1.8 1.8 0 0 1-.33-3.47v-.12a2 2 0 0 1-.4-3.9v-.14a2 2 0 0 1 .07-3.92q0-.1.04-.17A2 2 0 0 1 9.14 7.7 2 2 0 0 1 11 5a2 2 0 0 1 1.2.4v-.1a2 2 0 0 1 3.84-.8h.05a2 2 0 0 1 3.82 0h.18a2 2 0 0 1 3.82 0z" fill="white"/></mask><g mask="url(#hairCurlyHighTop-a)"><rect x="5.5" y="2.5" width="34" height="23" fill="white" opacity=".26" style="mix-blend-mode:overlay"/></g></g><g id="clothes-rounded-1d98d298"><path d="M16 4.8v.47a5 5 0 0 0 10 0V4.8c7.06 1.52 12.93 6.74 16 13H0c3.07-6.26 8.94-11.48 16-13" fill="#6dbb58"/></g><g id="mouth-surprise-1d98d298"><ellipse cx="5" cy="3.54" rx="2" ry="2.5" fill="#1B0640"/></g><g id="nose-mediumRound-1d98d298"><path d="M3.25.75a.75.75 0 0 1 1.5 0c0 .84.91 1.75 2.25 1.75S9.25 1.6 9.25.75a.75.75 0 1 1 1.5 0C10.75 2.41 9.16 4 7 4S3.25 2.41 3.25.75" fill="black" opacity=".36" style="mix-blend-mode:overlay"/></g><clipPath id="clip-1d98d298"><rect width="64" height="64" rx="0" ry="0"/></clipPath></defs><g clip-path="url(#clip-1d98d298)"><path d="M37 46.08V52a5 5 0 0 1-10 0v-5.92A14 14 0 0 1 18.58 37h-.08a4.5 4.5 0 0 1-.5-8.97V27a14 14 0 1 1 28 0v1.03a4.5 4.5 0 0 1-.58 8.97A14 14 0 0 1 37 46.08" fill="#e7a391"/><mask id="personas-a" style="mask-type:luminance"><path d="M37 46.08V52a5 5 0 0 1-10 0v-5.92A14 14 0 0 1 18.58 37h-.08a4.5 4.5 0 0 1-.5-8.97V27a14 14 0 1 1 28 0v1.03a4.5 4.5 0 0 1-.58 8.97A14 14 0 0 1 37 46.08" fill="white"/></mask><g mask="url(#personas-a)"><path d="M32 13a14 14 0 0 1 14 14v6a14 14 0 1 1-28 0v-6a14 14 0 0 1 14-14" fill="white" opacity=".36" style="mix-blend-mode:overlay"/></g><use transform="translate(20 24)" href="#eyes-happy-1d98d298"/><use transform="translate(9.5 4.5)" href="#hair-curlyHighTop-1d98d298"/><use transform="translate(11 46.2)" href="#clothes-rounded-1d98d298"/><use transform="translate(27 37.46)" href="#mouth-surprise-1d98d298"/><use transform="translate(25 32.25)" href="#nose-mediumRound-1d98d298"/></g></svg>