<svg xmlns="http://www.w3.org/2000/svg" viewBox="0 0 64 64" fill="none" shape-rendering="auto" aria-hidden="true"><metadata xmlns:rdf="http://www.w3.org/1999/02/22-rdf-syntax-ns#" xmlns:xsi="http://www.w3.org/2001/XMLSchema-instance" xmlns:dc="http://purl.org/dc/elements/1.1/" xmlns:dcterms="http://purl.org/dc/terms/"><rdf:RDF><rdf:Description><dc:title>Personas by Draftbit</dc:title><dc:creator>Draftbit - draftbit.com</dc:creator><dc:source xsi:type="dcterms:URI">https://personas.draftbit.com/</dc:source><dcterms:license xsi:type="dcterms:URI">https://creativecommons.org/licenses/by/4.0/</dcterms:license><dc:rights>Remix of “Personas by Draftbit” (https://personas.draftbit.com/) by “Draftbit - draftbit.com”, licensed under “CC BY 4.0” (https://creativecommons.org/licenses/by/4.0/)</dc:rights></rdf:Description></rdf:RDF></metadata><defs><g id="eyes-open-90a04366"><path d="M5.5 3a1.5 1.5 0 1 1 0 3 1.5 1.5 0 0 1 0-3m13 0a1.5 1.5 0 1 1 0 3 1.5 1.5 0 0 1 0-3" fill="#1B0640"/></g><linearGradient id="hairFade-a" x1="8.5" y1="10.1" x2="8.5" y2="24.5" gradientUnits="userSpaceOnUse"><stop/><stop offset="1" stop-opacity=".01"/></linearGradient><g id="hair-fade-90a04366"><mask id="hairFade-b" style="mask-type:alpha"><path d="M16 10.1c.08 1.73.18 3.4-.4 4.67-.86 1.93-2.3 2.81-3.34 3.73-.7.61-2.44 2.49-3.76 6v-2A14 14 0 0 1 16 10.1m13 0a14 14 0 0 1 7.5 12.4v2c-1.32-3.51-3.06-5.39-3.76-6-1.05-.92-2.48-1.8-3.35-3.73-.57-1.27-.47-2.94-.4-4.67" fill="url(#hairFade-a)"/></mask><g mask="url(#hairFade-b)"><path d="m16 10.1.06 14.4H8.5l-.2-14.4zm20.5 14.4h-7.28L29 10.1h7.43z" fill="#362c47"/></g><path d="M14.8 15.45c0-3.6 2.72-6.63 6.3-7l9.4-.95a6.84 6.84 0 0 1-6.49 9h-8.14c-.58 0-1.05-.47-1.05-1.05" fill="#362c47"/></g><g id="clothes-checkered-90a04366"><path d="M16 2.8v3a5 5 0 0 0 10 0v-3l6.65 2.05a9 9 0 0 1 6.35 8.6v4.35H3v-4.35a9 9 0 0 1 6.35-8.6z" fill="#f3b63a"/><path d="m11 4.34-1.65.5A9 9 0 0 0 7 5.97V17.8h4zm4 13.46h4v-5.29a7 7 0 0 1-4-3.1zm8 0h4V9.4a7 7 0 0 1-4 3.11zm8 0h4V5.96l-.06-.04a9 9 0 0 0-2.3-1.07L31 4.35z" fill="black" opacity=".4" style="mix-blend-mode:overlay"/><path d="M3.4 10.8a9 9 0 0 1 2.53-4h8.14a7 7 0 0 0 2.03 4zm35.6 4v3H3v-3zm-2.93-8a9 9 0 0 1 2.53 4H25.9a7 7 0 0 0 2.03-4z" fill="white" opacity=".17" style="mix-blend-mode:lighten"/></g><g id="mouth-smile-90a04366"><path d="M1 4.4a1 1 0 1 1 1-1.73 6 6 0 0 0 3 .87 6 6 0 0 0 3-.87A1 1 0 1 1 9 4.4a8 8 0 0 1-4 1.14A8 8 0 0 1 1 4.4" fill="#1B0640"/></g><g id="nose-mediumRound-90a04366"><path d="M3.25.75a.75.75 0 0 1 1.5 0c0 .84.91 1.75 2.25 1.75S9.25 1.6 9.25.75a.75.75 0 1 1 1.5 0C10.75 2.41 9.16 4 7 4S3.25 2.41 3.25.75" fill="black" opacity=".36" style="mix-blend-mode:overlay"/></g><clipPath id="clip-90a04366"><rect width="64" height="64" rx="0" ry="0"/></clipPath></defs><g clip-path="url(#clip-90a04366)"><path d="M37 46.08V52a5 5 0 0 1-10 0v-5.92A14 14 0 0 1 18.58 37h-.08a4.5 4.5 0 0 1-.5-8.97V27a14 14 0 1 1 28 0v1.03a4.5 4.5 0 0 1-.58 8.97A14 14 0 0 1 37 46.08" fill="#e5a07e"/><mask id="personas-a" style="mask-type:luminance"><path d="M37 46.08V52a5 5 0 0 1-10 0v-5.92A14 14 0 0 1 18.58 37h-.08a4.5 4.5 0 0 1-.5-8.97V27a14 14 0 1 1 28 0v1.03a4.5 4.5 0 0 1-.58 8.97A14 14 0 0 1 37 46.08" fill="white"/></mask><g mask="url(#personas-a)"><path d="M32 13a14 14 0 0 1 14 14v6a14 14 0 1 1-28 0v-6a14 14 0 0 1 14-14" fill="white" opacity=".36" style="mix-blend-mode:overlay"/></g><use transform="translate(20 24)" href="#eyes-open-90a04366"/><use transform="translate(9.5 4.5)" href="#hair-fade-90a04366"/><use transform="translate(11 46.2)" href="#clothes-checkered-90a04366"/><use transform="translate(27 37.46)" href="#mouth-smile-90a04366"/><use transform="translate(25 32.25)" href="#nose-mediumRound-90a04366"/></g></svg>