<svg xmlns="http://www.w3.org/2000/svg" viewBox="0 0 64 64" fill="none" shape-rendering="auto" aria-hidden="true"><metadata xmlns:rdf="http://www.w3.org/1999/02/22-rdf-syntax-ns#" xmlns:xsi="http://www.w3.org/2001/XMLSchema-instance" xmlns:dc="http://purl.org/dc/elements/1.1/" xmlns:dcterms="http://purl.org/dc/terms/"><rdf:RDF><rdf:Description><dc:title>Personas by Draftbit</dc:title><dc:creator>Draftbit - draftbit.com</dc:creator><dc:source xsi:type="dcterms:URI">https://personas.draftbit.com/</dc:source><dcterms:license xsi:type="dcterms:URI">https://creativecommons.org/licenses/by/4.0/</dcterms:license><dc:rights>Remix of “Personas by Draftbit” (https://personas.draftbit.com/) by “Draftbit - draftbit.com”, licensed under “CC BY 4.0” (https://creativecommons.org/licenses/by/4.0/)</dc:rights></rdf:Description></rdf:RDF></metadata><defs><g id="eyes-sleep-a79e2904"><path d="M7.5 3.63a1 1 0 0 1 1 1.74A4.5 4.5 0 0 1 6.25 6 4.5 4.5 0 0 1 4 5.37a1 1 0 0 1 1-1.74Q5.65 4 6.25 4t1.25-.37m12 0a1 1 0 0 1 1 1.74 4.5 4.5 0 0 1-2.25.63A4.5 4.5 0 0 1 16 5.37a1 1 0 0 1 1-1.74q.65.37 1.25.37t1.25-.37" fill="#1B0640"/></g><g id="hair-balding-a79e2904"><path d="M9.47 23.05c-.18.56-.7.95-1.3.95l-.65-6.19a3 3 0 0 1 2.98-3.3h1.67zm24.37-8.55a3 3 0 0 1 2.98 3.31l-.65 6.2c-.6 0-1.12-.37-1.3-.93l-2.7-8.55z" fill="#6c4545"/><path d="M16.75 12.38a.75.75 0 0 1 .76 1.29q-1.5.9-2.62 2.2-1.14 1.35-2 3.07a.75.75 0 1 1-1.35-.67 17 17 0 0 1 2.2-3.37q1.3-1.5 3-2.52M19.25 11a.75.75 0 1 1 0 1.5.75.75 0 0 1 0-1.5" fill="white" opacity=".2" style="mix-blend-mode:overlay"/></g><g id="clothes-checkered-a79e2904"><path d="M16 2.8v3a5 5 0 0 0 10 0v-3l6.65 2.05a9 9 0 0 1 6.35 8.6v4.35H3v-4.35a9 9 0 0 1 6.35-8.6z" fill="#f55d81"/><path d="m11 4.34-1.65.5A9 9 0 0 0 7 5.97V17.8h4zm4 13.46h4v-5.29a7 7 0 0 1-4-3.1zm8 0h4V9.4a7 7 0 0 1-4 3.11zm8 0h4V5.96l-.06-.04a9 9 0 0 0-2.3-1.07L31 4.35z" fill="black" opacity=".4" style="mix-blend-mode:overlay"/><path d="M3.4 10.8a9 9 0 0 1 2.53-4h8.14a7 7 0 0 0 2.03 4zm35.6 4v3H3v-3zm-2.93-8a9 9 0 0 1 2.53 4H25.9a7 7 0 0 0 2.03-4z" fill="white" opacity=".17" style="mix-blend-mode:lighten"/></g><g id="mouth-bigSmile-a79e2904"><path d="M2 1.54h6v1a3 3 0 0 1-6 0z" fill="white"/></g><g id="nose-wrinkles-a79e2904"><path opacity=".12" d="m3.4.8-.12.24q-.32 1.12-.2 1.97-.5.8-.87 1.48Q1.54 5.76.97 7.41a.5.5 0 0 1-.94-.32A21 21 0 0 1 3.39.8m7.2-.02.1.1q1.27 1.8 2 3.14.7 1.35 1.3 3.07a.5.5 0 0 1-.96.32A20 20 0 0 0 10.93 3q.1-.85-.2-1.96a1 1 0 0 0-.14-.26" fill="black"/><path d="M4.2.53a.75.75 0 0 0-.92.51q-.3 1.12-.2 1.97C3.32 4.6 4.69 5.5 7 5.5c2.33 0 3.7-.89 3.92-2.5q.1-.85-.2-1.96a.75.75 0 1 0-1.44.42C9.8 3.29 9.2 4 7 4s-2.8-.71-2.28-2.54a.75.75 0 0 0-.5-.93" fill="black" opacity=".36" style="mix-blend-mode:overlay"/></g><g id="facialHair-beardMustache-a79e2904"><path d="m8.47 6.76 2.43-.83A2.5 2.5 0 0 1 14 7.3a2.5 2.5 0 0 1 3.1-1.37l2.43.83A18.7 18.7 0 0 0 28 0v6.3a14 14 0 0 1-28 0V0c2.05 2.94 5 5.43 8.47 6.76" fill="#6c4545"/><mask id="facialHairBeardMustache-a" style="mask-type:luminance"><path d="m8.47 6.76 2.43-.83A2.5 2.5 0 0 1 14 7.3a2.5 2.5 0 0 1 3.1-1.37l2.43.83A18.7 18.7 0 0 0 28 0v6.3a14 14 0 0 1-28 0V0c2.05 2.94 5 5.43 8.47 6.76" fill="white"/></mask><g mask="url(#facialHairBeardMustache-a)"><path d="M28 .3v6a14 14 0 0 1-28 0V0c2.05 2.94 5 5.42 8.47 6.75l-2.8.97a1 1 0 0 0 .07 1.91l5.08 1.3A2.7 2.7 0 0 0 14 9.34a2.7 2.7 0 0 0 3.18 1.6l5.08-1.3a1 1 0 0 0 .08-1.92l-2.82-.97A18.7 18.7 0 0 0 28 0z" fill="white" opacity=".26" style="mix-blend-mode:overlay"/><path d="M18 10.72v.08a3 3 0 0 1-3 3h-2a3 3 0 0 1-3-3.08l.82.21A2.7 2.7 0 0 0 14 9.34a2.7 2.7 0 0 0 3.18 1.6z" fill="#FFFEFD"/></g></g><clipPath id="clip-a79e2904"><rect width="64" height="64" rx="0" ry="0"/></clipPath></defs><g clip-path="url(#clip-a79e2904)"><path d="M37 46.08V52a5 5 0 0 1-10 0v-5.92A14 14 0 0 1 18.58 37h-.08a4.5 4.5 0 0 1-.5-8.97V27a14 14 0 1 1 28 0v1.03a4.5 4.5 0 0 1-.58 8.97A14 14 0 0 1 37 46.08" fill="#b16a5b"/><mask id="personas-a" style="mask-type:luminance"><path d="M37 46.08V52a5 5 0 0 1-10 0v-5.92A14 14 0 0 1 18.58 37h-.08a4.5 4.5 0 0 1-.5-8.97V27a14 14 0 1 1 28 0v1.03a4.5 4.5 0 0 1-.58 8.97A14 14 0 0 1 37 46.08" fill="white"/></mask><g mask="url(#personas-a)"><path d="M32 13a14 14 0 0 1 14 14v6a14 14 0 1 1-28 0v-6a14 14 0 0 1 14-14" fill="white" opacity=".36" style="mix-blend-mode:overlay"/></g><use transform="translate(20 24)" href="#eyes-sleep-a79e2904"/><use transform="translate(9.5 4.5)" href="#hair-balding-a79e2904"/><use transform="translate(11 46.2)" href="#clothes-checkered-a79e2904"/><use transform="translate(27 37.46)" href="#mouth-bigSmile-a79e2904"/><use transform="translate(25 32.25)" href="#nose-wrinkles-a79e2904"/><use transform="translate(18 28.7)" href="#facialHair-beardMustache-a79e2904"/></g></svg>