<svg xmlns="http://www.w3.org/2000/svg" viewBox="0 0 64 64" fill="none" shape-rendering="auto" aria-hidden="true"><metadata xmlns:rdf="http://www.w3.org/1999/02/22-rdf-syntax-ns#" xmlns:xsi="http://www.w3.org/2001/XMLSchema-instance" xmlns:dc="http://purl.org/dc/elements/1.1/" xmlns:dcterms="http://purl.org/dc/terms/"><rdf:RDF><rdf:Description><dc:title>Personas by Draftbit</dc:title><dc:creator>Draftbit - draftbit.com</dc:creator><dc:source xsi:type="dcterms:URI">https://personas.draftbit.com/</dc:source><dcterms:license xsi:type="dcterms:URI">https://creativecommons.org/licenses/by/4.0/</dcterms:license><dc:rights>Remix of “Personas by Draftbit” (https://personas.draftbit.com/) by “Draftbit - draftbit.com”, licensed under “CC BY 4.0” (https://creativecommons.org/licenses/by/4.0/)</dc:rights></rdf:Description></rdf:RDF></metadata><defs><g id="eyes-open-8fa041d3"><path d="M5.5 3a1.5 1.5 0 1 1 0 3 1.5 1.5 0 0 1 0-3m13 0a1.5 1.5 0 1 1 0 3 1.5 1.5 0 0 1 0-3" fill="#1B0640"/></g><g id="hair-shortComboverChops-8fa041d3"><path d="m8.3 23.06-.72-6.6a9 9 0 0 1 8.95-9.96H33.5q0 1.94-.74 3.63a7.9 7.9 0 0 1 4.6 8.35l-.86 6.02v4.22a14 14 0 0 1-.48 3.42l-2.52.54a1 1 0 0 1-1.19-1.18l1.9-9.12q-2.36-3.14-3.31-9.44a9.2 9.2 0 0 1-5.7 2.77q-2.73.3-4.7.3-4.5 0-8-1.5 0 3.9-2 7.54l1.98 9.48a1 1 0 0 1-1.2 1.18l-2.5-.55a14 14 0 0 1-.49-3.42z" fill="#f29c65"/><path d="M33.5 6.5a9.24 9.24 0 0 1-8.3 9.21 46 46 0 0 1-4.7.29q-4.5 0-8-1.5 0 3.9-2 7.52l1.98 9.48a1 1 0 0 1-1.2 1.18l-2.5-.54a14 14 0 0 1-.49-3.42v-5.66l-.7-6.6a9 9 0 0 1 8.94-9.96zm1.47 5.1a7.9 7.9 0 0 1 2.39 6.88l-.86 6.02v4.22a14 14 0 0 1-.48 3.42l-2.52.54a1 1 0 0 1-1.19-1.18l1.9-9.12a17 17 0 0 1-2.7-6.27 9.3 9.3 0 0 0 3.46-4.5" fill="white" opacity=".26" style="mix-blend-mode:overlay"/></g><g id="clothes-rounded-8fa041d3"><path d="M16 4.8v.47a5 5 0 0 0 10 0V4.8c7.06 1.52 12.93 6.74 16 13H0c3.07-6.26 8.94-11.48 16-13" fill="#f55d81"/></g><g id="mouth-lips-8fa041d3"><path d="M1 3.54h8s-1 2.5-4 2.5-4-2.5-4-2.5" fill="#DC5C7A"/><path d="M1.39 2.76A2.1 2.1 0 0 1 5 2.54a2.1 2.1 0 0 1 3.61.22l.4.78H1z" fill="#F57B98"/></g><g id="nose-mediumRound-8fa041d3"><path d="M3.25.75a.75.75 0 0 1 1.5 0c0 .84.91 1.75 2.25 1.75S9.25 1.6 9.25.75a.75.75 0 1 1 1.5 0C10.75 2.41 9.16 4 7 4S3.25 2.41 3.25.75" fill="black" opacity=".36" style="mix-blend-mode:overlay"/></g><clipPath id="clip-8fa041d3"><rect width="64" height="64" rx="0" ry="0"/></clipPath></defs><g clip-path="url(#clip-8fa041d3)"><path d="M37 46.08V52a5 5 0 0 1-10 0v-5.92A14 14 0 0 1 18.58 37h-.08a4.5 4.5 0 0 1-.5-8.97V27a14 14 0 1 1 28 0v1.03a4.5 4.5 0 0 1-.58 8.97A14 14 0 0 1 37 46.08" fill="#623d36"/><mask id="personas-a" style="mask-type:luminance"><path d="M37 46.08V52a5 5 0 0 1-10 0v-5.92A14 14 0 0 1 18.58 37h-.08a4.5 4.5 0 0 1-.5-8.97V27a14 14 0 1 1 28 0v1.03a4.5 4.5 0 0 1-.58 8.97A14 14 0 0 1 37 46.08" fill="white"/></mask><g mask="url(#personas-a)"><path d="M32 13a14 14 0 0 1 14 14v6a14 14 0 1 1-28 0v-6a14 14 0 0 1 14-14" fill="white" opacity=".36" style="mix-blend-mode:overlay"/></g><use transform="translate(20 24)" href="#eyes-open-8fa041d3"/><use transform="translate(9.5 4.5)" href="#hair-shortComboverChops-8fa041d3"/><use transform="translate(11 46.2)" href="#clothes-rounded-8fa041d3"/><use transform="translate(27 37.46)" href="#mouth-lips-8fa041d3"/><use transform="translate(25 32.25)" href="#nose-mediumRound-8fa041d3"/></g></svg>